<svg version="1.1" viewBox="0.0 0.0 646.0 410.0" fill="none" stroke="none" stroke-linecap="square" stroke-miterlimit="10" width="646" height="410" xmlns:xlink="http://www.w3.org/1999/xlink" xmlns="http://www.w3.org/2000/svg"><path fill="#ffffff" d="M0 0L646.0 0L646.0 410.0L0 410.0L0 0Z" fill-rule="nonzero"/><path stroke="#cccccc" stroke-width="1.0" stroke-linecap="butt" d="M103.5 317.5L625.5 317.5" fill-rule="nonzero"/><path stroke="#cccccc" stroke-width="1.0" stroke-linecap="butt" d="M103.5 266.5L625.5 266.5" fill-rule="nonzero"/><path stroke="#cccccc" stroke-width="1.0" stroke-linecap="butt" d="M103.5 215.5L625.5 215.5" fill-rule="nonzero"/><path stroke="#cccccc" stroke-width="1.0" stroke-linecap="butt" d="M103.5 164.5L625.5 164.5" fill-rule="nonzero"/><path stroke="#cccccc" stroke-width="1.0" stroke-linecap="butt" d="M103.5 113.5L625.5 113.5" fill-rule="nonzero"/><clipPath id="id_0"><path d="M103.5 92.833336L625.5 92.833336L625.5 337.5L103.5 337.5L103.5 92.833336Z" clip-rule="nonzero"/></clipPath><path stroke="#000000" stroke-width="0.0" stroke-linecap="butt" stroke-opacity="0.0" clip-path="url(#id_0)" d="M134.0 338.0L120.0 338.0L120.0 338.0L134.0 338.0Z" fill-rule="nonzero"/><path fill="#4285f4" clip-path="url(#id_0)" d="M134.0 338.0L120.0 338.0L120.0 338.0L134.0 338.0Z" fill-rule="nonzero"/><path stroke="#000000" stroke-width="0.0" stroke-linecap="butt" stroke-opacity="0.0" clip-path="url(#id_0)" d="M180.0 338.0L166.0 338.0L166.0 260.0C166.0 258.89542 166.89543 258.0 168.0 258.0L178.0 258.0C179.10457 258.0 180.0 258.89542 180.0 260.0Z" fill-rule="nonzero"/><path fill="#4285f4" clip-path="url(#id_0)" d="M180.0 338.0L166.0 338.0L166.0 260.0C166.0 258.89542 166.89543 258.0 168.0 258.0L178.0 258.0C179.10457 258.0 180.0 258.89542 180.0 260.0Z" fill-rule="nonzero"/><path stroke="#000000" stroke-width="0.0" stroke-linecap="butt" stroke-opacity="0.0" clip-path="url(#id_0)" d="M226.0 338.0L212.0 338.0L212.0 237.0C212.0 235.89543 212.89543 235.0 214.0 235.0L224.0 235.0C225.10457 235.0 226.0 235.89543 226.0 237.0Z" fill-rule="nonzero"/><path fill="#4285f4" clip-path="url(#id_0)" d="M226.0 338.0L212.0 338.0L212.0 237.0C212.0 235.89543 212.89543 235.0 214.0 235.0L224.0 235.0C225.10457 235.0 226.0 235.89543 226.0 237.0Z" fill-rule="nonzero"/><path stroke="#000000" stroke-width="0.0" stroke-linecap="butt" stroke-opacity="0.0" clip-path="url(#id_0)" d="M272.0 338.0L258.0 338.0L258.0 245.0C258.0 243.89543 258.89542 243.0 260.0 243.0L270.0 243.0C271.10458 243.0 272.0 243.89543 272.0 245.0Z" fill-rule="nonzero"/><path fill="#4285f4" clip-path="url(#id_0)" d="M272.0 338.0L258.0 338.0L258.0 245.0C258.0 243.89543 258.89542 243.0 260.0 243.0L270.0 243.0C271.10458 243.0 272.0 243.89543 272.0 245.0Z" fill-rule="nonzero"/><path stroke="#000000" stroke-width="0.0" stroke-linecap="butt" stroke-opacity="0.0" clip-path="url(#id_0)" d="M318.0 338.0L304.0 338.0L304.0 235.0C304.0 233.89543 304.89542 233.0 306.0 233.0L316.0 233.0C317.10458 233.0 318.0 233.89543 318.0 235.0Z" fill-rule="nonzero"/><path fill="#4285f4" clip-path="url(#id_0)" d="M318.0 338.0L304.0 338.0L304.0 235.0C304.0 233.89543 304.89542 233.0 306.0 233.0L316.0 233.0C317.10458 233.0 318.0 233.89543 318.0 235.0Z" fill-rule="nonzero"/><path stroke="#000000" stroke-width="0.0" stroke-linecap="butt" stroke-opacity="0.0" clip-path="url(#id_0)" d="M364.0 338.0L350.0 338.0L350.0 235.0C350.0 233.89543 350.89542 233.0 352.0 233.0L362.0 233.0C363.10458 233.0 364.0 233.89543 364.0 235.0Z" fill-rule="nonzero"/><path fill="#4285f4" clip-path="url(#id_0)" d="M364.0 338.0L350.0 338.0L350.0 235.0C350.0 233.89543 350.89542 233.0 352.0 233.0L362.0 233.0C363.10458 233.0 364.0 233.89543 364.0 235.0Z" fill-rule="nonzero"/><path stroke="#000000" stroke-width="0.0" stroke-linecap="butt" stroke-opacity="0.0" clip-path="url(#id_0)" d="M409.0 338.0L395.0 338.0L395.0 213.0C395.0 211.89543 395.89542 211.0 397.0 211.0L407.0 211.0C408.10458 211.0 409.0 211.89543 409.0 213.0Z" fill-rule="nonzero"/><path fill="#4285f4" clip-path="url(#id_0)" d="M409.0 338.0L395.0 338.0L395.0 213.0C395.0 211.89543 395.89542 211.0 397.0 211.0L407.0 211.0C408.10458 211.0 409.0 211.89543 409.0 213.0Z" fill-rule="nonzero"/><path stroke="#000000" stroke-width="0.0" stroke-linecap="butt" stroke-opacity="0.0" clip-path="url(#id_0)" d="M455.0 338.0L441.0 338.0L441.0 204.0C441.0 202.89543 441.89542 202.0 443.0 202.0L453.0 202.0C454.10458 202.0 455.0 202.89543 455.0 204.0Z" fill-rule="nonzero"/><path fill="#4285f4" clip-path="url(#id_0)" d="M455.0 338.0L441.0 338.0L441.0 204.0C441.0 202.89543 441.89542 202.0 443.0 202.0L453.0 202.0C454.10458 202.0 455.0 202.89543 455.0 204.0Z" fill-rule="nonzero"/><path stroke="#000000" stroke-width="0.0" stroke-linecap="butt" stroke-opacity="0.0" clip-path="url(#id_0)" d="M501.0 338.0L487.0 338.0L487.0 199.0C487.0 197.89543 487.89542 197.0 489.0 197.0L499.0 197.0C500.10458 197.0 501.0 197.89543 501.0 199.0Z" fill-rule="nonzero"/><path fill="#4285f4" clip-path="url(#id_0)" d="M501.0 338.0L487.0 338.0L487.0 199.0C487.0 197.89543 487.89542 197.0 489.0 197.0L499.0 197.0C500.10458 197.0 501.0 197.89543 501.0 199.0Z" fill-rule="nonzero"/><path stroke="#000000" stroke-width="0.0" stroke-linecap="butt" stroke-opacity="0.0" clip-path="url(#id_0)" d="M547.0 338.0L533.0 338.0L533.0 195.0C533.0 193.89543 533.89545 193.0 535.0 193.0L545.0 193.0C546.10455 193.0 547.0 193.89543 547.0 195.0Z" fill-rule="nonzero"/><path fill="#4285f4" clip-path="url(#id_0)" d="M547.0 338.0L533.0 338.0L533.0 195.0C533.0 193.89543 533.89545 193.0 535.0 193.0L545.0 193.0C546.10455 193.0 547.0 193.89543 547.0 195.0Z" fill-rule="nonzero"/><path stroke="#000000" stroke-width="0.0" stroke-linecap="butt" stroke-opacity="0.0" clip-path="url(#id_0)" d="M593.0 338.0L579.0 338.0L579.0 186.0C579.0 184.89543 579.89545 184.0 581.0 184.0L591.0 184.0C592.10455 184.0 593.0 184.89543 593.0 186.0Z" fill-rule="nonzero"/><path fill="#4285f4" clip-path="url(#id_0)" d="M593.0 338.0L579.0 338.0L579.0 186.0C579.0 184.89543 579.89545 184.0 581.0 184.0L591.0 184.0C592.10455 184.0 593.0 184.89543 593.0 186.0Z" fill-rule="nonzero"/><path stroke="#000000" stroke-width="0.0" stroke-linecap="butt" stroke-opacity="0.0" clip-path="url(#id_0)" d="M149.0 338.0L135.0 338.0L135.0 319.0C135.0 317.89542 135.89543 317.0 137.0 317.0L147.0 317.0C148.10457 317.0 149.0 317.89542 149.0 319.0Z" fill-rule="nonzero"/><path fill="#ff6d01" clip-path="url(#id_0)" d="M149.0 338.0L135.0 338.0L135.0 319.0C135.0 317.89542 135.89543 317.0 137.0 317.0L147.0 317.0C148.10457 317.0 149.0 317.89542 149.0 319.0Z" fill-rule="nonzero"/><path stroke="#000000" stroke-width="0.0" stroke-linecap="butt" stroke-opacity="0.0" clip-path="url(#id_0)" d="M195.0 338.0L181.0 338.0L181.0 251.0C181.0 249.89543 181.89543 249.0 183.0 249.0L193.0 249.0C194.10457 249.0 195.0 249.89543 195.0 251.0Z" fill-rule="nonzero"/><path fill="#ff6d01" clip-path="url(#id_0)" d="M195.0 338.0L181.0 338.0L181.0 251.0C181.0 249.89543 181.89543 249.0 183.0 249.0L193.0 249.0C194.10457 249.0 195.0 249.89543 195.0 251.0Z" fill-rule="nonzero"/><path stroke="#000000" stroke-width="0.0" stroke-linecap="butt" stroke-opacity="0.0" clip-path="url(#id_0)" d="M241.0 338.0L227.0 338.0L227.0 216.0C227.0 214.89543 227.89543 214.0 229.0 214.0L239.0 214.0C240.10457 214.0 241.0 214.89543 241.0 216.0Z" fill-rule="nonzero"/><path fill="#ff6d01" clip-path="url(#id_0)" d="M241.0 338.0L227.0 338.0L227.0 216.0C227.0 214.89543 227.89543 214.0 229.0 214.0L239.0 214.0C240.10457 214.0 241.0 214.89543 241.0 216.0Z" fill-rule="nonzero"/><path stroke="#000000" stroke-width="0.0" stroke-linecap="butt" stroke-opacity="0.0" clip-path="url(#id_0)" d="M287.0 338.0L273.0 338.0L273.0 183.0C273.0 181.89543 273.89542 181.0 275.0 181.0L285.0 181.0C286.10458 181.0 287.0 181.89543 287.0 183.0Z" fill-rule="nonzero"/><path fill="#ff6d01" clip-path="url(#id_0)" d="M287.0 338.0L273.0 338.0L273.0 183.0C273.0 181.89543 273.89542 181.0 275.0 181.0L285.0 181.0C286.10458 181.0 287.0 181.89543 287.0 183.0Z" fill-rule="nonzero"/><path stroke="#000000" stroke-width="0.0" stroke-linecap="butt" stroke-opacity="0.0" clip-path="url(#id_0)" d="M333.0 338.0L319.0 338.0L319.0 160.0C319.0 158.89543 319.89542 158.0 321.0 158.0L331.0 158.0C332.10458 158.0 333.0 158.89543 333.0 160.0Z" fill-rule="nonzero"/><path fill="#ff6d01" clip-path="url(#id_0)" d="M333.0 338.0L319.0 338.0L319.0 160.0C319.0 158.89543 319.89542 158.0 321.0 158.0L331.0 158.0C332.10458 158.0 333.0 158.89543 333.0 160.0Z" fill-rule="nonzero"/><path stroke="#000000" stroke-width="0.0" stroke-linecap="butt" stroke-opacity="0.0" clip-path="url(#id_0)" d="M379.0 338.0L365.0 338.0L365.0 185.0C365.0 183.89543 365.89542 183.0 367.0 183.0L377.0 183.0C378.10458 183.0 379.0 183.89543 379.0 185.0Z" fill-rule="nonzero"/><path fill="#ff6d01" clip-path="url(#id_0)" d="M379.0 338.0L365.0 338.0L365.0 185.0C365.0 183.89543 365.89542 183.0 367.0 183.0L377.0 183.0C378.10458 183.0 379.0 183.89543 379.0 185.0Z" fill-rule="nonzero"/><path stroke="#000000" stroke-width="0.0" stroke-linecap="butt" stroke-opacity="0.0" clip-path="url(#id_0)" d="M424.0 338.0L410.0 338.0L410.0 155.0C410.0 153.89543 410.89542 153.0 412.0 153.0L422.0 153.0C423.10458 153.0 424.0 153.89543 424.0 155.0Z" fill-rule="nonzero"/><path fill="#ff6d01" clip-path="url(#id_0)" d="M424.0 338.0L410.0 338.0L410.0 155.0C410.0 153.89543 410.89542 153.0 412.0 153.0L422.0 153.0C423.10458 153.0 424.0 153.89543 424.0 155.0Z" fill-rule="nonzero"/><path stroke="#000000" stroke-width="0.0" stroke-linecap="butt" stroke-opacity="0.0" clip-path="url(#id_0)" d="M470.0 338.0L456.0 338.0L456.0 148.0C456.0 146.89543 456.89542 146.0 458.0 146.0L468.0 146.0C469.10458 146.0 470.0 146.89543 470.0 148.0Z" fill-rule="nonzero"/><path fill="#ff6d01" clip-path="url(#id_0)" d="M470.0 338.0L456.0 338.0L456.0 148.0C456.0 146.89543 456.89542 146.0 458.0 146.0L468.0 146.0C469.10458 146.0 470.0 146.89543 470.0 148.0Z" fill-rule="nonzero"/><path stroke="#000000" stroke-width="0.0" stroke-linecap="butt" stroke-opacity="0.0" clip-path="url(#id_0)" d="M516.0 338.0L502.0 338.0L502.0 114.0C502.0 112.89543 502.89542 112.0 504.0 112.0L514.0 112.0C515.10455 112.0 516.0 112.89543 516.0 114.0Z" fill-rule="nonzero"/><path fill="#ff6d01" clip-path="url(#id_0)" d="M516.0 338.0L502.0 338.0L502.0 114.0C502.0 112.89543 502.89542 112.0 504.0 112.0L514.0 112.0C515.10455 112.0 516.0 112.89543 516.0 114.0Z" fill-rule="nonzero"/><path stroke="#000000" stroke-width="0.0" stroke-linecap="butt" stroke-opacity="0.0" clip-path="url(#id_0)" d="M562.0 338.0L548.0 338.0L548.0 95.0C548.0 93.89543 548.89545 93.0 550.0 93.0L560.0 93.0C561.10455 93.0 562.0 93.89543 562.0 95.0Z" fill-rule="nonzero"/><path fill="#ff6d01" clip-path="url(#id_0)" d="M562.0 338.0L548.0 338.0L548.0 95.0C548.0 93.89543 548.89545 93.0 550.0 93.0L560.0 93.0C561.10455 93.0 562.0 93.89543 562.0 95.0Z" fill-rule="nonzero"/><path stroke="#000000" stroke-width="0.0" stroke-linecap="butt" stroke-opacity="0.0" clip-path="url(#id_0)" d="M608.0 338.0L594.0 338.0L594.0 95.0C594.0 93.89543 594.89545 93.0 596.0 93.0L606.0 93.0C607.10455 93.0 608.0 93.89543 608.0 95.0Z" fill-rule="nonzero"/><path fill="#ff6d01" clip-path="url(#id_0)" d="M608.0 338.0L594.0 338.0L594.0 95.0C594.0 93.89543 594.89545 93.0 596.0 93.0L606.0 93.0C607.10455 93.0 608.0 93.89543 608.0 95.0Z" fill-rule="nonzero"/><path fill="#000000" d="M329.92188 386.5L329.92188 377.90625L333.17188 377.90625Q334.01562 377.90625 334.46875 377.98438Q335.10938 378.09375 335.53125 378.39062Q335.96875 378.6875 336.21875 379.21875Q336.48438 379.75 336.48438 380.39062Q336.48438 381.48438 335.78125 382.25Q335.09375 383.0 333.26562 383.0L331.0625 383.0L331.0625 386.5L329.92188 386.5ZM331.0625 382.0L333.28125 382.0Q334.39062 382.0 334.84375 381.59375Q335.3125 381.17188 335.3125 380.42188Q335.3125 379.89062 335.03125 379.51562Q334.76562 379.125 334.32812 379.0Q334.03125 378.92188 333.26562 378.92188L331.0625 378.92188L331.0625 382.0ZM337.78125 386.5L337.78125 380.28125L338.73438 380.28125L338.73438 381.21875Q339.09375 380.5625 339.39062 380.35938Q339.70312 380.14062 340.07812 380.14062Q340.60938 380.14062 341.15625 380.46875L340.79688 381.45312Q340.40625 381.21875 340.03125 381.21875Q339.67188 381.21875 339.39062 381.4375Q339.125 381.64062 339.01562 382.01562Q338.82812 382.57812 338.82812 383.23438L338.82812 386.5L337.78125 386.5ZM341.40625 383.39062Q341.40625 381.65625 342.35938 380.82812Q343.15625 380.14062 344.3125 380.14062Q345.59375 380.14062 346.40625 380.98438Q347.23438 381.8125 347.23438 383.29688Q347.23438 384.5 346.875 385.1875Q346.51562 385.875 345.8125 386.26562Q345.125 386.64062 344.3125 386.64062Q343.01562 386.64062 342.20312 385.8125Q341.40625 384.96875 341.40625 383.39062ZM342.48438 383.39062Q342.48438 384.57812 343.0 385.17188Q343.53125 385.76562 344.3125 385.76562Q345.10938 385.76562 345.625 385.17188Q346.14062 384.57812 346.14062 383.35938Q346.14062 382.20312 345.60938 381.60938Q345.09375 381.01562 344.3125 381.01562Q343.53125 381.01562 343.0 381.60938Q342.48438 382.1875 342.48438 383.39062ZM349.76562 386.5L348.78125 386.5L348.78125 377.90625L349.84375 377.90625L349.84375 380.96875Q350.51562 380.14062 351.54688 380.14062Q352.125 380.14062 352.625 380.375Q353.14062 380.59375 353.46875 381.01562Q353.8125 381.4375 354.0 382.03125Q354.1875 382.625 354.1875 383.29688Q354.1875 384.89062 353.39062 385.76562Q352.59375 386.64062 351.5 386.64062Q350.39062 386.64062 349.76562 385.71875L349.76562 386.5ZM349.75 383.34375Q349.75 384.45312 350.0625 384.95312Q350.5625 385.76562 351.40625 385.76562Q352.09375 385.76562 352.59375 385.17188Q353.10938 384.57812 353.10938 383.375Q353.10938 382.15625 352.625 381.57812Q352.14062 381.0 351.45312 381.0Q350.76562 381.0 350.25 381.60938Q349.75 382.20312 349.75 383.34375ZM355.76562 386.5L355.76562 377.90625L356.82812 377.90625L356.82812 386.5L355.76562 386.5ZM363.04688 384.5L364.14062 384.625Q363.89062 385.57812 363.1875 386.10938Q362.48438 386.64062 361.40625 386.64062Q360.04688 386.64062 359.23438 385.79688Q358.4375 384.95312 358.4375 383.4375Q358.4375 381.875 359.25 381.01562Q360.0625 380.14062 361.34375 380.14062Q362.59375 380.14062 363.375 380.98438Q364.17188 381.82812 364.17188 383.375Q364.17188 383.46875 364.17188 383.65625L359.53125 383.65625Q359.59375 384.6875 360.10938 385.23438Q360.625 385.76562 361.40625 385.76562Q361.98438 385.76562 362.39062 385.46875Q362.8125 385.15625 363.04688 384.5ZM359.59375 382.79688L363.0625 382.79688Q363.0 382.0 362.67188 381.60938Q362.15625 381.0 361.35938 381.0Q360.625 381.0 360.125 381.48438Q359.64062 381.96875 359.59375 382.79688ZM365.79688 386.5L365.79688 380.28125L366.73438 380.28125L366.73438 381.15625Q367.03125 380.6875 367.51562 380.42188Q368.0 380.14062 368.625 380.14062Q369.3125 380.14062 369.75 380.42188Q370.20312 380.70312 370.375 381.21875Q371.125 380.14062 372.29688 380.14062Q373.23438 380.14062 373.71875 380.65625Q374.21875 381.15625 374.21875 382.23438L374.21875 386.5L373.17188 386.5L373.17188 382.57812Q373.17188 381.95312 373.0625 381.67188Q372.96875 381.39062 372.70312 381.21875Q372.4375 381.04688 372.0625 381.04688Q371.40625 381.04688 370.96875 381.48438Q370.54688 381.92188 370.54688 382.89062L370.54688 386.5L369.48438 386.5L369.48438 382.45312Q369.48438 381.75 369.21875 381.40625Q368.96875 381.04688 368.39062 381.04688Q367.9375 381.04688 367.5625 381.28125Q367.1875 381.51562 367.01562 381.96875Q366.84375 382.42188 366.84375 383.26562L366.84375 386.5L365.79688 386.5ZM378.375 384.64062L379.40625 384.48438Q379.5 385.10938 379.89062 385.4375Q380.29688 385.76562 381.03125 385.76562Q381.75 385.76562 382.09375 385.48438Q382.45312 385.1875 382.45312 384.78125Q382.45312 384.42188 382.14062 384.21875Q381.92188 384.07812 381.0625 383.85938Q379.90625 383.5625 379.45312 383.35938Q379.01562 383.14062 378.78125 382.76562Q378.54688 382.39062 378.54688 381.92188Q378.54688 381.51562 378.73438 381.15625Q378.92188 380.79688 379.25 380.5625Q379.5 380.39062 379.92188 380.26562Q380.34375 380.14062 380.84375 380.14062Q381.5625 380.14062 382.10938 380.35938Q382.67188 380.5625 382.9375 380.92188Q383.20312 381.28125 383.29688 381.875L382.26562 382.01562Q382.20312 381.54688 381.85938 381.28125Q381.53125 381.0 380.90625 381.0Q380.1875 381.0 379.875 381.25Q379.5625 381.48438 379.5625 381.8125Q379.5625 382.01562 379.6875 382.17188Q379.82812 382.34375 380.09375 382.45312Q380.25 382.51562 381.03125 382.71875Q382.15625 383.03125 382.59375 383.21875Q383.03125 383.40625 383.28125 383.76562Q383.53125 384.125 383.53125 384.67188Q383.53125 385.20312 383.21875 385.67188Q382.92188 386.125 382.34375 386.39062Q381.76562 386.64062 381.03125 386.64062Q379.8125 386.64062 379.17188 386.14062Q378.54688 385.625 378.375 384.64062ZM384.79688 379.125L384.79688 377.90625L385.85938 377.90625L385.85938 379.125L384.79688 379.125ZM384.79688 386.5L384.79688 380.28125L385.85938 380.28125L385.85938 386.5L384.79688 386.5ZM387.23438 386.5L387.23438 385.64062L391.20312 381.09375Q390.51562 381.125 390.0 381.125L387.46875 381.125L387.46875 380.28125L392.5625 380.28125L392.5625 380.96875L389.1875 384.92188L388.53125 385.64062Q389.25 385.59375 389.85938 385.59375L392.75 385.59375L392.75 386.5L387.23438 386.5ZM398.04688 384.5L399.14062 384.625Q398.89062 385.57812 398.1875 386.10938Q397.48438 386.64062 396.40625 386.64062Q395.04688 386.64062 394.23438 385.79688Q393.4375 384.95312 393.4375 383.4375Q393.4375 381.875 394.25 381.01562Q395.0625 380.14062 396.34375 380.14062Q397.59375 380.14062 398.375 380.98438Q399.17188 381.82812 399.17188 383.375Q399.17188 383.46875 399.17188 383.65625L394.53125 383.65625Q394.59375 384.6875 395.10938 385.23438Q395.625 385.76562 396.40625 385.76562Q396.98438 385.76562 397.39062 385.46875Q397.8125 385.15625 398.04688 384.5ZM394.59375 382.79688L398.0625 382.79688Q398.0 382.0 397.67188 381.60938Q397.15625 381.0 396.35938 381.0Q395.625 381.0 395.125 381.48438Q394.64062 381.96875 394.59375 382.79688Z" fill-rule="nonzero"/><path fill="#000000" d="M31.5 255.55728L23.921875 255.55728L23.921875 258.3854L22.90625 258.3854L22.90625 251.5729L23.921875 251.5729L23.921875 254.41666L31.5 254.41666L31.5 255.55728ZM24.125 250.86978L22.90625 250.86978L22.90625 249.80728L24.125 249.80728L24.125 250.86978ZM31.5 250.86978L25.28125 250.86978L25.28125 249.80728L31.5 249.80728L31.5 250.86978ZM31.5 247.86978L25.28125 247.86978L25.28125 246.93228L26.15625 246.93228Q25.6875 246.6354 25.421875 246.15103Q25.140625 245.66666 25.140625 245.04166Q25.140625 244.35416 25.421875 243.91666Q25.703125 243.46353 26.21875 243.29166Q25.140625 242.54166 25.140625 241.36978Q25.140625 240.43228 25.65625 239.9479Q26.15625 239.4479 27.234375 239.4479L31.5 239.4479L31.5 240.49478L27.578125 240.49478Q26.953125 240.49478 26.671875 240.60416Q26.390625 240.6979 26.21875 240.96353Q26.046875 241.22916 26.046875 241.60416Q26.046875 242.2604 26.484375 242.6979Q26.921875 243.11978 27.890625 243.11978L31.5 243.11978L31.5 244.18228L27.453125 244.18228Q26.75 244.18228 26.40625 244.4479Q26.046875 244.6979 26.046875 245.27603Q26.046875 245.72916 26.28125 246.10416Q26.515625 246.47916 26.96875 246.65103Q27.421875 246.8229 28.265625 246.8229L31.5 246.8229L31.5 247.86978ZM29.5 233.61978L29.625 232.52603Q30.578125 232.77603 31.109375 233.47916Q31.640625 234.18228 31.640625 235.2604Q31.640625 236.61978 30.796875 237.43228Q29.953125 238.22916 28.4375 238.22916Q26.875 238.22916 26.015625 237.41666Q25.140625 236.60416 25.140625 235.3229Q25.140625 234.0729 25.984375 233.29166Q26.828125 232.49478 28.375 232.49478Q28.46875 232.49478 28.65625 232.49478L28.65625 237.1354Q29.6875 237.0729 30.234375 236.55728Q30.765625 236.04166 30.765625 235.2604Q30.765625 234.68228 30.46875 234.27603Q30.15625 233.85416 29.5 233.61978ZM27.796875 237.0729L27.796875 233.60416Q27.0 233.66666 26.609375 233.99478Q26.0 234.5104 26.0 235.30728Q26.0 236.04166 26.484375 236.54166Q26.96875 237.02603 27.796875 237.0729ZM34.03125 225.85416Q32.921875 226.72916 31.453125 227.33853Q29.96875 227.93228 28.390625 227.93228Q27.0 227.93228 25.71875 227.49478Q24.234375 226.96353 22.765625 225.85416L22.765625 225.10416Q23.984375 225.80728 24.5 226.04166Q25.3125 226.40103 26.1875 226.60416Q27.28125 226.85416 28.390625 226.85416Q31.21875 226.85416 34.03125 225.10416L34.03125 225.85416ZM29.640625 224.29166L29.484375 223.2604Q30.109375 223.16666 30.4375 222.77603Q30.765625 222.36978 30.765625 221.6354Q30.765625 220.91666 30.484375 220.5729Q30.1875 220.21353 29.78125 220.21353Q29.421875 220.21353 29.21875 220.52603Q29.078125 220.74478 28.859375 221.60416Q28.5625 222.7604 28.359375 223.21353Q28.140625 223.65103 27.765625 223.8854Q27.390625 224.11978 26.921875 224.11978Q26.515625 224.11978 26.15625 223.93228Q25.796875 223.74478 25.5625 223.41666Q25.390625 223.16666 25.265625 222.74478Q25.140625 222.3229 25.140625 221.8229Q25.140625 221.10416 25.359375 220.55728Q25.5625 219.99478 25.921875 219.72916Q26.28125 219.46353 26.875 219.36978L27.015625 220.40103Q26.546875 220.46353 26.28125 220.80728Q26.0 221.1354 26.0 221.7604Q26.0 222.47916 26.25 222.79166Q26.484375 223.10416 26.8125 223.10416Q27.015625 223.10416 27.171875 222.97916Q27.34375 222.83853 27.453125 222.5729Q27.515625 222.41666 27.71875 221.6354Q28.03125 220.5104 28.21875 220.0729Q28.40625 219.6354 28.765625 219.3854Q29.125 219.1354 29.671875 219.1354Q30.203125 219.1354 30.671875 219.4479Q31.125 219.74478 31.390625 220.3229Q31.640625 220.90103 31.640625 221.6354Q31.640625 222.85416 31.140625 223.49478Q30.625 224.11978 29.640625 224.29166ZM29.21875 213.80728L29.359375 212.77603Q30.421875 212.9479 31.03125 213.65103Q31.640625 214.35416 31.640625 215.36978Q31.640625 216.65103 30.8125 217.43228Q29.96875 218.1979 28.40625 218.1979Q27.40625 218.1979 26.65625 217.86978Q25.890625 217.52603 25.515625 216.85416Q25.140625 216.16666 25.140625 215.35416Q25.140625 214.35416 25.65625 213.71353Q26.15625 213.05728 27.109375 212.86978L27.265625 213.90103Q26.640625 214.04166 26.328125 214.41666Q26.0 214.79166 26.0 215.3229Q26.0 216.11978 26.578125 216.61978Q27.140625 217.11978 28.375 217.11978Q29.640625 217.11978 30.203125 216.6354Q30.765625 216.15103 30.765625 215.3854Q30.765625 214.7604 30.390625 214.35416Q30.015625 213.93228 29.21875 213.80728ZM30.734375 207.80728Q31.234375 208.40103 31.4375 208.9479Q31.640625 209.47916 31.640625 210.10416Q31.640625 211.1354 31.140625 211.68228Q30.640625 212.22916 29.859375 212.22916Q29.40625 212.22916 29.03125 212.02603Q28.640625 211.8229 28.421875 211.47916Q28.1875 211.1354 28.078125 210.71353Q27.984375 210.41666 27.90625 209.77603Q27.765625 208.5104 27.546875 207.90103Q27.328125 207.90103 27.28125 207.90103Q26.625 207.90103 26.359375 208.1979Q26.015625 208.60416 26.015625 209.40103Q26.015625 210.1354 26.28125 210.49478Q26.53125 210.85416 27.1875 211.02603L27.046875 212.05728Q26.390625 211.91666 25.984375 211.58853Q25.578125 211.2604 25.359375 210.65103Q25.140625 210.04166 25.140625 209.24478Q25.140625 208.4479 25.328125 207.9479Q25.515625 207.4479 25.796875 207.21353Q26.078125 206.97916 26.515625 206.8854Q26.78125 206.83853 27.484375 206.83853L28.890625 206.83853Q30.359375 206.83853 30.75 206.77603Q31.140625 206.6979 31.5 206.49478L31.5 207.60416Q31.171875 207.7604 30.734375 207.80728ZM28.375 207.90103Q28.609375 208.47916 28.78125 209.61978Q28.875 210.27603 29.0 210.54166Q29.109375 210.80728 29.328125 210.96353Q29.546875 211.10416 29.828125 211.10416Q30.25 211.10416 30.53125 210.79166Q30.8125 210.46353 30.8125 209.85416Q30.8125 209.24478 30.546875 208.77603Q30.28125 208.29166 29.8125 208.0729Q29.453125 207.90103 28.765625 207.90103L28.375 207.90103ZM31.5 204.90103L22.90625 204.90103L22.90625 203.83853L31.5 203.83853L31.5 204.90103ZM29.5 197.61978L29.625 196.52603Q30.578125 196.77603 31.109375 197.47916Q31.640625 198.18228 31.640625 199.2604Q31.640625 200.61978 30.796875 201.43228Q29.953125 202.22916 28.4375 202.22916Q26.875 202.22916 26.015625 201.41666Q25.140625 200.60416 25.140625 199.3229Q25.140625 198.0729 25.984375 197.29166Q26.828125 196.49478 28.375 196.49478Q28.46875 196.49478 28.65625 196.49478L28.65625 201.1354Q29.6875 201.0729 30.234375 200.55728Q30.765625 200.04166 30.765625 199.2604Q30.765625 198.68228 30.46875 198.27603Q30.15625 197.85416 29.5 197.61978ZM27.796875 201.0729L27.796875 197.60416Q27.0 197.66666 26.609375 197.99478Q26.0 198.5104 26.0 199.30728Q26.0 200.04166 26.484375 200.54166Q26.96875 201.02603 27.796875 201.0729ZM31.5 190.83853L30.71875 190.83853Q31.640625 191.43228 31.640625 192.5729Q31.640625 193.3229 31.234375 193.9479Q30.8125 194.5729 30.078125 194.91666Q29.34375 195.2604 28.390625 195.2604Q27.46875 195.2604 26.703125 194.9479Q25.9375 194.6354 25.546875 194.0104Q25.140625 193.3854 25.140625 192.61978Q25.140625 192.05728 25.375 191.61978Q25.609375 191.18228 25.984375 190.90103L22.90625 190.90103L22.90625 189.85416L31.5 189.85416L31.5 190.83853ZM28.390625 194.16666Q29.59375 194.16666 30.1875 193.66666Q30.765625 193.16666 30.765625 192.47916Q30.765625 191.79166 30.203125 191.30728Q29.640625 190.8229 28.484375 190.8229Q27.203125 190.8229 26.609375 191.3229Q26.015625 191.80728 26.015625 192.52603Q26.015625 193.22916 26.59375 193.6979Q27.15625 194.16666 28.390625 194.16666ZM34.03125 187.18228L34.03125 187.93228Q31.21875 186.18228 28.390625 186.18228Q27.296875 186.18228 26.203125 186.43228Q25.328125 186.6354 24.515625 186.99478Q24.0 187.22916 22.765625 187.93228L22.765625 187.18228Q24.234375 186.08853 25.71875 185.55728Q27.0 185.10416 28.390625 185.10416Q29.96875 185.10416 31.453125 185.71353Q32.921875 186.3229 34.03125 187.18228Z" fill-rule="nonzero"/><path fill="#000000" d="M87.96875 321.6943L86.921875 321.6943L86.921875 314.97556Q86.53125 315.33493 85.90625 315.70993Q85.296875 316.0693 84.8125 316.24118L84.8125 315.22556Q85.6875 314.80368 86.34375 314.22556Q87.015625 313.6318 87.296875 313.0693L87.96875 313.0693L87.96875 321.6943ZM91.0 317.45993Q91.0 315.92868 91.3125 315.0068Q91.625 314.0693 92.234375 313.5693Q92.859375 313.0693 93.796875 313.0693Q94.484375 313.0693 95.0 313.35056Q95.53125 313.6318 95.875 314.16306Q96.21875 314.67868 96.40625 315.42868Q96.59375 316.17868 96.59375 317.45993Q96.59375 318.97556 96.28125 319.89743Q95.984375 320.8193 95.359375 321.33493Q94.75 321.83493 93.796875 321.83493Q92.5625 321.83493 91.84375 320.9443Q91.0 319.8818 91.0 317.45993ZM92.078125 317.45993Q92.078125 319.5693 92.578125 320.27243Q93.078125 320.97556 93.796875 320.97556Q94.53125 320.97556 95.015625 320.27243Q95.515625 319.5693 95.515625 317.45993Q95.515625 315.33493 95.015625 314.64743Q94.53125 313.9443 93.78125 313.9443Q93.0625 313.9443 92.625 314.55368Q92.078125 315.33493 92.078125 317.45993Z" fill-rule="nonzero"/><path fill="#000000" d="M80.96875 270.54535L79.921875 270.54535L79.921875 263.8266Q79.53125 264.18597 78.90625 264.56097Q78.296875 264.92035 77.8125 265.09222L77.8125 264.0766Q78.6875 263.65472 79.34375 263.0766Q80.015625 262.48285 80.296875 261.92035L80.96875 261.92035L80.96875 270.54535ZM84.0 266.31097Q84.0 264.77972 84.3125 263.85785Q84.625 262.92035 85.234375 262.42035Q85.859375 261.92035 86.796875 261.92035Q87.484375 261.92035 88.0 262.2016Q88.53125 262.48285 88.875 263.0141Q89.21875 263.52972 89.40625 264.27972Q89.59375 265.02972 89.59375 266.31097Q89.59375 267.8266 89.28125 268.74847Q88.984375 269.67035 88.359375 270.18597Q87.75 270.68597 86.796875 270.68597Q85.5625 270.68597 84.84375 269.79535Q84.0 268.73285 84.0 266.31097ZM85.078125 266.31097Q85.078125 268.42035 85.578125 269.12347Q86.078125 269.8266 86.796875 269.8266Q87.53125 269.8266 88.015625 269.12347Q88.515625 268.42035 88.515625 266.31097Q88.515625 264.18597 88.015625 263.49847Q87.53125 262.79535 86.78125 262.79535Q86.0625 262.79535 85.625 263.40472Q85.078125 264.18597 85.078125 266.31097ZM91.0 266.31097Q91.0 264.77972 91.3125 263.85785Q91.625 262.92035 92.234375 262.42035Q92.859375 261.92035 93.796875 261.92035Q94.484375 261.92035 95.0 262.2016Q95.53125 262.48285 95.875 263.0141Q96.21875 263.52972 96.40625 264.27972Q96.59375 265.02972 96.59375 266.31097Q96.59375 267.8266 96.28125 268.74847Q95.984375 269.67035 95.359375 270.18597Q94.75 270.68597 93.796875 270.68597Q92.5625 270.68597 91.84375 269.79535Q91.0 268.73285 91.0 266.31097ZM92.078125 266.31097Q92.078125 268.42035 92.578125 269.12347Q93.078125 269.8266 93.796875 269.8266Q94.53125 269.8266 95.015625 269.12347Q95.515625 268.42035 95.515625 266.31097Q95.515625 264.18597 95.015625 263.49847Q94.53125 262.79535 93.78125 262.79535Q93.0625 262.79535 92.625 263.40472Q92.078125 264.18597 92.078125 266.31097Z" fill-rule="nonzero"/><path fill="#000000" d="M70.96875 219.39641L69.921875 219.39641L69.921875 212.67766Q69.53125 213.03703 68.90625 213.41203Q68.296875 213.77141 67.8125 213.94328L67.8125 212.92766Q68.6875 212.50578 69.34375 211.92766Q70.015625 211.33391 70.296875 210.77141L70.96875 210.77141L70.96875 219.39641ZM74.59375 219.39641L74.59375 218.19328L75.796875 218.19328L75.796875 219.39641L74.59375 219.39641ZM77.0 215.16203Q77.0 213.63078 77.3125 212.70891Q77.625 211.77141 78.234375 211.27141Q78.859375 210.77141 79.796875 210.77141Q80.484375 210.77141 81.0 211.05266Q81.53125 211.33391 81.875 211.86516Q82.21875 212.38078 82.40625 213.13078Q82.59375 213.88078 82.59375 215.16203Q82.59375 216.67766 82.28125 217.59953Q81.984375 218.52141 81.359375 219.03703Q80.75 219.53703 79.796875 219.53703Q78.5625 219.53703 77.84375 218.64641Q77.0 217.58391 77.0 215.16203ZM78.078125 215.16203Q78.078125 217.27141 78.578125 217.97453Q79.078125 218.67766 79.796875 218.67766Q80.53125 218.67766 81.015625 217.97453Q81.515625 217.27141 81.515625 215.16203Q81.515625 213.03703 81.015625 212.34953Q80.53125 211.64641 79.78125 211.64641Q79.0625 211.64641 78.625 212.25578Q78.078125 213.03703 78.078125 215.16203ZM84.0 215.16203Q84.0 213.63078 84.3125 212.70891Q84.625 211.77141 85.234375 211.27141Q85.859375 210.77141 86.796875 210.77141Q87.484375 210.77141 88.0 211.05266Q88.53125 211.33391 88.875 211.86516Q89.21875 212.38078 89.40625 213.13078Q89.59375 213.88078 89.59375 215.16203Q89.59375 216.67766 89.28125 217.59953Q88.984375 218.52141 88.359375 219.03703Q87.75 219.53703 86.796875 219.53703Q85.5625 219.53703 84.84375 218.64641Q84.0 217.58391 84.0 215.16203ZM85.078125 215.16203Q85.078125 217.27141 85.578125 217.97453Q86.078125 218.67766 86.796875 218.67766Q87.53125 218.67766 88.015625 217.97453Q88.515625 217.27141 88.515625 215.16203Q88.515625 213.03703 88.015625 212.34953Q87.53125 211.64641 86.78125 211.64641Q86.0625 211.64641 85.625 212.25578Q85.078125 213.03703 85.078125 215.16203ZM91.0 215.16203Q91.0 213.63078 91.3125 212.70891Q91.625 211.77141 92.234375 211.27141Q92.859375 210.77141 93.796875 210.77141Q94.484375 210.77141 95.0 211.05266Q95.53125 211.33391 95.875 211.86516Q96.21875 212.38078 96.40625 213.13078Q96.59375 213.88078 96.59375 215.16203Q96.59375 216.67766 96.28125 217.59953Q95.984375 218.52141 95.359375 219.03703Q94.75 219.53703 93.796875 219.53703Q92.5625 219.53703 91.84375 218.64641Q91.0 217.58391 91.0 215.16203ZM92.078125 215.16203Q92.078125 217.27141 92.578125 217.97453Q93.078125 218.67766 93.796875 218.67766Q94.53125 218.67766 95.015625 217.97453Q95.515625 217.27141 95.515625 215.16203Q95.515625 213.03703 95.015625 212.34953Q94.53125 211.64641 93.78125 211.64641Q93.0625 211.64641 92.625 212.25578Q92.078125 213.03703 92.078125 215.16203Z" fill-rule="nonzero"/><path fill="#000000" d="M63.96875 168.24747L62.921875 168.24747L62.921875 161.52872Q62.53125 161.88809 61.90625 162.26309Q61.296875 162.62247 60.8125 162.79434L60.8125 161.77872Q61.6875 161.35684 62.34375 160.77872Q63.015625 160.18497 63.296875 159.62247L63.96875 159.62247L63.96875 168.24747ZM67.0 164.01309Q67.0 162.48184 67.3125 161.55997Q67.625 160.62247 68.234375 160.12247Q68.859375 159.62247 69.796875 159.62247Q70.484375 159.62247 71.0 159.90372Q71.53125 160.18497 71.875 160.71622Q72.21875 161.23184 72.40625 161.98184Q72.59375 162.73184 72.59375 164.01309Q72.59375 165.52872 72.28125 166.45059Q71.984375 167.37247 71.359375 167.88809Q70.75 168.38809 69.796875 168.38809Q68.5625 168.38809 67.84375 167.49747Q67.0 166.43497 67.0 164.01309ZM68.078125 164.01309Q68.078125 166.12247 68.578125 166.82559Q69.078125 167.52872 69.796875 167.52872Q70.53125 167.52872 71.015625 166.82559Q71.515625 166.12247 71.515625 164.01309Q71.515625 161.88809 71.015625 161.20059Q70.53125 160.49747 69.78125 160.49747Q69.0625 160.49747 68.625 161.10684Q68.078125 161.88809 68.078125 164.01309ZM74.59375 168.24747L74.59375 167.04434L75.796875 167.04434L75.796875 168.24747L74.59375 168.24747ZM77.0 164.01309Q77.0 162.48184 77.3125 161.55997Q77.625 160.62247 78.234375 160.12247Q78.859375 159.62247 79.796875 159.62247Q80.484375 159.62247 81.0 159.90372Q81.53125 160.18497 81.875 160.71622Q82.21875 161.23184 82.40625 161.98184Q82.59375 162.73184 82.59375 164.01309Q82.59375 165.52872 82.28125 166.45059Q81.984375 167.37247 81.359375 167.88809Q80.75 168.38809 79.796875 168.38809Q78.5625 168.38809 77.84375 167.49747Q77.0 166.43497 77.0 164.01309ZM78.078125 164.01309Q78.078125 166.12247 78.578125 166.82559Q79.078125 167.52872 79.796875 167.52872Q80.53125 167.52872 81.015625 166.82559Q81.515625 166.12247 81.515625 164.01309Q81.515625 161.88809 81.015625 161.20059Q80.53125 160.49747 79.78125 160.49747Q79.0625 160.49747 78.625 161.10684Q78.078125 161.88809 78.078125 164.01309ZM84.0 164.01309Q84.0 162.48184 84.3125 161.55997Q84.625 160.62247 85.234375 160.12247Q85.859375 159.62247 86.796875 159.62247Q87.484375 159.62247 88.0 159.90372Q88.53125 160.18497 88.875 160.71622Q89.21875 161.23184 89.40625 161.98184Q89.59375 162.73184 89.59375 164.01309Q89.59375 165.52872 89.28125 166.45059Q88.984375 167.37247 88.359375 167.88809Q87.75 168.38809 86.796875 168.38809Q85.5625 168.38809 84.84375 167.49747Q84.0 166.43497 84.0 164.01309ZM85.078125 164.01309Q85.078125 166.12247 85.578125 166.82559Q86.078125 167.52872 86.796875 167.52872Q87.53125 167.52872 88.015625 166.82559Q88.515625 166.12247 88.515625 164.01309Q88.515625 161.88809 88.015625 161.20059Q87.53125 160.49747 86.78125 160.49747Q86.0625 160.49747 85.625 161.10684Q85.078125 161.88809 85.078125 164.01309ZM91.0 164.01309Q91.0 162.48184 91.3125 161.55997Q91.625 160.62247 92.234375 160.12247Q92.859375 159.62247 93.796875 159.62247Q94.484375 159.62247 95.0 159.90372Q95.53125 160.18497 95.875 160.71622Q96.21875 161.23184 96.40625 161.98184Q96.59375 162.73184 96.59375 164.01309Q96.59375 165.52872 96.28125 166.45059Q95.984375 167.37247 95.359375 167.88809Q94.75 168.38809 93.796875 168.38809Q92.5625 168.38809 91.84375 167.49747Q91.0 166.43497 91.0 164.01309ZM92.078125 164.01309Q92.078125 166.12247 92.578125 166.82559Q93.078125 167.52872 93.796875 167.52872Q94.53125 167.52872 95.015625 166.82559Q95.515625 166.12247 95.515625 164.01309Q95.515625 161.88809 95.015625 161.20059Q94.53125 160.49747 93.78125 160.49747Q93.0625 160.49747 92.625 161.10684Q92.078125 161.88809 92.078125 164.01309Z" fill-rule="nonzero"/><path fill="#000000" d="M56.96875 117.09851L55.921875 117.09851L55.921875 110.37976Q55.53125 110.739136 54.90625 111.114136Q54.296875 111.47351 53.8125 111.645386L53.8125 110.62976Q54.6875 110.207886 55.34375 109.62976Q56.015625 109.03601 56.296875 108.47351L56.96875 108.47351L56.96875 117.09851ZM60.0 112.864136Q60.0 111.332886 60.3125 110.41101Q60.625 109.47351 61.234375 108.97351Q61.859375 108.47351 62.796875 108.47351Q63.484375 108.47351 64.0 108.75476Q64.53125 109.03601 64.875 109.56726Q65.21875 110.082886 65.40625 110.832886Q65.59375 111.582886 65.59375 112.864136Q65.59375 114.37976 65.28125 115.301636Q64.984375 116.22351 64.359375 116.739136Q63.75 117.239136 62.796875 117.239136Q61.5625 117.239136 60.84375 116.34851Q60.0 115.28601 60.0 112.864136ZM61.078125 112.864136Q61.078125 114.97351 61.578125 115.676636Q62.078125 116.37976 62.796875 116.37976Q63.53125 116.37976 64.015625 115.676636Q64.515625 114.97351 64.515625 112.864136Q64.515625 110.739136 64.015625 110.051636Q63.53125 109.34851 62.78125 109.34851Q62.0625 109.34851 61.625 109.957886Q61.078125 110.739136 61.078125 112.864136ZM67.0 112.864136Q67.0 111.332886 67.3125 110.41101Q67.625 109.47351 68.234375 108.97351Q68.859375 108.47351 69.796875 108.47351Q70.484375 108.47351 71.0 108.75476Q71.53125 109.03601 71.875 109.56726Q72.21875 110.082886 72.40625 110.832886Q72.59375 111.582886 72.59375 112.864136Q72.59375 114.37976 72.28125 115.301636Q71.984375 116.22351 71.359375 116.739136Q70.75 117.239136 69.796875 117.239136Q68.5625 117.239136 67.84375 116.34851Q67.0 115.28601 67.0 112.864136ZM68.078125 112.864136Q68.078125 114.97351 68.578125 115.676636Q69.078125 116.37976 69.796875 116.37976Q70.53125 116.37976 71.015625 115.676636Q71.515625 114.97351 71.515625 112.864136Q71.515625 110.739136 71.015625 110.051636Q70.53125 109.34851 69.78125 109.34851Q69.0625 109.34851 68.625 109.957886Q68.078125 110.739136 68.078125 112.864136ZM74.59375 117.09851L74.59375 115.895386L75.796875 115.895386L75.796875 117.09851L74.59375 117.09851ZM77.0 112.864136Q77.0 111.332886 77.3125 110.41101Q77.625 109.47351 78.234375 108.97351Q78.859375 108.47351 79.796875 108.47351Q80.484375 108.47351 81.0 108.75476Q81.53125 109.03601 81.875 109.56726Q82.21875 110.082886 82.40625 110.832886Q82.59375 111.582886 82.59375 112.864136Q82.59375 114.37976 82.28125 115.301636Q81.984375 116.22351 81.359375 116.739136Q80.75 117.239136 79.796875 117.239136Q78.5625 117.239136 77.84375 116.34851Q77.0 115.28601 77.0 112.864136ZM78.078125 112.864136Q78.078125 114.97351 78.578125 115.676636Q79.078125 116.37976 79.796875 116.37976Q80.53125 116.37976 81.015625 115.676636Q81.515625 114.97351 81.515625 112.864136Q81.515625 110.739136 81.015625 110.051636Q80.53125 109.34851 79.78125 109.34851Q79.0625 109.34851 78.625 109.957886Q78.078125 110.739136 78.078125 112.864136ZM84.0 112.864136Q84.0 111.332886 84.3125 110.41101Q84.625 109.47351 85.234375 108.97351Q85.859375 108.47351 86.796875 108.47351Q87.484375 108.47351 88.0 108.75476Q88.53125 109.03601 88.875 109.56726Q89.21875 110.082886 89.40625 110.832886Q89.59375 111.582886 89.59375 112.864136Q89.59375 114.37976 89.28125 115.301636Q88.984375 116.22351 88.359375 116.739136Q87.75 117.239136 86.796875 117.239136Q85.5625 117.239136 84.84375 116.34851Q84.0 115.28601 84.0 112.864136ZM85.078125 112.864136Q85.078125 114.97351 85.578125 115.676636Q86.078125 116.37976 86.796875 116.37976Q87.53125 116.37976 88.015625 115.676636Q88.515625 114.97351 88.515625 112.864136Q88.515625 110.739136 88.015625 110.051636Q87.53125 109.34851 86.78125 109.34851Q86.0625 109.34851 85.625 109.957886Q85.078125 110.739136 85.078125 112.864136ZM91.0 112.864136Q91.0 111.332886 91.3125 110.41101Q91.625 109.47351 92.234375 108.97351Q92.859375 108.47351 93.796875 108.47351Q94.484375 108.47351 95.0 108.75476Q95.53125 109.03601 95.875 109.56726Q96.21875 110.082886 96.40625 110.832886Q96.59375 111.582886 96.59375 112.864136Q96.59375 114.37976 96.28125 115.301636Q95.984375 116.22351 95.359375 116.739136Q94.75 117.239136 93.796875 117.239136Q92.5625 117.239136 91.84375 116.34851Q91.0 115.28601 91.0 112.864136ZM92.078125 112.864136Q92.078125 114.97351 92.578125 115.676636Q93.078125 116.37976 93.796875 116.37976Q94.53125 116.37976 95.015625 115.676636Q95.515625 114.97351 95.515625 112.864136Q95.515625 110.739136 95.015625 110.051636Q94.53125 109.34851 93.78125 109.34851Q93.0625 109.34851 92.625 109.957886Q92.078125 110.739136 92.078125 112.864136Z" fill-rule="nonzero"/><path fill="#000000" d="M132.0128 354.5L130.96593 354.5L130.96593 347.78125Q130.5753 348.14062 129.9503 348.51562Q129.34093 348.875 128.85655 349.04688L128.85655 348.03125Q129.73155 347.60938 130.3878 347.03125Q131.05968 346.4375 131.34093 345.875L132.0128 345.875L132.0128 354.5ZM135.04405 350.26562Q135.04405 348.73438 135.35655 347.8125Q135.66905 346.875 136.27843 346.375Q136.90343 345.875 137.84093 345.875Q138.52843 345.875 139.04405 346.15625Q139.5753 346.4375 139.91905 346.96875Q140.2628 347.48438 140.4503 348.23438Q140.6378 348.98438 140.6378 350.26562Q140.6378 351.78125 140.3253 352.70312Q140.02843 353.625 139.40343 354.14062Q138.79405 354.64062 137.84093 354.64062Q136.60655 354.64062 135.8878 353.75Q135.04405 352.6875 135.04405 350.26562ZM136.12218 350.26562Q136.12218 352.375 136.62218 353.07812Q137.12218 353.78125 137.84093 353.78125Q138.5753 353.78125 139.05968 353.07812Q139.55968 352.375 139.55968 350.26562Q139.55968 348.14062 139.05968 347.45312Q138.5753 346.75 137.8253 346.75Q137.10655 346.75 136.66905 347.35938Q136.12218 348.14062 136.12218 350.26562Z" fill-rule="nonzero"/><path fill="#000000" d="M179.58212 353.48438L179.58212 354.5L173.89462 354.5Q173.89462 354.125 174.01962 353.76562Q174.23837 353.1875 174.70712 352.625Q175.1915 352.0625 176.09775 351.32812Q177.504 350.17188 177.98837 349.5Q178.48837 348.82812 178.48837 348.23438Q178.48837 347.60938 178.03525 347.1875Q177.58212 346.75 176.86337 346.75Q176.09775 346.75 175.64462 347.20312Q175.1915 347.65625 175.17587 348.46875L174.09775 348.35938Q174.20712 347.14062 174.92587 346.51562Q175.66025 345.875 176.89462 345.875Q178.129 345.875 178.84775 346.5625Q179.5665 347.25 179.5665 348.26562Q179.5665 348.78125 179.34775 349.28125Q179.14462 349.76562 178.64462 350.32812Q178.16025 350.875 177.03525 351.82812Q176.08212 352.625 175.80087 352.92188Q175.53525 353.20312 175.36337 353.48438L179.58212 353.48438ZM181.03525 350.26562Q181.03525 348.73438 181.34775 347.8125Q181.66025 346.875 182.26962 346.375Q182.89462 345.875 183.83212 345.875Q184.51962 345.875 185.03525 346.15625Q185.5665 346.4375 185.91025 346.96875Q186.254 347.48438 186.4415 348.23438Q186.629 348.98438 186.629 350.26562Q186.629 351.78125 186.3165 352.70312Q186.01962 353.625 185.39462 354.14062Q184.78525 354.64062 183.83212 354.64062Q182.59775 354.64062 181.879 353.75Q181.03525 352.6875 181.03525 350.26562ZM182.11337 350.26562Q182.11337 352.375 182.61337 353.07812Q183.11337 353.78125 183.83212 353.78125Q184.5665 353.78125 185.05087 353.07812Q185.55087 352.375 185.55087 350.26562Q185.55087 348.14062 185.05087 347.45312Q184.5665 346.75 183.8165 346.75Q183.09775 346.75 182.66025 347.35938Q182.11337 348.14062 182.11337 350.26562Z" fill-rule="nonzero"/><path fill="#000000" d="M220.02643 352.23438L221.08893 352.09375Q221.2608 352.98438 221.6983 353.39062Q222.1358 353.78125 222.7608 353.78125Q223.5108 353.78125 224.02643 353.26562Q224.54205 352.75 224.54205 351.98438Q224.54205 351.26562 224.05768 350.79688Q223.58893 350.3125 222.85455 350.3125Q222.55768 350.3125 222.10455 350.4375L222.22955 349.5Q222.33893 349.51562 222.40143 349.51562Q223.0733 349.51562 223.60455 349.17188Q224.15143 348.8125 224.15143 348.07812Q224.15143 347.5 223.7608 347.125Q223.37018 346.73438 222.74518 346.73438Q222.1358 346.73438 221.71393 347.125Q221.30768 347.51562 221.1983 348.28125L220.1358 348.09375Q220.3233 347.04688 221.0108 346.46875Q221.6983 345.875 222.71393 345.875Q223.41705 345.875 224.0108 346.1875Q224.60455 346.48438 224.91705 347.0Q225.22955 347.51562 225.22955 348.10938Q225.22955 348.65625 224.93268 349.125Q224.6358 349.57812 224.05768 349.84375Q224.80768 350.01562 225.22955 350.57812Q225.65143 351.125 225.65143 351.96875Q225.65143 353.09375 224.8233 353.875Q224.0108 354.65625 222.7608 354.65625Q221.6358 354.65625 220.8858 353.98438Q220.1358 353.29688 220.02643 352.23438ZM227.02643 350.26562Q227.02643 348.73438 227.33893 347.8125Q227.65143 346.875 228.2608 346.375Q228.8858 345.875 229.8233 345.875Q230.5108 345.875 231.02643 346.15625Q231.55768 346.4375 231.90143 346.96875Q232.24518 347.48438 232.43268 348.23438Q232.62018 348.98438 232.62018 350.26562Q232.62018 351.78125 232.30768 352.70312Q232.0108 353.625 231.3858 354.14062Q230.77643 354.64062 229.8233 354.64062Q228.58893 354.64062 227.87018 353.75Q227.02643 352.6875 227.02643 350.26562ZM228.10455 350.26562Q228.10455 352.375 228.60455 353.07812Q229.10455 353.78125 229.8233 353.78125Q230.55768 353.78125 231.04205 353.07812Q231.54205 352.375 231.54205 350.26562Q231.54205 348.14062 231.04205 347.45312Q230.55768 346.75 229.80768 346.75Q229.08893 346.75 228.65143 347.35938Q228.10455 348.14062 228.10455 350.26562Z" fill-rule="nonzero"/><path fill="#000000" d="M269.3926 354.5L269.3926 352.4375L265.67386 352.4375L265.67386 351.46875L269.59573 345.90625L270.4551 345.90625L270.4551 351.46875L271.61136 351.46875L271.61136 352.4375L270.4551 352.4375L270.4551 354.5L269.3926 354.5ZM269.3926 351.46875L269.3926 347.60938L266.7051 351.46875L269.3926 351.46875ZM273.0176 350.26562Q273.0176 348.73438 273.3301 347.8125Q273.6426 346.875 274.25198 346.375Q274.87698 345.875 275.81448 345.875Q276.50198 345.875 277.0176 346.15625Q277.54886 346.4375 277.8926 346.96875Q278.23636 347.48438 278.42386 348.23438Q278.61136 348.98438 278.61136 350.26562Q278.61136 351.78125 278.29886 352.70312Q278.00198 353.625 277.37698 354.14062Q276.7676 354.64062 275.81448 354.64062Q274.5801 354.64062 273.86136 353.75Q273.0176 352.6875 273.0176 350.26562ZM274.09573 350.26562Q274.09573 352.375 274.59573 353.07812Q275.09573 353.78125 275.81448 353.78125Q276.54886 353.78125 277.03323 353.07812Q277.53323 352.375 277.53323 350.26562Q277.53323 348.14062 277.03323 347.45312Q276.54886 346.75 275.79886 346.75Q275.0801 346.75 274.6426 347.35938Q274.09573 348.14062 274.09573 350.26562Z" fill-rule="nonzero"/><path fill="#000000" d="M312.00882 352.25L313.1182 352.15625Q313.2432 352.96875 313.6807 353.375Q314.13382 353.78125 314.77444 353.78125Q315.52444 353.78125 316.0557 353.20312Q316.58694 352.625 316.58694 351.6875Q316.58694 350.78125 316.07132 350.26562Q315.57132 349.73438 314.7432 349.73438Q314.2432 349.73438 313.82132 349.96875Q313.41507 350.20312 313.1807 350.5625L312.19632 350.4375L313.02444 346.03125L317.3057 346.03125L317.3057 347.03125L313.8682 347.03125L313.41507 349.34375Q314.1807 348.79688 315.02444 348.79688Q316.14944 348.79688 316.91507 349.57812Q317.69632 350.35938 317.69632 351.59375Q317.69632 352.75 317.02444 353.60938Q316.19632 354.64062 314.77444 354.64062Q313.60257 354.64062 312.85257 353.98438Q312.1182 353.32812 312.00882 352.25ZM319.00882 350.26562Q319.00882 348.73438 319.32132 347.8125Q319.63382 346.875 320.2432 346.375Q320.8682 345.875 321.8057 345.875Q322.4932 345.875 323.00882 346.15625Q323.54007 346.4375 323.88382 346.96875Q324.22757 347.48438 324.41507 348.23438Q324.60257 348.98438 324.60257 350.26562Q324.60257 351.78125 324.29007 352.70312Q323.9932 353.625 323.3682 354.14062Q322.75882 354.64062 321.8057 354.64062Q320.57132 354.64062 319.85257 353.75Q319.00882 352.6875 319.00882 350.26562ZM320.08694 350.26562Q320.08694 352.375 320.58694 353.07812Q321.08694 353.78125 321.8057 353.78125Q322.54007 353.78125 323.02444 353.07812Q323.52444 352.375 323.52444 350.26562Q323.52444 348.14062 323.02444 347.45312Q322.54007 346.75 321.79007 346.75Q321.07132 346.75 320.63382 347.35938Q320.08694 348.14062 320.08694 350.26562Z" fill-rule="nonzero"/><path fill="#000000" d="M363.46875 348.01562L362.42188 348.09375Q362.28125 347.46875 362.03125 347.1875Q361.59375 346.73438 360.96875 346.73438Q360.46875 346.73438 360.07812 347.01562Q359.59375 347.39062 359.29688 348.09375Q359.01562 348.78125 359.0 350.0625Q359.375 349.48438 359.92188 349.20312Q360.48438 348.92188 361.09375 348.92188Q362.14062 348.92188 362.875 349.70312Q363.625 350.48438 363.625 351.70312Q363.625 352.51562 363.26562 353.21875Q362.92188 353.90625 362.3125 354.28125Q361.70312 354.64062 360.9375 354.64062Q359.60938 354.64062 358.78125 353.67188Q357.95312 352.70312 357.95312 350.48438Q357.95312 347.98438 358.875 346.85938Q359.67188 345.875 361.03125 345.875Q362.04688 345.875 362.6875 346.45312Q363.34375 347.01562 363.46875 348.01562ZM359.17188 351.71875Q359.17188 352.26562 359.39062 352.76562Q359.625 353.25 360.03125 353.51562Q360.45312 353.78125 360.92188 353.78125Q361.57812 353.78125 362.0625 353.25Q362.54688 352.70312 362.54688 351.78125Q362.54688 350.89062 362.0625 350.375Q361.59375 349.85938 360.875 349.85938Q360.15625 349.85938 359.65625 350.375Q359.17188 350.89062 359.17188 351.71875ZM365.0 350.26562Q365.0 348.73438 365.3125 347.8125Q365.625 346.875 366.23438 346.375Q366.85938 345.875 367.79688 345.875Q368.48438 345.875 369.0 346.15625Q369.53125 346.4375 369.875 346.96875Q370.21875 347.48438 370.40625 348.23438Q370.59375 348.98438 370.59375 350.26562Q370.59375 351.78125 370.28125 352.70312Q369.98438 353.625 369.35938 354.14062Q368.75 354.64062 367.79688 354.64062Q366.5625 354.64062 365.84375 353.75Q365.0 352.6875 365.0 350.26562ZM366.07812 350.26562Q366.07812 352.375 366.57812 353.07812Q367.07812 353.78125 367.79688 353.78125Q368.53125 353.78125 369.01562 353.07812Q369.51562 352.375 369.51562 350.26562Q369.51562 348.14062 369.01562 347.45312Q368.53125 346.75 367.78125 346.75Q367.0625 346.75 366.625 347.35938Q366.07812 348.14062 366.07812 350.26562Z" fill-rule="nonzero"/><path fill="#000000" d="M404.05368 347.03125L404.05368 346.01562L409.61618 346.01562L409.61618 346.84375Q408.80368 347.71875 407.99118 349.17188Q407.1943 350.60938 406.7568 352.14062Q406.42868 353.21875 406.35056 354.5L405.2568 354.5Q405.27243 353.48438 405.64743 352.04688Q406.03806 350.60938 406.74118 349.28125Q407.45993 347.95312 408.27243 347.03125L404.05368 347.03125ZM410.99118 350.26562Q410.99118 348.73438 411.30368 347.8125Q411.61618 346.875 412.22556 346.375Q412.85056 345.875 413.78806 345.875Q414.47556 345.875 414.99118 346.15625Q415.52243 346.4375 415.86618 346.96875Q416.20993 347.48438 416.39743 348.23438Q416.58493 348.98438 416.58493 350.26562Q416.58493 351.78125 416.27243 352.70312Q415.97556 353.625 415.35056 354.14062Q414.74118 354.64062 413.78806 354.64062Q412.55368 354.64062 411.83493 353.75Q410.99118 352.6875 410.99118 350.26562ZM412.0693 350.26562Q412.0693 352.375 412.5693 353.07812Q413.0693 353.78125 413.78806 353.78125Q414.52243 353.78125 415.0068 353.07812Q415.5068 352.375 415.5068 350.26562Q415.5068 348.14062 415.0068 347.45312Q414.52243 346.75 413.77243 346.75Q413.05368 346.75 412.61618 347.35938Q412.0693 348.14062 412.0693 350.26562Z" fill-rule="nonzero"/><path fill="#000000" d="M451.6074 349.84375Q450.95114 349.59375 450.62302 349.15625Q450.31052 348.70312 450.31052 348.09375Q450.31052 347.15625 450.9824 346.51562Q451.6699 345.875 452.77927 345.875Q453.90427 345.875 454.59177 346.53125Q455.27927 347.1875 455.27927 348.125Q455.27927 348.71875 454.96677 349.15625Q454.65427 349.59375 454.01364 349.84375Q454.81052 350.09375 455.21677 350.67188Q455.62302 351.25 455.62302 352.04688Q455.62302 353.14062 454.84177 353.89062Q454.07614 354.64062 452.7949 354.64062Q451.52927 354.64062 450.74802 353.89062Q449.96677 353.14062 449.96677 352.01562Q449.96677 351.17188 450.38864 350.60938Q450.82614 350.04688 451.6074 349.84375ZM451.38864 348.04688Q451.38864 348.65625 451.77927 349.04688Q452.18552 349.4375 452.81052 349.4375Q453.4199 349.4375 453.81052 349.0625Q454.20114 348.67188 454.20114 348.10938Q454.20114 347.53125 453.7949 347.14062Q453.38864 346.73438 452.7949 346.73438Q452.18552 346.73438 451.77927 347.125Q451.38864 347.51562 451.38864 348.04688ZM451.06052 352.01562Q451.06052 352.46875 451.26364 352.89062Q451.4824 353.3125 451.90427 353.54688Q452.32614 353.78125 452.81052 353.78125Q453.56052 353.78125 454.0449 353.29688Q454.5449 352.8125 454.5449 352.0625Q454.5449 351.29688 454.0449 350.79688Q453.5449 350.29688 452.77927 350.29688Q452.02927 350.29688 451.5449 350.79688Q451.06052 351.28125 451.06052 352.01562ZM456.9824 350.26562Q456.9824 348.73438 457.2949 347.8125Q457.6074 346.875 458.21677 346.375Q458.84177 345.875 459.77927 345.875Q460.46677 345.875 460.9824 346.15625Q461.51364 346.4375 461.8574 346.96875Q462.20114 347.48438 462.38864 348.23438Q462.57614 348.98438 462.57614 350.26562Q462.57614 351.78125 462.26364 352.70312Q461.96677 353.625 461.34177 354.14062Q460.7324 354.64062 459.77927 354.64062Q458.5449 354.64062 457.82614 353.75Q456.9824 352.6875 456.9824 350.26562ZM458.06052 350.26562Q458.06052 352.375 458.56052 353.07812Q459.06052 353.78125 459.77927 353.78125Q460.51364 353.78125 460.99802 353.07812Q461.49802 352.375 461.49802 350.26562Q461.49802 348.14062 460.99802 347.45312Q460.51364 346.75 459.76364 346.75Q459.0449 346.75 458.6074 347.35938Q458.06052 348.14062 458.06052 350.26562Z" fill-rule="nonzero"/><path fill="#000000" d="M496.12982 352.51562L497.14545 352.42188Q497.27045 353.14062 497.62982 353.46875Q498.00482 353.78125 498.56732 353.78125Q499.0517 353.78125 499.41107 353.5625Q499.78607 353.32812 500.02045 352.96875Q500.25482 352.59375 500.41107 351.96875Q500.56732 351.32812 500.56732 350.67188Q500.56732 350.59375 500.56732 350.45312Q500.25482 350.95312 499.70795 351.28125Q499.16107 351.59375 498.52045 351.59375Q497.44232 351.59375 496.70795 350.82812Q495.97357 350.04688 495.97357 348.78125Q495.97357 347.46875 496.7392 346.67188Q497.52045 345.875 498.6767 345.875Q499.50482 345.875 500.19232 346.32812Q500.89545 346.78125 501.25482 347.625Q501.6142 348.45312 501.6142 350.03125Q501.6142 351.67188 501.25482 352.65625Q500.91107 353.625 500.19232 354.14062Q499.4892 354.64062 498.5517 354.64062Q497.53607 354.64062 496.89545 354.09375Q496.25482 353.53125 496.12982 352.51562ZM500.44232 348.71875Q500.44232 347.8125 499.95795 347.28125Q499.4892 346.75 498.8017 346.75Q498.09857 346.75 497.56732 347.32812Q497.0517 347.89062 497.0517 348.8125Q497.0517 349.625 497.5517 350.14062Q498.0517 350.65625 498.77045 350.65625Q499.50482 350.65625 499.97357 350.14062Q500.44232 349.625 500.44232 348.71875ZM502.97357 350.26562Q502.97357 348.73438 503.28607 347.8125Q503.59857 346.875 504.20795 346.375Q504.83295 345.875 505.77045 345.875Q506.45795 345.875 506.97357 346.15625Q507.50482 346.4375 507.84857 346.96875Q508.19232 347.48438 508.37982 348.23438Q508.56732 348.98438 508.56732 350.26562Q508.56732 351.78125 508.25482 352.70312Q507.95795 353.625 507.33295 354.14062Q506.72357 354.64062 505.77045 354.64062Q504.53607 354.64062 503.81732 353.75Q502.97357 352.6875 502.97357 350.26562ZM504.0517 350.26562Q504.0517 352.375 504.5517 353.07812Q505.0517 353.78125 505.77045 353.78125Q506.50482 353.78125 506.9892 353.07812Q507.4892 352.375 507.4892 350.26562Q507.4892 348.14062 506.9892 347.45312Q506.50482 346.75 505.75482 346.75Q505.03607 346.75 504.59857 347.35938Q504.0517 348.14062 504.0517 350.26562Z" fill-rule="nonzero"/><path fill="#000000" d="M542.43353 354.5L541.38666 354.5L541.38666 347.78125Q540.99603 348.14062 540.37103 348.51562Q539.76166 348.875 539.2773 349.04688L539.2773 348.03125Q540.1523 347.60938 540.80853 347.03125Q541.4804 346.4375 541.76166 345.875L542.43353 345.875L542.43353 354.5ZM545.4648 350.26562Q545.4648 348.73438 545.7773 347.8125Q546.0898 346.875 546.69916 346.375Q547.32416 345.875 548.26166 345.875Q548.94916 345.875 549.4648 346.15625Q549.99603 346.4375 550.3398 346.96875Q550.68353 347.48438 550.87103 348.23438Q551.05853 348.98438 551.05853 350.26562Q551.05853 351.78125 550.74603 352.70312Q550.44916 353.625 549.82416 354.14062Q549.2148 354.64062 548.26166 354.64062Q547.0273 354.64062 546.30853 353.75Q545.4648 352.6875 545.4648 350.26562ZM546.5429 350.26562Q546.5429 352.375 547.0429 353.07812Q547.5429 353.78125 548.26166 353.78125Q548.99603 353.78125 549.4804 353.07812Q549.9804 352.375 549.9804 350.26562Q549.9804 348.14062 549.4804 347.45312Q548.99603 346.75 548.24603 346.75Q547.5273 346.75 547.0898 347.35938Q546.5429 348.14062 546.5429 350.26562ZM552.4648 350.26562Q552.4648 348.73438 552.7773 347.8125Q553.0898 346.875 553.69916 346.375Q554.32416 345.875 555.26166 345.875Q555.94916 345.875 556.4648 346.15625Q556.99603 346.4375 557.3398 346.96875Q557.68353 347.48438 557.87103 348.23438Q558.05853 348.98438 558.05853 350.26562Q558.05853 351.78125 557.74603 352.70312Q557.44916 353.625 556.82416 354.14062Q556.2148 354.64062 555.26166 354.64062Q554.0273 354.64062 553.30853 353.75Q552.4648 352.6875 552.4648 350.26562ZM553.5429 350.26562Q553.5429 352.375 554.0429 353.07812Q554.5429 353.78125 555.26166 353.78125Q555.99603 353.78125 556.4804 353.07812Q556.9804 352.375 556.9804 350.26562Q556.9804 348.14062 556.4804 347.45312Q555.99603 346.75 555.24603 346.75Q554.5273 346.75 554.0898 347.35938Q553.5429 348.14062 553.5429 350.26562Z" fill-rule="nonzero"/><path fill="#000000" d="M588.4247 354.5L587.3778 354.5L587.3778 347.78125Q586.9872 348.14062 586.3622 348.51562Q585.7528 348.875 585.26843 349.04688L585.26843 348.03125Q586.14343 347.60938 586.7997 347.03125Q587.47156 346.4375 587.7528 345.875L588.4247 345.875L588.4247 354.5ZM595.4247 354.5L594.3778 354.5L594.3778 347.78125Q593.9872 348.14062 593.3622 348.51562Q592.7528 348.875 592.26843 349.04688L592.26843 348.03125Q593.14343 347.60938 593.7997 347.03125Q594.47156 346.4375 594.7528 345.875L595.4247 345.875L595.4247 354.5ZM598.45593 350.26562Q598.45593 348.73438 598.76843 347.8125Q599.08093 346.875 599.6903 346.375Q600.3153 345.875 601.2528 345.875Q601.9403 345.875 602.45593 346.15625Q602.9872 346.4375 603.33093 346.96875Q603.6747 347.48438 603.8622 348.23438Q604.0497 348.98438 604.0497 350.26562Q604.0497 351.78125 603.7372 352.70312Q603.4403 353.625 602.8153 354.14062Q602.20593 354.64062 601.2528 354.64062Q600.01843 354.64062 599.2997 353.75Q598.45593 352.6875 598.45593 350.26562ZM599.53406 350.26562Q599.53406 352.375 600.03406 353.07812Q600.53406 353.78125 601.2528 353.78125Q601.9872 353.78125 602.47156 353.07812Q602.97156 352.375 602.97156 350.26562Q602.97156 348.14062 602.47156 347.45312Q601.9872 346.75 601.2372 346.75Q600.51843 346.75 600.08093 347.35938Q599.53406 348.14062 599.53406 350.26562Z" fill-rule="nonzero"/><path fill="#4285f4" d="M230.0 60.166668C230.0 59.614384 230.44771 59.166668 231.0 59.166668L241.0 59.166668C241.55229 59.166668 242.0 59.614384 242.0 60.166668L242.0 70.166664C242.0 70.71895 241.55229 71.166664 241.0 71.166664L231.0 71.166664C230.44771 71.166664 230.0 70.71895 230.0 70.166664Z" fill-rule="nonzero"/><path fill="#1a1a1a" d="M250.96875 69.166664L250.96875 60.572914L252.09375 60.572914L252.09375 64.104164L256.5625 64.104164L256.5625 60.572914L257.70312 60.572914L257.70312 69.166664L256.5625 69.166664L256.5625 65.11979L252.09375 65.11979L252.09375 69.166664L250.96875 69.166664ZM264.04688 67.166664L265.14062 67.291664Q264.89062 68.24479 264.1875 68.77604Q263.48438 69.30729 262.40625 69.30729Q261.04688 69.30729 260.23438 68.46354Q259.4375 67.61979 259.4375 66.104164Q259.4375 64.541664 260.25 63.68229Q261.0625 62.80729 262.34375 62.80729Q263.59375 62.80729 264.375 63.65104Q265.17188 64.49479 265.17188 66.041664Q265.17188 66.135414 265.17188 66.322914L260.53125 66.322914Q260.59375 67.354164 261.10938 67.90104Q261.625 68.43229 262.40625 68.43229Q262.98438 68.43229 263.39062 68.135414Q263.8125 67.822914 264.04688 67.166664ZM260.59375 65.46354L264.0625 65.46354Q264.0 64.666664 263.67188 64.27604Q263.15625 63.666664 262.35938 63.666664Q261.625 63.666664 261.125 64.15104Q260.64062 64.635414 260.59375 65.46354ZM270.875 69.166664L270.875 68.24479Q270.14062 69.30729 268.89062 69.30729Q268.34375 69.30729 267.85938 69.104164Q267.39062 68.885414 267.15625 68.572914Q266.92188 68.24479 266.82812 67.77604Q266.76562 67.479164 266.76562 66.791664L266.76562 62.947914L267.82812 62.947914L267.82812 66.40104Q267.82812 67.21354 267.89062 67.510414Q267.98438 67.916664 268.29688 68.166664Q268.625 68.40104 269.10938 68.40104Q269.57812 68.40104 269.98438 68.166664Q270.40625 67.916664 270.57812 67.49479Q270.76562 67.072914 270.76562 66.27604L270.76562 62.947914L271.8125 62.947914L271.8125 69.166664L270.875 69.166664ZM273.78125 69.166664L273.78125 62.947914L274.73438 62.947914L274.73438 63.885414Q275.09375 63.229164 275.39062 63.02604Q275.70312 62.80729 276.07812 62.80729Q276.60938 62.80729 277.15625 63.135414L276.79688 64.11979Q276.40625 63.885414 276.03125 63.885414Q275.67188 63.885414 275.39062 64.104164Q275.125 64.30729 275.01562 64.68229Q274.82812 65.24479 274.82812 65.90104L274.82812 69.166664L273.78125 69.166664ZM277.79688 61.791664L277.79688 60.572914L278.85938 60.572914L278.85938 61.791664L277.79688 61.791664ZM277.79688 69.166664L277.79688 62.947914L278.85938 62.947914L278.85938 69.166664L277.79688 69.166664ZM280.375 67.30729L281.40625 67.15104Q281.5 67.77604 281.89062 68.104164Q282.29688 68.43229 283.03125 68.43229Q283.75 68.43229 284.09375 68.15104Q284.45312 67.854164 284.45312 67.447914Q284.45312 67.08854 284.14062 66.885414Q283.92188 66.74479 283.0625 66.52604Q281.90625 66.229164 281.45312 66.02604Q281.01562 65.80729 280.78125 65.43229Q280.54688 65.05729 280.54688 64.58854Q280.54688 64.18229 280.73438 63.822914Q280.92188 63.46354 281.25 63.229164Q281.5 63.05729 281.92188 62.93229Q282.34375 62.80729 282.84375 62.80729Q283.5625 62.80729 284.10938 63.02604Q284.67188 63.229164 284.9375 63.58854Q285.20312 63.947914 285.29688 64.541664L284.26562 64.68229Q284.20312 64.21354 283.85938 63.947914Q283.53125 63.666664 282.90625 63.666664Q282.1875 63.666664 281.875 63.916664Q281.5625 64.15104 281.5625 64.479164Q281.5625 64.68229 281.6875 64.83854Q281.82812 65.010414 282.09375 65.11979Q282.25 65.18229 283.03125 65.385414Q284.15625 65.697914 284.59375 65.885414Q285.03125 66.072914 285.28125 66.43229Q285.53125 66.791664 285.53125 67.33854Q285.53125 67.86979 285.21875 68.33854Q284.92188 68.791664 284.34375 69.05729Q283.76562 69.30729 283.03125 69.30729Q281.8125 69.30729 281.17188 68.80729Q280.54688 68.291664 280.375 67.30729ZM289.09375 68.229164L289.25 69.15104Q288.79688 69.24479 288.45312 69.24479Q287.875 69.24479 287.5625 69.072914Q287.25 68.885414 287.10938 68.58854Q286.98438 68.291664 286.98438 67.33854L286.98438 63.760414L286.21875 63.760414L286.21875 62.947914L286.98438 62.947914L286.98438 61.40104L288.03125 60.77604L288.03125 62.947914L289.09375 62.947914L289.09375 63.760414L288.03125 63.760414L288.03125 67.40104Q288.03125 67.854164 288.07812 67.979164Q288.14062 68.104164 288.26562 68.18229Q288.39062 68.260414 288.625 68.260414Q288.8125 68.260414 289.09375 68.229164ZM289.79688 61.791664L289.79688 60.572914L290.85938 60.572914L290.85938 61.791664L289.79688 61.791664ZM289.79688 69.166664L289.79688 62.947914L290.85938 62.947914L290.85938 69.166664L289.79688 69.166664ZM296.85938 66.885414L297.89062 67.02604Q297.71875 68.08854 297.01562 68.697914Q296.3125 69.30729 295.29688 69.30729Q294.01562 69.30729 293.23438 68.479164Q292.46875 67.635414 292.46875 66.072914Q292.46875 65.072914 292.79688 64.322914Q293.14062 63.55729 293.8125 63.18229Q294.5 62.80729 295.3125 62.80729Q296.3125 62.80729 296.95312 63.322914Q297.60938 63.822914 297.79688 64.77604L296.76562 64.93229Q296.625 64.30729 296.25 63.99479Q295.875 63.666664 295.34375 63.666664Q294.54688 63.666664 294.04688 64.24479Q293.54688 64.80729 293.54688 66.041664Q293.54688 67.30729 294.03125 67.86979Q294.51562 68.43229 295.28125 68.43229Q295.90625 68.43229 296.3125 68.05729Q296.73438 67.68229 296.85938 66.885414ZM303.8125 71.697914Q302.9375 70.58854 302.32812 69.11979Q301.73438 67.635414 301.73438 66.05729Q301.73438 64.666664 302.17188 63.385414Q302.70312 61.90104 303.8125 60.43229L304.5625 60.43229Q303.85938 61.65104 303.625 62.166664Q303.26562 62.979164 303.0625 63.854164Q302.8125 64.947914 302.8125 66.05729Q302.8125 68.885414 304.5625 71.697914L303.8125 71.697914ZM305.79688 69.166664L305.79688 62.947914L306.73438 62.947914L306.73438 63.822914Q307.03125 63.354164 307.51562 63.08854Q308.0 62.80729 308.625 62.80729Q309.3125 62.80729 309.75 63.08854Q310.20312 63.36979 310.375 63.885414Q311.125 62.80729 312.29688 62.80729Q313.23438 62.80729 313.71875 63.322914Q314.21875 63.822914 314.21875 64.90104L314.21875 69.166664L313.17188 69.166664L313.17188 65.24479Q313.17188 64.61979 313.0625 64.33854Q312.96875 64.05729 312.70312 63.885414Q312.4375 63.71354 312.0625 63.71354Q311.40625 63.71354 310.96875 64.15104Q310.54688 64.58854 310.54688 65.55729L310.54688 69.166664L309.48438 69.166664L309.48438 65.11979Q309.48438 64.416664 309.21875 64.072914Q308.96875 63.71354 308.39062 63.71354Q307.9375 63.71354 307.5625 63.947914Q307.1875 64.18229 307.01562 64.635414Q306.84375 65.08854 306.84375 65.93229L306.84375 69.166664L305.79688 69.166664ZM320.04688 67.166664L321.14062 67.291664Q320.89062 68.24479 320.1875 68.77604Q319.48438 69.30729 318.40625 69.30729Q317.04688 69.30729 316.23438 68.46354Q315.4375 67.61979 315.4375 66.104164Q315.4375 64.541664 316.25 63.68229Q317.0625 62.80729 318.34375 62.80729Q319.59375 62.80729 320.375 63.65104Q321.17188 64.49479 321.17188 66.041664Q321.17188 66.135414 321.17188 66.322914L316.53125 66.322914Q316.59375 67.354164 317.10938 67.90104Q317.625 68.43229 318.40625 68.43229Q318.98438 68.43229 319.39062 68.135414Q319.8125 67.822914 320.04688 67.166664ZM316.59375 65.46354L320.0625 65.46354Q320.0 64.666664 319.67188 64.27604Q319.15625 63.666664 318.35938 63.666664Q317.625 63.666664 317.125 64.15104Q316.64062 64.635414 316.59375 65.46354ZM326.85938 68.40104Q326.26562 68.90104 325.71875 69.104164Q325.1875 69.30729 324.5625 69.30729Q323.53125 69.30729 322.98438 68.80729Q322.4375 68.30729 322.4375 67.52604Q322.4375 67.072914 322.64062 66.697914Q322.84375 66.30729 323.1875 66.08854Q323.53125 65.854164 323.95312 65.74479Q324.25 65.65104 324.89062 65.572914Q326.15625 65.43229 326.76562 65.21354Q326.76562 64.99479 326.76562 64.947914Q326.76562 64.291664 326.46875 64.02604Q326.0625 63.68229 325.26562 63.68229Q324.53125 63.68229 324.17188 63.947914Q323.8125 64.197914 323.64062 64.854164L322.60938 64.71354Q322.75 64.05729 323.07812 63.65104Q323.40625 63.24479 324.01562 63.02604Q324.625 62.80729 325.42188 62.80729Q326.21875 62.80729 326.71875 62.99479Q327.21875 63.18229 327.45312 63.46354Q327.6875 63.74479 327.78125 64.18229Q327.82812 64.447914 327.82812 65.15104L327.82812 66.55729Q327.82812 68.02604 327.89062 68.416664Q327.96875 68.80729 328.17188 69.166664L327.0625 69.166664Q326.90625 68.83854 326.85938 68.40104ZM326.76562 66.041664Q326.1875 66.27604 325.04688 66.447914Q324.39062 66.541664 324.125 66.666664Q323.85938 66.77604 323.70312 66.99479Q323.5625 67.21354 323.5625 67.49479Q323.5625 67.916664 323.875 68.197914Q324.20312 68.479164 324.8125 68.479164Q325.42188 68.479164 325.89062 68.21354Q326.375 67.947914 326.59375 67.479164Q326.76562 67.11979 326.76562 66.43229L326.76562 66.041664ZM329.79688 69.166664L329.79688 62.947914L330.73438 62.947914L330.73438 63.822914Q331.42188 62.80729 332.71875 62.80729Q333.28125 62.80729 333.75 63.010414Q334.23438 63.21354 334.46875 63.541664Q334.70312 63.86979 334.79688 64.30729Q334.84375 64.604164 334.84375 65.33854L334.84375 69.166664L333.79688 69.166664L333.79688 65.385414Q333.79688 64.729164 333.67188 64.416664Q333.54688 64.104164 333.23438 63.916664Q332.92188 63.71354 332.5 63.71354Q331.82812 63.71354 331.32812 64.15104Q330.84375 64.572914 330.84375 65.760414L330.84375 69.166664L329.79688 69.166664ZM337.48438 71.697914L336.73438 71.697914Q338.48438 68.885414 338.48438 66.05729Q338.48438 64.96354 338.23438 63.86979Q338.03125 62.99479 337.67188 62.18229Q337.4375 61.666664 336.73438 60.43229L337.48438 60.43229Q338.57812 61.90104 339.10938 63.385414Q339.5625 64.666664 339.5625 66.05729Q339.5625 67.635414 338.95312 69.11979Q338.34375 70.58854 337.48438 71.697914Z" fill-rule="nonzero"/><path fill="#ff6d01" d="M356.0 60.166668C356.0 59.614384 356.44772 59.166668 357.0 59.166668L367.0 59.166668C367.55228 59.166668 368.0 59.614384 368.0 60.166668L368.0 70.166664C368.0 70.71895 367.55228 71.166664 367.0 71.166664L357.0 71.166664C356.44772 71.166664 356.0 70.71895 356.0 70.166664Z" fill-rule="nonzero"/><path fill="#1a1a1a" d="M383.0625 66.15104L384.1875 66.447914Q383.82812 67.83854 382.90625 68.572914Q381.98438 69.30729 380.64062 69.30729Q379.25 69.30729 378.375 68.74479Q377.5 68.18229 377.04688 67.11979Q376.59375 66.041664 376.59375 64.80729Q376.59375 63.46354 377.10938 62.46354Q377.625 61.46354 378.5625 60.947914Q379.51562 60.43229 380.65625 60.43229Q381.9375 60.43229 382.8125 61.08854Q383.70312 61.74479 384.04688 62.93229L382.92188 63.197914Q382.625 62.260414 382.04688 61.83854Q381.48438 61.40104 380.625 61.40104Q379.64062 61.40104 378.96875 61.885414Q378.3125 62.354164 378.03125 63.15104Q377.76562 63.947914 377.76562 64.80729Q377.76562 65.90104 378.07812 66.71354Q378.40625 67.52604 379.07812 67.93229Q379.75 68.33854 380.54688 68.33854Q381.5 68.33854 382.15625 67.791664Q382.82812 67.24479 383.0625 66.15104ZM385.92188 69.166664L385.92188 60.572914L389.17188 60.572914Q390.01562 60.572914 390.46875 60.65104Q391.10938 60.760414 391.53125 61.05729Q391.96875 61.354164 392.21875 61.885414Q392.48438 62.416664 392.48438 63.05729Q392.48438 64.15104 391.78125 64.916664Q391.09375 65.666664 389.26562 65.666664L387.0625 65.666664L387.0625 69.166664L385.92188 69.166664ZM387.0625 64.666664L389.28125 64.666664Q390.39062 64.666664 390.84375 64.260414Q391.3125 63.83854 391.3125 63.08854Q391.3125 62.55729 391.03125 62.18229Q390.76562 61.791664 390.32812 61.666664Q390.03125 61.58854 389.26562 61.58854L387.0625 61.58854L387.0625 64.666664ZM393.875 69.166664L393.875 60.572914L395.01562 60.572914L395.01562 68.15104L399.25 68.15104L399.25 69.166664L393.875 69.166664ZM400.95312 69.166664L400.95312 60.572914L407.15625 60.572914L407.15625 61.58854L402.09375 61.58854L402.09375 64.21354L406.84375 64.21354L406.84375 65.229164L402.09375 65.229164L402.09375 68.15104L407.35938 68.15104L407.35938 69.166664L400.95312 69.166664ZM408.04688 69.166664L411.375 64.68229L408.45312 60.572914L409.79688 60.572914L411.35938 62.77604Q411.84375 63.46354 412.04688 63.83854Q412.34375 63.36979 412.73438 62.854164L414.45312 60.572914L415.6875 60.572914L412.67188 64.61979L415.92188 69.166664L414.51562 69.166664L412.35938 66.104164Q412.17188 65.83854 411.98438 65.52604Q411.70312 65.99479 411.57812 66.166664L409.42188 69.166664L408.04688 69.166664Z" fill-rule="nonzero"/><path fill="#757575" d="M119.953125 39.5L119.953125 25.1875L130.57812 25.1875L130.57812 27.609375L122.84375 27.609375L122.84375 30.78125L130.03125 30.78125L130.03125 33.1875L122.84375 33.1875L122.84375 37.09375L130.84375 37.09375L130.84375 39.5L119.953125 39.5ZM131.625 39.5L135.35938 34.15625L131.78125 29.125L135.125 29.125L136.95312 31.984375L138.89062 29.125L142.10938 29.125L138.59375 34.046875L142.4375 39.5L139.0625 39.5L136.95312 36.28125L134.82812 39.5L131.625 39.5ZM145.98438 32.296875L143.5 31.84375Q143.92188 30.34375 144.9375 29.625Q145.96875 28.890625 147.98438 28.890625Q149.82812 28.890625 150.71875 29.328125Q151.625 29.765625 151.98438 30.4375Q152.35938 31.09375 152.35938 32.890625L152.32812 36.09375Q152.32812 37.453125 152.45312 38.109375Q152.59375 38.75 152.95312 39.5L150.23438 39.5Q150.125 39.21875 149.96875 38.6875Q149.90625 38.4375 149.875 38.359375Q149.17188 39.046875 148.35938 39.390625Q147.5625 39.734375 146.65625 39.734375Q145.0625 39.734375 144.14062 38.875Q143.21875 38.0 143.21875 36.671875Q143.21875 35.78125 143.625 35.09375Q144.04688 34.40625 144.79688 34.046875Q145.5625 33.671875 147.0 33.40625Q148.92188 33.046875 149.65625 32.734375L149.65625 32.453125Q149.65625 31.671875 149.26562 31.34375Q148.875 31.0 147.79688 31.0Q147.0625 31.0 146.64062 31.28125Q146.23438 31.5625 145.98438 32.296875ZM149.65625 34.515625Q149.125 34.6875 147.98438 34.9375Q146.84375 35.1875 146.5 35.421875Q145.95312 35.796875 145.95312 36.390625Q145.95312 36.953125 146.375 37.375Q146.8125 37.796875 147.48438 37.796875Q148.21875 37.796875 148.89062 37.3125Q149.39062 36.9375 149.54688 36.40625Q149.65625 36.046875 149.65625 35.0625L149.65625 34.515625ZM163.98438 32.1875L161.28125 32.6875Q161.14062 31.875 160.65625 31.46875Q160.17188 31.046875 159.40625 31.046875Q158.375 31.046875 157.76562 31.765625Q157.15625 32.46875 157.15625 34.125Q157.15625 35.96875 157.76562 36.734375Q158.39062 37.5 159.4375 37.5Q160.21875 37.5 160.71875 37.0625Q161.21875 36.609375 161.42188 35.53125L164.10938 35.984375Q163.70312 37.84375 162.5 38.796875Q161.3125 39.734375 159.3125 39.734375Q157.03125 39.734375 155.67188 38.296875Q154.32812 36.859375 154.32812 34.328125Q154.32812 31.75 155.6875 30.328125Q157.04688 28.890625 159.35938 28.890625Q161.25 28.890625 162.35938 29.71875Q163.48438 30.53125 163.98438 32.1875ZM170.6875 29.125L170.6875 31.3125L168.8125 31.3125L168.8125 35.5Q168.8125 36.765625 168.85938 36.984375Q168.92188 37.1875 169.10938 37.328125Q169.3125 37.453125 169.57812 37.453125Q169.95312 37.453125 170.6875 37.1875L170.92188 39.328125Q169.95312 39.734375 168.75 39.734375Q168.0 39.734375 167.40625 39.484375Q166.8125 39.234375 166.53125 38.84375Q166.26562 38.4375 166.15625 37.765625Q166.0625 37.296875 166.0625 35.84375L166.0625 31.3125L164.79688 31.3125L164.79688 29.125L166.0625 29.125L166.0625 27.0625L168.8125 25.46875L168.8125 29.125L170.6875 29.125ZM180.98438 32.296875L178.5 31.84375Q178.92188 30.34375 179.9375 29.625Q180.96875 28.890625 182.98438 28.890625Q184.82812 28.890625 185.71875 29.328125Q186.625 29.765625 186.98438 30.4375Q187.35938 31.09375 187.35938 32.890625L187.32812 36.09375Q187.32812 37.453125 187.45312 38.109375Q187.59375 38.75 187.95312 39.5L185.23438 39.5Q185.125 39.21875 184.96875 38.6875Q184.90625 38.4375 184.875 38.359375Q184.17188 39.046875 183.35938 39.390625Q182.5625 39.734375 181.65625 39.734375Q180.0625 39.734375 179.14062 38.875Q178.21875 38.0 178.21875 36.671875Q178.21875 35.78125 178.625 35.09375Q179.04688 34.40625 179.79688 34.046875Q180.5625 33.671875 182.0 33.40625Q183.92188 33.046875 184.65625 32.734375L184.65625 32.453125Q184.65625 31.671875 184.26562 31.34375Q183.875 31.0 182.79688 31.0Q182.0625 31.0 181.64062 31.28125Q181.23438 31.5625 180.98438 32.296875ZM184.65625 34.515625Q184.125 34.6875 182.98438 34.9375Q181.84375 35.1875 181.5 35.421875Q180.95312 35.796875 180.95312 36.390625Q180.95312 36.953125 181.375 37.375Q181.8125 37.796875 182.48438 37.796875Q183.21875 37.796875 183.89062 37.3125Q184.39062 36.9375 184.54688 36.40625Q184.65625 36.046875 184.65625 35.0625L184.65625 34.515625ZM199.375 39.5L196.625 39.5L196.625 34.203125Q196.625 32.53125 196.45312 32.046875Q196.28125 31.546875 195.875 31.28125Q195.48438 31.0 194.92188 31.0Q194.21875 31.0 193.64062 31.390625Q193.07812 31.78125 192.85938 32.421875Q192.65625 33.0625 192.65625 34.796875L192.65625 39.5L189.92188 39.5L189.92188 29.125L192.46875 29.125L192.46875 30.65625Q193.82812 28.890625 195.89062 28.890625Q196.79688 28.890625 197.54688 29.21875Q198.29688 29.546875 198.67188 30.0625Q199.0625 30.5625 199.21875 31.21875Q199.375 31.859375 199.375 33.046875L199.375 39.5ZM211.45312 39.5L208.90625 39.5L208.90625 37.96875Q208.26562 38.859375 207.39062 39.296875Q206.53125 39.734375 205.65625 39.734375Q203.875 39.734375 202.59375 38.296875Q201.32812 36.859375 201.32812 34.28125Q201.32812 31.640625 202.5625 30.265625Q203.79688 28.890625 205.70312 28.890625Q207.4375 28.890625 208.70312 30.34375L208.70312 25.1875L211.45312 25.1875L211.45312 39.5ZM204.125 34.09375Q204.125 35.75 204.57812 36.484375Q205.25 37.5625 206.4375 37.5625Q207.39062 37.5625 208.04688 36.765625Q208.71875 35.953125 208.71875 34.359375Q208.71875 32.5625 208.0625 31.78125Q207.42188 31.0 206.42188 31.0Q205.4375 31.0 204.78125 31.78125Q204.125 32.546875 204.125 34.09375ZM222.67188 25.1875L222.67188 30.453125Q224.0 28.890625 225.84375 28.890625Q226.79688 28.890625 227.54688 29.25Q228.3125 29.59375 228.70312 30.140625Q229.09375 30.6875 229.23438 31.359375Q229.375 32.015625 229.375 33.421875L229.375 39.5L226.625 39.5L226.625 34.015625Q226.625 32.390625 226.46875 31.953125Q226.3125 31.515625 225.90625 31.265625Q225.51562 31.0 224.92188 31.0Q224.25 31.0 223.70312 31.328125Q223.17188 31.65625 222.92188 32.328125Q222.67188 33.0 222.67188 34.296875L222.67188 39.5L219.92188 39.5L219.92188 25.1875L222.67188 25.1875ZM237.9375 36.203125L240.67188 36.65625Q240.15625 38.15625 239.01562 38.953125Q237.875 39.734375 236.17188 39.734375Q233.45312 39.734375 232.15625 37.96875Q231.14062 36.546875 231.14062 34.390625Q231.14062 31.8125 232.48438 30.359375Q233.82812 28.890625 235.89062 28.890625Q238.20312 28.890625 239.53125 30.421875Q240.875 31.953125 240.82812 35.109375L233.95312 35.109375Q233.98438 36.328125 234.60938 37.015625Q235.25 37.6875 236.1875 37.6875Q236.84375 37.6875 237.28125 37.34375Q237.71875 36.984375 237.9375 36.203125ZM238.09375 33.421875Q238.0625 32.234375 237.46875 31.625Q236.89062 31.0 236.0625 31.0Q235.15625 31.0 234.57812 31.640625Q233.98438 32.296875 234.0 33.421875L238.09375 33.421875ZM249.76562 39.5L249.76562 37.953125Q249.20312 38.78125 248.26562 39.265625Q247.34375 39.734375 246.32812 39.734375Q245.28125 39.734375 244.45312 39.28125Q243.625 38.8125 243.25 37.984375Q242.875 37.15625 242.875 35.6875L242.875 29.125L245.625 29.125L245.625 33.890625Q245.625 36.078125 245.76562 36.578125Q245.92188 37.0625 246.3125 37.359375Q246.71875 37.640625 247.34375 37.640625Q248.04688 37.640625 248.59375 37.265625Q249.15625 36.875 249.35938 36.3125Q249.5625 35.734375 249.5625 33.5L249.5625 29.125L252.3125 29.125L252.3125 39.5L249.76562 39.5ZM257.5625 39.5L254.8125 39.5L254.8125 29.125L257.375 29.125L257.375 30.609375Q258.01562 29.5625 258.53125 29.234375Q259.0625 28.890625 259.73438 28.890625Q260.67188 28.890625 261.53125 29.40625L260.6875 31.796875Q260.0 31.359375 259.40625 31.359375Q258.82812 31.359375 258.42188 31.671875Q258.01562 31.984375 257.78125 32.828125Q257.5625 33.65625 257.5625 36.296875L257.5625 39.5ZM262.9375 27.71875L262.9375 25.1875L265.6875 25.1875L265.6875 27.71875L262.9375 27.71875ZM262.9375 39.5L262.9375 29.125L265.6875 29.125L265.6875 39.5L262.9375 39.5ZM267.96875 36.546875L270.71875 36.125Q270.90625 36.921875 271.4375 37.34375Q271.96875 37.75 272.9375 37.75Q274.0 37.75 274.54688 37.359375Q274.90625 37.09375 274.90625 36.625Q274.90625 36.3125 274.70312 36.109375Q274.5 35.921875 273.79688 35.75Q270.46875 35.015625 269.57812 34.40625Q268.34375 33.578125 268.34375 32.078125Q268.34375 30.734375 269.40625 29.8125Q270.48438 28.890625 272.71875 28.890625Q274.84375 28.890625 275.875 29.59375Q276.92188 30.28125 277.3125 31.640625L274.71875 32.109375Q274.54688 31.515625 274.07812 31.1875Q273.625 30.859375 272.76562 30.859375Q271.6875 30.859375 271.21875 31.171875Q270.90625 31.390625 270.90625 31.71875Q270.90625 32.015625 271.17188 32.21875Q271.54688 32.5 273.73438 33.0Q275.92188 33.5 276.79688 34.21875Q277.65625 34.953125 277.65625 36.25Q277.65625 37.6875 276.46875 38.71875Q275.28125 39.734375 272.9375 39.734375Q270.82812 39.734375 269.57812 38.875Q268.34375 38.015625 267.96875 36.546875ZM284.6875 29.125L284.6875 31.3125L282.8125 31.3125L282.8125 35.5Q282.8125 36.765625 282.85938 36.984375Q282.92188 37.1875 283.10938 37.328125Q283.3125 37.453125 283.57812 37.453125Q283.95312 37.453125 284.6875 37.1875L284.92188 39.328125Q283.95312 39.734375 282.75 39.734375Q282.0 39.734375 281.40625 39.484375Q280.8125 39.234375 280.53125 38.84375Q280.26562 38.4375 280.15625 37.765625Q280.0625 37.296875 280.0625 35.84375L280.0625 31.3125L278.79688 31.3125L278.79688 29.125L280.0625 29.125L280.0625 27.0625L282.8125 25.46875L282.8125 29.125L284.6875 29.125ZM286.9375 27.71875L286.9375 25.1875L289.6875 25.1875L289.6875 27.71875L286.9375 27.71875ZM286.9375 39.5L286.9375 29.125L289.6875 29.125L289.6875 39.5L286.9375 39.5ZM301.98438 32.1875L299.28125 32.6875Q299.14062 31.875 298.65625 31.46875Q298.17188 31.046875 297.40625 31.046875Q296.375 31.046875 295.76562 31.765625Q295.15625 32.46875 295.15625 34.125Q295.15625 35.96875 295.76562 36.734375Q296.39062 37.5 297.4375 37.5Q298.21875 37.5 298.71875 37.0625Q299.21875 36.609375 299.42188 35.53125L302.10938 35.984375Q301.70312 37.84375 300.5 38.796875Q299.3125 39.734375 297.3125 39.734375Q295.03125 39.734375 293.67188 38.296875Q292.32812 36.859375 292.32812 34.328125Q292.32812 31.75 293.6875 30.328125Q295.04688 28.890625 297.35938 28.890625Q299.25 28.890625 300.35938 29.71875Q301.48438 30.53125 301.98438 32.1875ZM309.73438 29.125L312.26562 29.125L312.26562 30.546875Q313.625 28.890625 315.5 28.890625Q316.48438 28.890625 317.21875 29.3125Q317.95312 29.71875 318.42188 30.546875Q319.10938 29.71875 319.89062 29.3125Q320.6875 28.890625 321.59375 28.890625Q322.73438 28.890625 323.51562 29.359375Q324.3125 29.828125 324.70312 30.71875Q324.98438 31.390625 324.98438 32.875L324.98438 39.5L322.23438 39.5L322.23438 33.578125Q322.23438 32.03125 321.95312 31.578125Q321.57812 31.0 320.78125 31.0Q320.20312 31.0 319.6875 31.359375Q319.1875 31.703125 318.96875 32.375Q318.75 33.046875 318.75 34.515625L318.75 39.5L316.0 39.5L316.0 33.8125Q316.0 32.296875 315.84375 31.859375Q315.70312 31.421875 315.39062 31.21875Q315.09375 31.0 314.5625 31.0Q313.9375 31.0 313.42188 31.34375Q312.92188 31.671875 312.6875 32.328125Q312.46875 32.96875 312.46875 34.453125L312.46875 39.5L309.73438 39.5L309.73438 29.125ZM333.9375 36.203125L336.67188 36.65625Q336.15625 38.15625 335.01562 38.953125Q333.875 39.734375 332.17188 39.734375Q329.45312 39.734375 328.15625 37.96875Q327.14062 36.546875 327.14062 34.390625Q327.14062 31.8125 328.48438 30.359375Q329.82812 28.890625 331.89062 28.890625Q334.20312 28.890625 335.53125 30.421875Q336.875 31.953125 336.82812 35.109375L329.95312 35.109375Q329.98438 36.328125 330.60938 37.015625Q331.25 37.6875 332.1875 37.6875Q332.84375 37.6875 333.28125 37.34375Q333.71875 36.984375 333.9375 36.203125ZM334.09375 33.421875Q334.0625 32.234375 333.46875 31.625Q332.89062 31.0 332.0625 31.0Q331.15625 31.0 330.57812 31.640625Q329.98438 32.296875 330.0 33.421875L334.09375 33.421875ZM343.6875 29.125L343.6875 31.3125L341.8125 31.3125L341.8125 35.5Q341.8125 36.765625 341.85938 36.984375Q341.92188 37.1875 342.10938 37.328125Q342.3125 37.453125 342.57812 37.453125Q342.95312 37.453125 343.6875 37.1875L343.92188 39.328125Q342.95312 39.734375 341.75 39.734375Q341.0 39.734375 340.40625 39.484375Q339.8125 39.234375 339.53125 38.84375Q339.26562 38.4375 339.15625 37.765625Q339.0625 37.296875 339.0625 35.84375L339.0625 31.3125L337.79688 31.3125L337.79688 29.125L339.0625 29.125L339.0625 27.0625L341.8125 25.46875L341.8125 29.125L343.6875 29.125ZM348.67188 25.1875L348.67188 30.453125Q350.0 28.890625 351.84375 28.890625Q352.79688 28.890625 353.54688 29.25Q354.3125 29.59375 354.70312 30.140625Q355.09375 30.6875 355.23438 31.359375Q355.375 32.015625 355.375 33.421875L355.375 39.5L352.625 39.5L352.625 34.015625Q352.625 32.390625 352.46875 31.953125Q352.3125 31.515625 351.90625 31.265625Q351.51562 31.0 350.92188 31.0Q350.25 31.0 349.70312 31.328125Q349.17188 31.65625 348.92188 32.328125Q348.67188 33.0 348.67188 34.296875L348.67188 39.5L345.92188 39.5L345.92188 25.1875L348.67188 25.1875ZM357.29688 34.171875Q357.29688 32.796875 357.96875 31.515625Q358.65625 30.234375 359.89062 29.5625Q361.125 28.890625 362.64062 28.890625Q365.0 28.890625 366.5 30.421875Q368.0 31.953125 368.0 34.28125Q368.0 36.640625 366.48438 38.1875Q364.96875 39.734375 362.65625 39.734375Q361.23438 39.734375 359.9375 39.09375Q358.65625 38.4375 357.96875 37.203125Q357.29688 35.953125 357.29688 34.171875ZM360.10938 34.3125Q360.10938 35.859375 360.84375 36.6875Q361.57812 37.5 362.65625 37.5Q363.73438 37.5 364.45312 36.6875Q365.1875 35.859375 365.1875 34.296875Q365.1875 32.765625 364.45312 31.953125Q363.73438 31.125 362.65625 31.125Q361.57812 31.125 360.84375 31.953125Q360.10938 32.765625 360.10938 34.3125ZM379.45312 39.5L376.90625 39.5L376.90625 37.96875Q376.26562 38.859375 375.39062 39.296875Q374.53125 39.734375 373.65625 39.734375Q371.875 39.734375 370.59375 38.296875Q369.32812 36.859375 369.32812 34.28125Q369.32812 31.640625 370.5625 30.265625Q371.79688 28.890625 373.70312 28.890625Q375.4375 28.890625 376.70312 30.34375L376.70312 25.1875L379.45312 25.1875L379.45312 39.5ZM372.125 34.09375Q372.125 35.75 372.57812 36.484375Q373.25 37.5625 374.4375 37.5625Q375.39062 37.5625 376.04688 36.765625Q376.71875 35.953125 376.71875 34.359375Q376.71875 32.5625 376.0625 31.78125Q375.42188 31.0 374.42188 31.0Q373.4375 31.0 372.78125 31.78125Q372.125 32.546875 372.125 34.09375ZM393.9375 36.203125L396.67188 36.65625Q396.15625 38.15625 395.01562 38.953125Q393.875 39.734375 392.17188 39.734375Q389.45312 39.734375 388.15625 37.96875Q387.14062 36.546875 387.14062 34.390625Q387.14062 31.8125 388.48438 30.359375Q389.82812 28.890625 391.89062 28.890625Q394.20312 28.890625 395.53125 30.421875Q396.875 31.953125 396.82812 35.109375L389.95312 35.109375Q389.98438 36.328125 390.60938 37.015625Q391.25 37.6875 392.1875 37.6875Q392.84375 37.6875 393.28125 37.34375Q393.71875 36.984375 393.9375 36.203125ZM394.09375 33.421875Q394.0625 32.234375 393.46875 31.625Q392.89062 31.0 392.0625 31.0Q391.15625 31.0 390.57812 31.640625Q389.98438 32.296875 390.0 33.421875L394.09375 33.421875ZM397.625 39.5L401.35938 34.15625L397.78125 29.125L401.125 29.125L402.95312 31.984375L404.89062 29.125L408.10938 29.125L404.59375 34.046875L408.4375 39.5L405.0625 39.5L402.95312 36.28125L400.82812 39.5L397.625 39.5ZM415.9375 36.203125L418.67188 36.65625Q418.15625 38.15625 417.01562 38.953125Q415.875 39.734375 414.17188 39.734375Q411.45312 39.734375 410.15625 37.96875Q409.14062 36.546875 409.14062 34.390625Q409.14062 31.8125 410.48438 30.359375Q411.82812 28.890625 413.89062 28.890625Q416.20312 28.890625 417.53125 30.421875Q418.875 31.953125 418.82812 35.109375L411.95312 35.109375Q411.98438 36.328125 412.60938 37.015625Q413.25 37.6875 414.1875 37.6875Q414.84375 37.6875 415.28125 37.34375Q415.71875 36.984375 415.9375 36.203125ZM416.09375 33.421875Q416.0625 32.234375 415.46875 31.625Q414.89062 31.0 414.0625 31.0Q413.15625 31.0 412.57812 31.640625Q411.98438 32.296875 412.0 33.421875L416.09375 33.421875ZM429.98438 32.1875L427.28125 32.6875Q427.14062 31.875 426.65625 31.46875Q426.17188 31.046875 425.40625 31.046875Q424.375 31.046875 423.76562 31.765625Q423.15625 32.46875 423.15625 34.125Q423.15625 35.96875 423.76562 36.734375Q424.39062 37.5 425.4375 37.5Q426.21875 37.5 426.71875 37.0625Q427.21875 36.609375 427.42188 35.53125L430.10938 35.984375Q429.70312 37.84375 428.5 38.796875Q427.3125 39.734375 425.3125 39.734375Q423.03125 39.734375 421.67188 38.296875Q420.32812 36.859375 420.32812 34.328125Q420.32812 31.75 421.6875 30.328125Q423.04688 28.890625 425.35938 28.890625Q427.25 28.890625 428.35938 29.71875Q429.48438 30.53125 429.98438 32.1875ZM438.76562 39.5L438.76562 37.953125Q438.20312 38.78125 437.26562 39.265625Q436.34375 39.734375 435.32812 39.734375Q434.28125 39.734375 433.45312 39.28125Q432.625 38.8125 432.25 37.984375Q431.875 37.15625 431.875 35.6875L431.875 29.125L434.625 29.125L434.625 33.890625Q434.625 36.078125 434.76562 36.578125Q434.92188 37.0625 435.3125 37.359375Q435.71875 37.640625 436.34375 37.640625Q437.04688 37.640625 437.59375 37.265625Q438.15625 36.875 438.35938 36.3125Q438.5625 35.734375 438.5625 33.5L438.5625 29.125L441.3125 29.125L441.3125 39.5L438.76562 39.5ZM448.6875 29.125L448.6875 31.3125L446.8125 31.3125L446.8125 35.5Q446.8125 36.765625 446.85938 36.984375Q446.92188 37.1875 447.10938 37.328125Q447.3125 37.453125 447.57812 37.453125Q447.95312 37.453125 448.6875 37.1875L448.92188 39.328125Q447.95312 39.734375 446.75 39.734375Q446.0 39.734375 445.40625 39.484375Q444.8125 39.234375 444.53125 38.84375Q444.26562 38.4375 444.15625 37.765625Q444.0625 37.296875 444.0625 35.84375L444.0625 31.3125L442.79688 31.3125L442.79688 29.125L444.0625 29.125L444.0625 27.0625L446.8125 25.46875L446.8125 29.125L448.6875 29.125ZM450.9375 27.71875L450.9375 25.1875L453.6875 25.1875L453.6875 27.71875L450.9375 27.71875ZM450.9375 39.5L450.9375 29.125L453.6875 29.125L453.6875 39.5L450.9375 39.5ZM456.29688 34.171875Q456.29688 32.796875 456.96875 31.515625Q457.65625 30.234375 458.89062 29.5625Q460.125 28.890625 461.64062 28.890625Q464.0 28.890625 465.5 30.421875Q467.0 31.953125 467.0 34.28125Q467.0 36.640625 465.48438 38.1875Q463.96875 39.734375 461.65625 39.734375Q460.23438 39.734375 458.9375 39.09375Q457.65625 38.4375 456.96875 37.203125Q456.29688 35.953125 456.29688 34.171875ZM459.10938 34.3125Q459.10938 35.859375 459.84375 36.6875Q460.57812 37.5 461.65625 37.5Q462.73438 37.5 463.45312 36.6875Q464.1875 35.859375 464.1875 34.296875Q464.1875 32.765625 463.45312 31.953125Q462.73438 31.125 461.65625 31.125Q460.57812 31.125 459.84375 31.953125Q459.10938 32.765625 459.10938 34.3125ZM478.375 39.5L475.625 39.5L475.625 34.203125Q475.625 32.53125 475.45312 32.046875Q475.28125 31.546875 474.875 31.28125Q474.48438 31.0 473.92188 31.0Q473.21875 31.0 472.64062 31.390625Q472.07812 31.78125 471.85938 32.421875Q471.65625 33.0625 471.65625 34.796875L471.65625 39.5L468.92188 39.5L468.92188 29.125L471.46875 29.125L471.46875 30.65625Q472.82812 28.890625 474.89062 28.890625Q475.79688 28.890625 476.54688 29.21875Q477.29688 29.546875 477.67188 30.0625Q478.0625 30.5625 478.21875 31.21875Q478.375 31.859375 478.375 33.046875L478.375 39.5ZM491.6875 29.125L491.6875 31.3125L489.8125 31.3125L489.8125 35.5Q489.8125 36.765625 489.85938 36.984375Q489.92188 37.1875 490.10938 37.328125Q490.3125 37.453125 490.57812 37.453125Q490.95312 37.453125 491.6875 37.1875L491.92188 39.328125Q490.95312 39.734375 489.75 39.734375Q489.0 39.734375 488.40625 39.484375Q487.8125 39.234375 487.53125 38.84375Q487.26562 38.4375 487.15625 37.765625Q487.0625 37.296875 487.0625 35.84375L487.0625 31.3125L485.79688 31.3125L485.79688 29.125L487.0625 29.125L487.0625 27.0625L489.8125 25.46875L489.8125 29.125L491.6875 29.125ZM493.9375 27.71875L493.9375 25.1875L496.6875 25.1875L496.6875 27.71875L493.9375 27.71875ZM493.9375 39.5L493.9375 29.125L496.6875 29.125L496.6875 39.5L493.9375 39.5ZM499.73438 29.125L502.26562 29.125L502.26562 30.546875Q503.625 28.890625 505.5 28.890625Q506.48438 28.890625 507.21875 29.3125Q507.95312 29.71875 508.42188 30.546875Q509.10938 29.71875 509.89062 29.3125Q510.6875 28.890625 511.59375 28.890625Q512.7344 28.890625 513.5156 29.359375Q514.3125 29.828125 514.7031 30.71875Q514.9844 31.390625 514.9844 32.875L514.9844 39.5L512.2344 39.5L512.2344 33.578125Q512.2344 32.03125 511.95312 31.578125Q511.57812 31.0 510.78125 31.0Q510.20312 31.0 509.6875 31.359375Q509.1875 31.703125 508.96875 32.375Q508.75 33.046875 508.75 34.515625L508.75 39.5L506.0 39.5L506.0 33.8125Q506.0 32.296875 505.84375 31.859375Q505.70312 31.421875 505.39062 31.21875Q505.09375 31.0 504.5625 31.0Q503.9375 31.0 503.42188 31.34375Q502.92188 31.671875 502.6875 32.328125Q502.46875 32.96875 502.46875 34.453125L502.46875 39.5L499.73438 39.5L499.73438 29.125ZM523.9375 36.203125L526.6719 36.65625Q526.15625 38.15625 525.0156 38.953125Q523.875 39.734375 522.1719 39.734375Q519.4531 39.734375 518.15625 37.96875Q517.1406 36.546875 517.1406 34.390625Q517.1406 31.8125 518.4844 30.359375Q519.8281 28.890625 521.8906 28.890625Q524.2031 28.890625 525.53125 30.421875Q526.875 31.953125 526.8281 35.109375L519.9531 35.109375Q519.9844 36.328125 520.6094 37.015625Q521.25 37.6875 522.1875 37.6875Q522.84375 37.6875 523.28125 37.34375Q523.71875 36.984375 523.9375 36.203125ZM524.09375 33.421875Q524.0625 32.234375 523.46875 31.625Q522.8906 31.0 522.0625 31.0Q521.15625 31.0 520.5781 31.640625Q519.9844 32.296875 520.0 33.421875L524.09375 33.421875Z" fill-rule="nonzero"/></svg>