<svg version="1.1" viewBox="0.0 0.0 652.0 410.0" fill="none" stroke="none" stroke-linecap="square" stroke-miterlimit="10" width="652" height="410" xmlns:xlink="http://www.w3.org/1999/xlink" xmlns="http://www.w3.org/2000/svg"><path fill="#ffffff" d="M0 0L652.0 0L652.0 410.0L0 410.0L0 0Z" fill-rule="nonzero"/><path stroke="#333333" stroke-width="1.0" stroke-linecap="butt" d="M79.5 337.5L631.5 337.5" fill-rule="nonzero"/><path stroke="#cccccc" stroke-width="1.0" stroke-linecap="butt" d="M79.5 288.5L631.5 288.5" fill-rule="nonzero"/><path stroke="#cccccc" stroke-width="1.0" stroke-linecap="butt" d="M79.5 239.5L631.5 239.5" fill-rule="nonzero"/><path stroke="#cccccc" stroke-width="1.0" stroke-linecap="butt" d="M79.5 190.5L631.5 190.5" fill-rule="nonzero"/><path stroke="#cccccc" stroke-width="1.0" stroke-linecap="butt" d="M79.5 141.5L631.5 141.5" fill-rule="nonzero"/><path stroke="#cccccc" stroke-width="1.0" stroke-linecap="butt" d="M79.5 92.5L631.5 92.5" fill-rule="nonzero"/><clipPath id="id_0"><path d="M79.5 92.833336L631.5 92.833336L631.5 337.5L79.5 337.5L79.5 92.833336Z" clip-rule="nonzero"/></clipPath><path stroke="#a2c3fa" stroke-width="1.0" stroke-linecap="butt" clip-path="url(#id_0)" d="M104.59091 337.496L104.59091 337.496" fill-rule="nonzero"/><path stroke="#a2c3fa" stroke-width="1.0" stroke-linecap="butt" clip-path="url(#id_0)" d="M98.59091 337.496L110.59091 337.496" fill-rule="nonzero"/><path stroke="#a2c3fa" stroke-width="1.0" stroke-linecap="butt" clip-path="url(#id_0)" d="M98.59091 337.496L110.59091 337.496" fill-rule="nonzero"/><path stroke="#a2c3fa" stroke-width="1.0" stroke-linecap="butt" clip-path="url(#id_0)" d="M154.77272 337.3542L154.77272 337.3542" fill-rule="nonzero"/><path stroke="#a2c3fa" stroke-width="1.0" stroke-linecap="butt" clip-path="url(#id_0)" d="M148.77272 337.3542L160.77272 337.3542" fill-rule="nonzero"/><path stroke="#a2c3fa" stroke-width="1.0" stroke-linecap="butt" clip-path="url(#id_0)" d="M148.77272 337.3542L160.77272 337.3542" fill-rule="nonzero"/><path stroke="#a2c3fa" stroke-width="1.0" stroke-linecap="butt" clip-path="url(#id_0)" d="M204.95454 337.10168L204.95454 337.10168" fill-rule="nonzero"/><path stroke="#a2c3fa" stroke-width="1.0" stroke-linecap="butt" clip-path="url(#id_0)" d="M198.95454 337.10168L210.95454 337.10168" fill-rule="nonzero"/><path stroke="#a2c3fa" stroke-width="1.0" stroke-linecap="butt" clip-path="url(#id_0)" d="M198.95454 337.10168L210.95454 337.10168" fill-rule="nonzero"/><path stroke="#a2c3fa" stroke-width="1.0" stroke-linecap="butt" clip-path="url(#id_0)" d="M255.13637 337.21228L255.13637 337.21228" fill-rule="nonzero"/><path stroke="#a2c3fa" stroke-width="1.0" stroke-linecap="butt" clip-path="url(#id_0)" d="M249.13637 337.21228L261.13635 337.21228" fill-rule="nonzero"/><path stroke="#a2c3fa" stroke-width="1.0" stroke-linecap="butt" clip-path="url(#id_0)" d="M249.13637 337.21228L261.13635 337.21228" fill-rule="nonzero"/><path stroke="#a2c3fa" stroke-width="1.0" stroke-linecap="butt" clip-path="url(#id_0)" d="M305.31818 337.06155L305.31818 337.06155" fill-rule="nonzero"/><path stroke="#a2c3fa" stroke-width="1.0" stroke-linecap="butt" clip-path="url(#id_0)" d="M299.31818 337.06155L311.31818 337.06155" fill-rule="nonzero"/><path stroke="#a2c3fa" stroke-width="1.0" stroke-linecap="butt" clip-path="url(#id_0)" d="M299.31818 337.06155L311.31818 337.06155" fill-rule="nonzero"/><path stroke="#a2c3fa" stroke-width="1.0" stroke-linecap="butt" clip-path="url(#id_0)" d="M355.5 337.0635L355.5 337.0635" fill-rule="nonzero"/><path stroke="#a2c3fa" stroke-width="1.0" stroke-linecap="butt" clip-path="url(#id_0)" d="M349.5 337.0635L361.5 337.0635" fill-rule="nonzero"/><path stroke="#a2c3fa" stroke-width="1.0" stroke-linecap="butt" clip-path="url(#id_0)" d="M349.5 337.0635L361.5 337.0635" fill-rule="nonzero"/><path stroke="#a2c3fa" stroke-width="1.0" stroke-linecap="butt" clip-path="url(#id_0)" d="M405.68182 336.31583L405.68182 336.31583" fill-rule="nonzero"/><path stroke="#a2c3fa" stroke-width="1.0" stroke-linecap="butt" clip-path="url(#id_0)" d="M399.68182 336.31583L411.68182 336.31583" fill-rule="nonzero"/><path stroke="#a2c3fa" stroke-width="1.0" stroke-linecap="butt" clip-path="url(#id_0)" d="M399.68182 336.31583L411.68182 336.31583" fill-rule="nonzero"/><path stroke="#a2c3fa" stroke-width="1.0" stroke-linecap="butt" clip-path="url(#id_0)" d="M455.86365 335.70905L455.86365 335.70905" fill-rule="nonzero"/><path stroke="#a2c3fa" stroke-width="1.0" stroke-linecap="butt" clip-path="url(#id_0)" d="M449.86365 335.70905L461.86365 335.70905" fill-rule="nonzero"/><path stroke="#a2c3fa" stroke-width="1.0" stroke-linecap="butt" clip-path="url(#id_0)" d="M449.86365 335.70905L461.86365 335.70905" fill-rule="nonzero"/><path stroke="#a2c3fa" stroke-width="1.0" stroke-linecap="butt" clip-path="url(#id_0)" d="M506.04544 335.2393L506.04544 335.2393" fill-rule="nonzero"/><path stroke="#a2c3fa" stroke-width="1.0" stroke-linecap="butt" clip-path="url(#id_0)" d="M500.04544 335.2393L512.0455 335.2393" fill-rule="nonzero"/><path stroke="#a2c3fa" stroke-width="1.0" stroke-linecap="butt" clip-path="url(#id_0)" d="M500.04544 335.2393L512.0455 335.2393" fill-rule="nonzero"/><path stroke="#a2c3fa" stroke-width="1.0" stroke-linecap="butt" clip-path="url(#id_0)" d="M556.2273 334.7891L556.2273 334.7891" fill-rule="nonzero"/><path stroke="#a2c3fa" stroke-width="1.0" stroke-linecap="butt" clip-path="url(#id_0)" d="M550.2273 334.7891L562.2273 334.7891" fill-rule="nonzero"/><path stroke="#a2c3fa" stroke-width="1.0" stroke-linecap="butt" clip-path="url(#id_0)" d="M550.2273 334.7891L562.2273 334.7891" fill-rule="nonzero"/><path stroke="#a2c3fa" stroke-width="1.0" stroke-linecap="butt" clip-path="url(#id_0)" d="M606.4091 333.40918L606.4091 333.40918" fill-rule="nonzero"/><path stroke="#a2c3fa" stroke-width="1.0" stroke-linecap="butt" clip-path="url(#id_0)" d="M600.4091 333.40918L612.4091 333.40918" fill-rule="nonzero"/><path stroke="#a2c3fa" stroke-width="1.0" stroke-linecap="butt" clip-path="url(#id_0)" d="M600.4091 333.40918L612.4091 333.40918" fill-rule="nonzero"/><path stroke="#873a01" stroke-width="1.0" stroke-linecap="butt" clip-path="url(#id_0)" d="M104.59091 337.4789L104.59091 337.4789" fill-rule="nonzero"/><path stroke="#873a01" stroke-width="1.0" stroke-linecap="butt" clip-path="url(#id_0)" d="M98.59091 337.4789L110.59091 337.4789" fill-rule="nonzero"/><path stroke="#873a01" stroke-width="1.0" stroke-linecap="butt" clip-path="url(#id_0)" d="M98.59091 337.4789L110.59091 337.4789" fill-rule="nonzero"/><path stroke="#873a01" stroke-width="1.0" stroke-linecap="butt" clip-path="url(#id_0)" d="M154.77272 337.2575L154.77272 337.2575" fill-rule="nonzero"/><path stroke="#873a01" stroke-width="1.0" stroke-linecap="butt" clip-path="url(#id_0)" d="M148.77272 337.2575L160.77272 337.2575" fill-rule="nonzero"/><path stroke="#873a01" stroke-width="1.0" stroke-linecap="butt" clip-path="url(#id_0)" d="M148.77272 337.2575L160.77272 337.2575" fill-rule="nonzero"/><path stroke="#873a01" stroke-width="1.0" stroke-linecap="butt" clip-path="url(#id_0)" d="M204.95454 336.34686L204.95454 336.34686" fill-rule="nonzero"/><path stroke="#873a01" stroke-width="1.0" stroke-linecap="butt" clip-path="url(#id_0)" d="M198.95454 336.34686L210.95454 336.34686" fill-rule="nonzero"/><path stroke="#873a01" stroke-width="1.0" stroke-linecap="butt" clip-path="url(#id_0)" d="M198.95454 336.34686L210.95454 336.34686" fill-rule="nonzero"/><path stroke="#873a01" stroke-width="1.0" stroke-linecap="butt" clip-path="url(#id_0)" d="M255.13637 335.2962L255.13637 335.2962" fill-rule="nonzero"/><path stroke="#873a01" stroke-width="1.0" stroke-linecap="butt" clip-path="url(#id_0)" d="M249.13637 335.2962L261.13635 335.2962" fill-rule="nonzero"/><path stroke="#873a01" stroke-width="1.0" stroke-linecap="butt" clip-path="url(#id_0)" d="M249.13637 335.2962L261.13635 335.2962" fill-rule="nonzero"/><path stroke="#873a01" stroke-width="1.0" stroke-linecap="butt" clip-path="url(#id_0)" d="M305.31818 327.98102L305.31818 327.98102" fill-rule="nonzero"/><path stroke="#873a01" stroke-width="1.0" stroke-linecap="butt" clip-path="url(#id_0)" d="M299.31818 327.98102L311.31818 327.98102" fill-rule="nonzero"/><path stroke="#873a01" stroke-width="1.0" stroke-linecap="butt" clip-path="url(#id_0)" d="M299.31818 327.98102L311.31818 327.98102" fill-rule="nonzero"/><path stroke="#873a01" stroke-width="1.0" stroke-linecap="butt" clip-path="url(#id_0)" d="M355.5 327.4572L355.5 327.4572" fill-rule="nonzero"/><path stroke="#873a01" stroke-width="1.0" stroke-linecap="butt" clip-path="url(#id_0)" d="M349.5 327.4572L361.5 327.4572" fill-rule="nonzero"/><path stroke="#873a01" stroke-width="1.0" stroke-linecap="butt" clip-path="url(#id_0)" d="M349.5 327.4572L361.5 327.4572" fill-rule="nonzero"/><path stroke="#873a01" stroke-width="1.0" stroke-linecap="butt" clip-path="url(#id_0)" d="M405.68182 312.8378L405.68182 312.8378" fill-rule="nonzero"/><path stroke="#873a01" stroke-width="1.0" stroke-linecap="butt" clip-path="url(#id_0)" d="M399.68182 312.8378L411.68182 312.8378" fill-rule="nonzero"/><path stroke="#873a01" stroke-width="1.0" stroke-linecap="butt" clip-path="url(#id_0)" d="M399.68182 312.8378L411.68182 312.8378" fill-rule="nonzero"/><path stroke="#873a01" stroke-width="1.0" stroke-linecap="butt" clip-path="url(#id_0)" d="M455.86365 279.38504L455.86365 279.38504" fill-rule="nonzero"/><path stroke="#873a01" stroke-width="1.0" stroke-linecap="butt" clip-path="url(#id_0)" d="M449.86365 279.38504L461.86365 279.38504" fill-rule="nonzero"/><path stroke="#873a01" stroke-width="1.0" stroke-linecap="butt" clip-path="url(#id_0)" d="M449.86365 279.38504L461.86365 279.38504" fill-rule="nonzero"/><path stroke="#873a01" stroke-width="1.0" stroke-linecap="butt" clip-path="url(#id_0)" d="M506.04544 192.51903L506.04544 192.51903" fill-rule="nonzero"/><path stroke="#873a01" stroke-width="1.0" stroke-linecap="butt" clip-path="url(#id_0)" d="M500.04544 192.51903L512.0455 192.51903" fill-rule="nonzero"/><path stroke="#873a01" stroke-width="1.0" stroke-linecap="butt" clip-path="url(#id_0)" d="M500.04544 192.51903L512.0455 192.51903" fill-rule="nonzero"/><path stroke="#873a01" stroke-width="1.0" stroke-linecap="butt" clip-path="url(#id_0)" d="M556.2273 176.25027L556.2273 176.25027" fill-rule="nonzero"/><path stroke="#873a01" stroke-width="1.0" stroke-linecap="butt" clip-path="url(#id_0)" d="M550.2273 176.25027L562.2273 176.25027" fill-rule="nonzero"/><path stroke="#873a01" stroke-width="1.0" stroke-linecap="butt" clip-path="url(#id_0)" d="M550.2273 176.25027L562.2273 176.25027" fill-rule="nonzero"/><path stroke="#873a01" stroke-width="1.0" stroke-linecap="butt" clip-path="url(#id_0)" d="M606.4091 119.78738L606.4091 119.78738" fill-rule="nonzero"/><path stroke="#873a01" stroke-width="1.0" stroke-linecap="butt" clip-path="url(#id_0)" d="M600.4091 119.78738L612.4091 119.78738" fill-rule="nonzero"/><path stroke="#873a01" stroke-width="1.0" stroke-linecap="butt" clip-path="url(#id_0)" d="M600.4091 119.78738L612.4091 119.78738" fill-rule="nonzero"/><path stroke="#4285f4" stroke-width="2.0" stroke-linecap="butt" clip-path="url(#id_0)" d="M104.59091 337.496C104.59091 337.496 138.04546 337.4199 154.77272 337.3542C171.5 337.28845 188.22728 337.12534 204.95454 337.10168C221.68182 337.07803 238.40909 337.21896 255.13637 337.21228C271.86365 337.2056 288.5909 337.08636 305.31818 337.06155C322.04544 337.03677 338.77274 337.1878 355.5 337.0635C372.22726 336.9392 388.95456 336.54156 405.68182 336.31583C422.4091 336.09006 439.13635 335.88846 455.86365 335.70905C472.5909 335.52963 489.31818 335.3926 506.04544 335.2393C522.7727 335.08597 539.5 335.09412 556.2273 334.7891C572.9545 334.48407 606.4091 333.40918 606.4091 333.40918" fill-rule="nonzero"/><path stroke="#ff6d01" stroke-width="2.0" stroke-linecap="butt" clip-path="url(#id_0)" d="M104.59091 337.4789C104.59091 337.4789 138.04546 337.4462 154.77272 337.2575C171.5 337.06885 188.22728 336.67374 204.95454 336.34686C221.68182 336.02 238.40909 336.6905 255.13637 335.2962C271.86365 333.9019 288.5909 329.2875 305.31818 327.98102C322.04544 326.67453 338.77274 329.98108 355.5 327.4572C372.22726 324.93335 388.95456 320.84985 405.68182 312.8378C422.4091 304.82578 439.13635 299.43817 455.86365 279.38504C472.5909 259.3319 489.31818 209.70816 506.04544 192.51903C522.7727 175.32991 539.5 188.37222 556.2273 176.25027C572.9545 164.12834 606.4091 119.78738 606.4091 119.78738" fill-rule="nonzero"/><path fill="#4285f4" clip-path="url(#id_0)" d="M110.59091 337.496C110.59091 340.8097 107.90462 343.496 104.59091 343.496C101.2772 343.496 98.59091 340.8097 98.59091 337.496C98.59091 334.18228 101.2772 331.496 104.59091 331.496C107.90462 331.496 110.59091 334.18228 110.59091 337.496Z" fill-rule="nonzero"/><path fill="#4285f4" clip-path="url(#id_0)" d="M160.77272 337.3542C160.77272 340.66788 158.08644 343.3542 154.77272 343.3542C151.45901 343.3542 148.77272 340.66788 148.77272 337.3542C148.77272 334.04047 151.45901 331.3542 154.77272 331.3542C158.08644 331.3542 160.77272 334.04047 160.77272 337.3542Z" fill-rule="nonzero"/><path fill="#4285f4" clip-path="url(#id_0)" d="M210.95454 337.10168C210.95454 340.4154 208.26825 343.10168 204.95454 343.10168C201.64084 343.10168 198.95454 340.4154 198.95454 337.10168C198.95454 333.78796 201.64084 331.10168 204.95454 331.10168C208.26825 331.10168 210.95454 333.78796 210.95454 337.10168Z" fill-rule="nonzero"/><path fill="#4285f4" clip-path="url(#id_0)" d="M261.13635 337.21228C261.13635 340.52597 258.45007 343.21228 255.13637 343.21228C251.82266 343.21228 249.13637 340.52597 249.13637 337.21228C249.13637 333.89856 251.82266 331.21228 255.13637 331.21228C258.45007 331.21228 261.13635 333.89856 261.13635 337.21228Z" fill-rule="nonzero"/><path fill="#4285f4" clip-path="url(#id_0)" d="M311.31818 337.06155C311.31818 340.37527 308.6319 343.06155 305.31818 343.06155C302.0045 343.06155 299.31818 340.37527 299.31818 337.06155C299.31818 333.74786 302.0045 331.06155 305.31818 331.06155C308.6319 331.06155 311.31818 333.74786 311.31818 337.06155Z" fill-rule="nonzero"/><path fill="#4285f4" clip-path="url(#id_0)" d="M361.5 337.0635C361.5 340.37723 358.81372 343.0635 355.5 343.0635C352.18628 343.0635 349.5 340.37723 349.5 337.0635C349.5 333.74982 352.18628 331.0635 355.5 331.0635C358.81372 331.0635 361.5 333.74982 361.5 337.0635Z" fill-rule="nonzero"/><path fill="#4285f4" clip-path="url(#id_0)" d="M411.68182 336.31583C411.68182 339.62952 408.9955 342.31583 405.68182 342.31583C402.3681 342.31583 399.68182 339.62952 399.68182 336.31583C399.68182 333.0021 402.3681 330.31583 405.68182 330.31583C408.9955 330.31583 411.68182 333.0021 411.68182 336.31583Z" fill-rule="nonzero"/><path fill="#4285f4" clip-path="url(#id_0)" d="M461.86365 335.70905C461.86365 339.02274 459.17734 341.70905 455.86365 341.70905C452.54993 341.70905 449.86365 339.02274 449.86365 335.70905C449.86365 332.39532 452.54993 329.70905 455.86365 329.70905C459.17734 329.70905 461.86365 332.39532 461.86365 335.70905Z" fill-rule="nonzero"/><path fill="#4285f4" clip-path="url(#id_0)" d="M512.0455 335.2393C512.0455 338.55298 509.35916 341.2393 506.04544 341.2393C502.73175 341.2393 500.04544 338.55298 500.04544 335.2393C500.04544 331.92557 502.73175 329.2393 506.04544 329.2393C509.35916 329.2393 512.0455 331.92557 512.0455 335.2393Z" fill-rule="nonzero"/><path fill="#4285f4" clip-path="url(#id_0)" d="M562.2273 334.7891C562.2273 338.1028 559.54095 340.7891 556.2273 340.7891C552.9136 340.7891 550.2273 338.1028 550.2273 334.7891C550.2273 331.47537 552.9136 328.7891 556.2273 328.7891C559.54095 328.7891 562.2273 331.47537 562.2273 334.7891Z" fill-rule="nonzero"/><path fill="#4285f4" clip-path="url(#id_0)" d="M612.4091 333.40918C612.4091 336.72287 609.7228 339.40918 606.4091 339.40918C603.0954 339.40918 600.4091 336.72287 600.4091 333.40918C600.4091 330.09546 603.0954 327.40918 606.4091 327.40918C609.7228 327.40918 612.4091 330.09546 612.4091 333.40918Z" fill-rule="nonzero"/><path fill="#ff6d01" clip-path="url(#id_0)" d="M110.59091 337.4789C110.59091 340.7926 107.90462 343.4789 104.59091 343.4789C101.2772 343.4789 98.59091 340.7926 98.59091 337.4789C98.59091 334.1652 101.2772 331.4789 104.59091 331.4789C107.90462 331.4789 110.59091 334.1652 110.59091 337.4789Z" fill-rule="nonzero"/><path fill="#ff6d01" clip-path="url(#id_0)" d="M160.77272 337.2575C160.77272 340.57123 158.08644 343.2575 154.77272 343.2575C151.45901 343.2575 148.77272 340.57123 148.77272 337.2575C148.77272 333.94382 151.45901 331.2575 154.77272 331.2575C158.08644 331.2575 160.77272 333.94382 160.77272 337.2575Z" fill-rule="nonzero"/><path fill="#ff6d01" clip-path="url(#id_0)" d="M210.95454 336.34686C210.95454 339.66058 208.26825 342.34686 204.95454 342.34686C201.64084 342.34686 198.95454 339.66058 198.95454 336.34686C198.95454 333.03314 201.64084 330.34686 204.95454 330.34686C208.26825 330.34686 210.95454 333.03314 210.95454 336.34686Z" fill-rule="nonzero"/><path fill="#ff6d01" clip-path="url(#id_0)" d="M261.13635 335.2962C261.13635 338.6099 258.45007 341.2962 255.13637 341.2962C251.82266 341.2962 249.13637 338.6099 249.13637 335.2962C249.13637 331.98248 251.82266 329.2962 255.13637 329.2962C258.45007 329.2962 261.13635 331.98248 261.13635 335.2962Z" fill-rule="nonzero"/><path fill="#ff6d01" clip-path="url(#id_0)" d="M311.31818 327.98102C311.31818 331.29474 308.6319 333.98102 305.31818 333.98102C302.0045 333.98102 299.31818 331.29474 299.31818 327.98102C299.31818 324.6673 302.0045 321.98102 305.31818 321.98102C308.6319 321.98102 311.31818 324.6673 311.31818 327.98102Z" fill-rule="nonzero"/><path fill="#ff6d01" clip-path="url(#id_0)" d="M361.5 327.4572C361.5 330.77094 358.81372 333.4572 355.5 333.4572C352.18628 333.4572 349.5 330.77094 349.5 327.4572C349.5 324.14352 352.18628 321.4572 355.5 321.4572C358.81372 321.4572 361.5 324.14352 361.5 327.4572Z" fill-rule="nonzero"/><path fill="#ff6d01" clip-path="url(#id_0)" d="M411.68182 312.8378C411.68182 316.15152 408.9955 318.8378 405.68182 318.8378C402.3681 318.8378 399.68182 316.15152 399.68182 312.8378C399.68182 309.5241 402.3681 306.8378 405.68182 306.8378C408.9955 306.8378 411.68182 309.5241 411.68182 312.8378Z" fill-rule="nonzero"/><path fill="#ff6d01" clip-path="url(#id_0)" d="M461.86365 279.38504C461.86365 282.69873 459.17734 285.38504 455.86365 285.38504C452.54993 285.38504 449.86365 282.69873 449.86365 279.38504C449.86365 276.07132 452.54993 273.38504 455.86365 273.38504C459.17734 273.38504 461.86365 276.07132 461.86365 279.38504Z" fill-rule="nonzero"/><path fill="#ff6d01" clip-path="url(#id_0)" d="M512.0455 192.51903C512.0455 195.83273 509.35916 198.51903 506.04544 198.51903C502.73175 198.51903 500.04544 195.83273 500.04544 192.51903C500.04544 189.20532 502.73175 186.51903 506.04544 186.51903C509.35916 186.51903 512.0455 189.20532 512.0455 192.51903Z" fill-rule="nonzero"/><path fill="#ff6d01" clip-path="url(#id_0)" d="M562.2273 176.25027C562.2273 179.564 559.54095 182.25027 556.2273 182.25027C552.9136 182.25027 550.2273 179.564 550.2273 176.25027C550.2273 172.93657 552.9136 170.25027 556.2273 170.25027C559.54095 170.25027 562.2273 172.93657 562.2273 176.25027Z" fill-rule="nonzero"/><path fill="#ff6d01" clip-path="url(#id_0)" d="M612.4091 119.78738C612.4091 123.10109 609.7228 125.78738 606.4091 125.78738C603.0954 125.78738 600.4091 123.10109 600.4091 119.78738C600.4091 116.47367 603.0954 113.78738 606.4091 113.78738C609.7228 113.78738 612.4091 116.47367 612.4091 119.78738Z" fill-rule="nonzero"/><path fill="#000000" d="M320.92188 386.5L320.92188 377.90625L324.17188 377.90625Q325.01562 377.90625 325.46875 377.98438Q326.10938 378.09375 326.53125 378.39062Q326.96875 378.6875 327.21875 379.21875Q327.48438 379.75 327.48438 380.39062Q327.48438 381.48438 326.78125 382.25Q326.09375 383.0 324.26562 383.0L322.0625 383.0L322.0625 386.5L320.92188 386.5ZM322.0625 382.0L324.28125 382.0Q325.39062 382.0 325.84375 381.59375Q326.3125 381.17188 326.3125 380.42188Q326.3125 379.89062 326.03125 379.51562Q325.76562 379.125 325.32812 379.0Q325.03125 378.92188 324.26562 378.92188L322.0625 378.92188L322.0625 382.0ZM328.78125 386.5L328.78125 380.28125L329.73438 380.28125L329.73438 381.21875Q330.09375 380.5625 330.39062 380.35938Q330.70312 380.14062 331.07812 380.14062Q331.60938 380.14062 332.15625 380.46875L331.79688 381.45312Q331.40625 381.21875 331.03125 381.21875Q330.67188 381.21875 330.39062 381.4375Q330.125 381.64062 330.01562 382.01562Q329.82812 382.57812 329.82812 383.23438L329.82812 386.5L328.78125 386.5ZM332.40625 383.39062Q332.40625 381.65625 333.35938 380.82812Q334.15625 380.14062 335.3125 380.14062Q336.59375 380.14062 337.40625 380.98438Q338.23438 381.8125 338.23438 383.29688Q338.23438 384.5 337.875 385.1875Q337.51562 385.875 336.8125 386.26562Q336.125 386.64062 335.3125 386.64062Q334.01562 386.64062 333.20312 385.8125Q332.40625 384.96875 332.40625 383.39062ZM333.48438 383.39062Q333.48438 384.57812 334.0 385.17188Q334.53125 385.76562 335.3125 385.76562Q336.10938 385.76562 336.625 385.17188Q337.14062 384.57812 337.14062 383.35938Q337.14062 382.20312 336.60938 381.60938Q336.09375 381.01562 335.3125 381.01562Q334.53125 381.01562 334.0 381.60938Q333.48438 382.1875 333.48438 383.39062ZM340.76562 386.5L339.78125 386.5L339.78125 377.90625L340.84375 377.90625L340.84375 380.96875Q341.51562 380.14062 342.54688 380.14062Q343.125 380.14062 343.625 380.375Q344.14062 380.59375 344.46875 381.01562Q344.8125 381.4375 345.0 382.03125Q345.1875 382.625 345.1875 383.29688Q345.1875 384.89062 344.39062 385.76562Q343.59375 386.64062 342.5 386.64062Q341.39062 386.64062 340.76562 385.71875L340.76562 386.5ZM340.75 383.34375Q340.75 384.45312 341.0625 384.95312Q341.5625 385.76562 342.40625 385.76562Q343.09375 385.76562 343.59375 385.17188Q344.10938 384.57812 344.10938 383.375Q344.10938 382.15625 343.625 381.57812Q343.14062 381.0 342.45312 381.0Q341.76562 381.0 341.25 381.60938Q340.75 382.20312 340.75 383.34375ZM346.76562 386.5L346.76562 377.90625L347.82812 377.90625L347.82812 386.5L346.76562 386.5ZM354.04688 384.5L355.14062 384.625Q354.89062 385.57812 354.1875 386.10938Q353.48438 386.64062 352.40625 386.64062Q351.04688 386.64062 350.23438 385.79688Q349.4375 384.95312 349.4375 383.4375Q349.4375 381.875 350.25 381.01562Q351.0625 380.14062 352.34375 380.14062Q353.59375 380.14062 354.375 380.98438Q355.17188 381.82812 355.17188 383.375Q355.17188 383.46875 355.17188 383.65625L350.53125 383.65625Q350.59375 384.6875 351.10938 385.23438Q351.625 385.76562 352.40625 385.76562Q352.98438 385.76562 353.39062 385.46875Q353.8125 385.15625 354.04688 384.5ZM350.59375 382.79688L354.0625 382.79688Q354.0 382.0 353.67188 381.60938Q353.15625 381.0 352.35938 381.0Q351.625 381.0 351.125 381.48438Q350.64062 381.96875 350.59375 382.79688ZM356.79688 386.5L356.79688 380.28125L357.73438 380.28125L357.73438 381.15625Q358.03125 380.6875 358.51562 380.42188Q359.0 380.14062 359.625 380.14062Q360.3125 380.14062 360.75 380.42188Q361.20312 380.70312 361.375 381.21875Q362.125 380.14062 363.29688 380.14062Q364.23438 380.14062 364.71875 380.65625Q365.21875 381.15625 365.21875 382.23438L365.21875 386.5L364.17188 386.5L364.17188 382.57812Q364.17188 381.95312 364.0625 381.67188Q363.96875 381.39062 363.70312 381.21875Q363.4375 381.04688 363.0625 381.04688Q362.40625 381.04688 361.96875 381.48438Q361.54688 381.92188 361.54688 382.89062L361.54688 386.5L360.48438 386.5L360.48438 382.45312Q360.48438 381.75 360.21875 381.40625Q359.96875 381.04688 359.39062 381.04688Q358.9375 381.04688 358.5625 381.28125Q358.1875 381.51562 358.01562 381.96875Q357.84375 382.42188 357.84375 383.26562L357.84375 386.5L356.79688 386.5ZM369.375 384.64062L370.40625 384.48438Q370.5 385.10938 370.89062 385.4375Q371.29688 385.76562 372.03125 385.76562Q372.75 385.76562 373.09375 385.48438Q373.45312 385.1875 373.45312 384.78125Q373.45312 384.42188 373.14062 384.21875Q372.92188 384.07812 372.0625 383.85938Q370.90625 383.5625 370.45312 383.35938Q370.01562 383.14062 369.78125 382.76562Q369.54688 382.39062 369.54688 381.92188Q369.54688 381.51562 369.73438 381.15625Q369.92188 380.79688 370.25 380.5625Q370.5 380.39062 370.92188 380.26562Q371.34375 380.14062 371.84375 380.14062Q372.5625 380.14062 373.10938 380.35938Q373.67188 380.5625 373.9375 380.92188Q374.20312 381.28125 374.29688 381.875L373.26562 382.01562Q373.20312 381.54688 372.85938 381.28125Q372.53125 381.0 371.90625 381.0Q371.1875 381.0 370.875 381.25Q370.5625 381.48438 370.5625 381.8125Q370.5625 382.01562 370.6875 382.17188Q370.82812 382.34375 371.09375 382.45312Q371.25 382.51562 372.03125 382.71875Q373.15625 383.03125 373.59375 383.21875Q374.03125 383.40625 374.28125 383.76562Q374.53125 384.125 374.53125 384.67188Q374.53125 385.20312 374.21875 385.67188Q373.92188 386.125 373.34375 386.39062Q372.76562 386.64062 372.03125 386.64062Q370.8125 386.64062 370.17188 386.14062Q369.54688 385.625 369.375 384.64062ZM375.79688 379.125L375.79688 377.90625L376.85938 377.90625L376.85938 379.125L375.79688 379.125ZM375.79688 386.5L375.79688 380.28125L376.85938 380.28125L376.85938 386.5L375.79688 386.5ZM378.23438 386.5L378.23438 385.64062L382.20312 381.09375Q381.51562 381.125 381.0 381.125L378.46875 381.125L378.46875 380.28125L383.5625 380.28125L383.5625 380.96875L380.1875 384.92188L379.53125 385.64062Q380.25 385.59375 380.85938 385.59375L383.75 385.59375L383.75 386.5L378.23438 386.5ZM389.04688 384.5L390.14062 384.625Q389.89062 385.57812 389.1875 386.10938Q388.48438 386.64062 387.40625 386.64062Q386.04688 386.64062 385.23438 385.79688Q384.4375 384.95312 384.4375 383.4375Q384.4375 381.875 385.25 381.01562Q386.0625 380.14062 387.34375 380.14062Q388.59375 380.14062 389.375 380.98438Q390.17188 381.82812 390.17188 383.375Q390.17188 383.46875 390.17188 383.65625L385.53125 383.65625Q385.59375 384.6875 386.10938 385.23438Q386.625 385.76562 387.40625 385.76562Q387.98438 385.76562 388.39062 385.46875Q388.8125 385.15625 389.04688 384.5ZM385.59375 382.79688L389.0625 382.79688Q389.0 382.0 388.67188 381.60938Q388.15625 381.0 387.35938 381.0Q386.625 381.0 386.125 381.48438Q385.64062 381.96875 385.59375 382.79688Z" fill-rule="nonzero"/><path fill="#000000" d="M31.5 240.5573L23.921875 240.5573L23.921875 243.38542L22.90625 243.38542L22.90625 236.57292L23.921875 236.57292L23.921875 239.41667L31.5 239.41667L31.5 240.5573ZM24.125 235.8698L22.90625 235.8698L22.90625 234.8073L24.125 234.8073L24.125 235.8698ZM31.5 235.8698L25.28125 235.8698L25.28125 234.8073L31.5 234.8073L31.5 235.8698ZM31.5 232.8698L25.28125 232.8698L25.28125 231.9323L26.15625 231.9323Q25.6875 231.63542 25.421875 231.15105Q25.140625 230.66667 25.140625 230.04167Q25.140625 229.35417 25.421875 228.91667Q25.703125 228.46355 26.21875 228.29167Q25.140625 227.54167 25.140625 226.3698Q25.140625 225.4323 25.65625 224.94792Q26.15625 224.44792 27.234375 224.44792L31.5 224.44792L31.5 225.4948L27.578125 225.4948Q26.953125 225.4948 26.671875 225.60417Q26.390625 225.69792 26.21875 225.96355Q26.046875 226.22917 26.046875 226.60417Q26.046875 227.26042 26.484375 227.69792Q26.921875 228.1198 27.890625 228.1198L31.5 228.1198L31.5 229.1823L27.453125 229.1823Q26.75 229.1823 26.40625 229.44792Q26.046875 229.69792 26.046875 230.27605Q26.046875 230.72917 26.28125 231.10417Q26.515625 231.47917 26.96875 231.65105Q27.421875 231.82292 28.265625 231.82292L31.5 231.82292L31.5 232.8698ZM29.5 218.6198L29.625 217.52605Q30.578125 217.77605 31.109375 218.47917Q31.640625 219.1823 31.640625 220.26042Q31.640625 221.6198 30.796875 222.4323Q29.953125 223.22917 28.4375 223.22917Q26.875 223.22917 26.015625 222.41667Q25.140625 221.60417 25.140625 220.32292Q25.140625 219.07292 25.984375 218.29167Q26.828125 217.4948 28.375 217.4948Q28.46875 217.4948 28.65625 217.4948L28.65625 222.13542Q29.6875 222.07292 30.234375 221.5573Q30.765625 221.04167 30.765625 220.26042Q30.765625 219.6823 30.46875 219.27605Q30.15625 218.85417 29.5 218.6198ZM27.796875 222.07292L27.796875 218.60417Q27.0 218.66667 26.609375 218.9948Q26.0 219.51042 26.0 220.3073Q26.0 221.04167 26.484375 221.54167Q26.96875 222.02605 27.796875 222.07292ZM34.03125 210.85417Q32.921875 211.72917 31.453125 212.33855Q29.96875 212.9323 28.390625 212.9323Q27.0 212.9323 25.71875 212.4948Q24.234375 211.96355 22.765625 210.85417L22.765625 210.10417Q23.984375 210.8073 24.5 211.04167Q25.3125 211.40105 26.1875 211.60417Q27.28125 211.85417 28.390625 211.85417Q31.21875 211.85417 34.03125 210.10417L34.03125 210.85417ZM29.640625 209.29167L29.484375 208.26042Q30.109375 208.16667 30.4375 207.77605Q30.765625 207.3698 30.765625 206.63542Q30.765625 205.91667 30.484375 205.57292Q30.1875 205.21355 29.78125 205.21355Q29.421875 205.21355 29.21875 205.52605Q29.078125 205.7448 28.859375 206.60417Q28.5625 207.76042 28.359375 208.21355Q28.140625 208.65105 27.765625 208.88542Q27.390625 209.1198 26.921875 209.1198Q26.515625 209.1198 26.15625 208.9323Q25.796875 208.7448 25.5625 208.41667Q25.390625 208.16667 25.265625 207.7448Q25.140625 207.32292 25.140625 206.82292Q25.140625 206.10417 25.359375 205.5573Q25.5625 204.9948 25.921875 204.72917Q26.28125 204.46355 26.875 204.3698L27.015625 205.40105Q26.546875 205.46355 26.28125 205.8073Q26.0 206.13542 26.0 206.76042Q26.0 207.47917 26.25 207.79167Q26.484375 208.10417 26.8125 208.10417Q27.015625 208.10417 27.171875 207.97917Q27.34375 207.83855 27.453125 207.57292Q27.515625 207.41667 27.71875 206.63542Q28.03125 205.51042 28.21875 205.07292Q28.40625 204.63542 28.765625 204.38542Q29.125 204.13542 29.671875 204.13542Q30.203125 204.13542 30.671875 204.44792Q31.125 204.7448 31.390625 205.32292Q31.640625 205.90105 31.640625 206.63542Q31.640625 207.85417 31.140625 208.4948Q30.625 209.1198 29.640625 209.29167ZM34.03125 202.1823L34.03125 202.9323Q31.21875 201.1823 28.390625 201.1823Q27.296875 201.1823 26.203125 201.4323Q25.328125 201.63542 24.515625 201.9948Q24.0 202.22917 22.765625 202.9323L22.765625 202.1823Q24.234375 201.08855 25.71875 200.5573Q27.0 200.10417 28.390625 200.10417Q29.96875 200.10417 31.453125 200.71355Q32.921875 201.32292 34.03125 202.1823Z" fill-rule="nonzero"/><path fill="#000000" d="M67.0 337.26562Q67.0 335.73438 67.3125 334.8125Q67.625 333.875 68.234375 333.375Q68.859375 332.875 69.796875 332.875Q70.484375 332.875 71.0 333.15625Q71.53125 333.4375 71.875 333.96875Q72.21875 334.48438 72.40625 335.23438Q72.59375 335.98438 72.59375 337.26562Q72.59375 338.78125 72.28125 339.70312Q71.984375 340.625 71.359375 341.14062Q70.75 341.64062 69.796875 341.64062Q68.5625 341.64062 67.84375 340.75Q67.0 339.6875 67.0 337.26562ZM68.078125 337.26562Q68.078125 339.375 68.578125 340.07812Q69.078125 340.78125 69.796875 340.78125Q70.53125 340.78125 71.015625 340.07812Q71.515625 339.375 71.515625 337.26562Q71.515625 335.14062 71.015625 334.45312Q70.53125 333.75 69.78125 333.75Q69.0625 333.75 68.625 334.35938Q68.078125 335.14062 68.078125 337.26562Z" fill-rule="nonzero"/><path fill="#000000" d="M60.0 290.31668L61.109375 290.22293Q61.234375 291.03543 61.671875 291.44168Q62.125 291.84793 62.765625 291.84793Q63.515625 291.84793 64.046875 291.2698Q64.578125 290.69168 64.578125 289.75418Q64.578125 288.84793 64.0625 288.3323Q63.5625 287.80106 62.734375 287.80106Q62.234375 287.80106 61.8125 288.03543Q61.40625 288.2698 61.171875 288.62918L60.1875 288.50418L61.015625 284.09793L65.296875 284.09793L65.296875 285.09793L61.859375 285.09793L61.40625 287.41043Q62.171875 286.86356 63.015625 286.86356Q64.140625 286.86356 64.90625 287.6448Q65.6875 288.42606 65.6875 289.66043Q65.6875 290.81668 65.015625 291.67606Q64.1875 292.7073 62.765625 292.7073Q61.59375 292.7073 60.84375 292.05106Q60.109375 291.3948 60.0 290.31668ZM67.0 288.3323Q67.0 286.80106 67.3125 285.87918Q67.625 284.94168 68.234375 284.44168Q68.859375 283.94168 69.796875 283.94168Q70.484375 283.94168 71.0 284.22293Q71.53125 284.50418 71.875 285.03543Q72.21875 285.55106 72.40625 286.30106Q72.59375 287.05106 72.59375 288.3323Q72.59375 289.84793 72.28125 290.7698Q71.984375 291.69168 71.359375 292.2073Q70.75 292.7073 69.796875 292.7073Q68.5625 292.7073 67.84375 291.81668Q67.0 290.75418 67.0 288.3323ZM68.078125 288.3323Q68.078125 290.44168 68.578125 291.1448Q69.078125 291.84793 69.796875 291.84793Q70.53125 291.84793 71.015625 291.1448Q71.515625 290.44168 71.515625 288.3323Q71.515625 286.2073 71.015625 285.5198Q70.53125 284.81668 69.78125 284.81668Q69.0625 284.81668 68.625 285.42606Q68.078125 286.2073 68.078125 288.3323Z" fill-rule="nonzero"/><path fill="#000000" d="M56.96875 243.63333L55.921875 243.63333L55.921875 236.91458Q55.53125 237.27396 54.90625 237.64896Q54.296875 238.00833 53.8125 238.1802L53.8125 237.16458Q54.6875 236.7427 55.34375 236.16458Q56.015625 235.57083 56.296875 235.00833L56.96875 235.00833L56.96875 243.63333ZM60.0 239.39896Q60.0 237.8677 60.3125 236.94583Q60.625 236.00833 61.234375 235.50833Q61.859375 235.00833 62.796875 235.00833Q63.484375 235.00833 64.0 235.28958Q64.53125 235.57083 64.875 236.10208Q65.21875 236.6177 65.40625 237.3677Q65.59375 238.1177 65.59375 239.39896Q65.59375 240.91458 65.28125 241.83646Q64.984375 242.75833 64.359375 243.27396Q63.75 243.77396 62.796875 243.77396Q61.5625 243.77396 60.84375 242.88333Q60.0 241.82083 60.0 239.39896ZM61.078125 239.39896Q61.078125 241.50833 61.578125 242.21146Q62.078125 242.91458 62.796875 242.91458Q63.53125 242.91458 64.015625 242.21146Q64.515625 241.50833 64.515625 239.39896Q64.515625 237.27396 64.015625 236.58646Q63.53125 235.88333 62.78125 235.88333Q62.0625 235.88333 61.625 236.4927Q61.078125 237.27396 61.078125 239.39896ZM67.0 239.39896Q67.0 237.8677 67.3125 236.94583Q67.625 236.00833 68.234375 235.50833Q68.859375 235.00833 69.796875 235.00833Q70.484375 235.00833 71.0 235.28958Q71.53125 235.57083 71.875 236.10208Q72.21875 236.6177 72.40625 237.3677Q72.59375 238.1177 72.59375 239.39896Q72.59375 240.91458 72.28125 241.83646Q71.984375 242.75833 71.359375 243.27396Q70.75 243.77396 69.796875 243.77396Q68.5625 243.77396 67.84375 242.88333Q67.0 241.82083 67.0 239.39896ZM68.078125 239.39896Q68.078125 241.50833 68.578125 242.21146Q69.078125 242.91458 69.796875 242.91458Q70.53125 242.91458 71.015625 242.21146Q71.515625 241.50833 71.515625 239.39896Q71.515625 237.27396 71.015625 236.58646Q70.53125 235.88333 69.78125 235.88333Q69.0625 235.88333 68.625 236.4927Q68.078125 237.27396 68.078125 239.39896Z" fill-rule="nonzero"/><path fill="#000000" d="M56.96875 194.7L55.921875 194.7L55.921875 187.98125Q55.53125 188.34062 54.90625 188.71562Q54.296875 189.075 53.8125 189.24687L53.8125 188.23125Q54.6875 187.80937 55.34375 187.23125Q56.015625 186.6375 56.296875 186.075L56.96875 186.075L56.96875 194.7ZM60.0 192.45L61.109375 192.35625Q61.234375 193.16875 61.671875 193.575Q62.125 193.98125 62.765625 193.98125Q63.515625 193.98125 64.046875 193.40312Q64.578125 192.825 64.578125 191.8875Q64.578125 190.98125 64.0625 190.46562Q63.5625 189.93437 62.734375 189.93437Q62.234375 189.93437 61.8125 190.16875Q61.40625 190.40312 61.171875 190.7625L60.1875 190.6375L61.015625 186.23125L65.296875 186.23125L65.296875 187.23125L61.859375 187.23125L61.40625 189.54375Q62.171875 188.99687 63.015625 188.99687Q64.140625 188.99687 64.90625 189.77812Q65.6875 190.55937 65.6875 191.79375Q65.6875 192.95 65.015625 193.80937Q64.1875 194.84062 62.765625 194.84062Q61.59375 194.84062 60.84375 194.18437Q60.109375 193.52812 60.0 192.45ZM67.0 190.46562Q67.0 188.93437 67.3125 188.0125Q67.625 187.075 68.234375 186.575Q68.859375 186.075 69.796875 186.075Q70.484375 186.075 71.0 186.35625Q71.53125 186.6375 71.875 187.16875Q72.21875 187.68437 72.40625 188.43437Q72.59375 189.18437 72.59375 190.46562Q72.59375 191.98125 72.28125 192.90312Q71.984375 193.825 71.359375 194.34062Q70.75 194.84062 69.796875 194.84062Q68.5625 194.84062 67.84375 193.95Q67.0 192.8875 67.0 190.46562ZM68.078125 190.46562Q68.078125 192.575 68.578125 193.27812Q69.078125 193.98125 69.796875 193.98125Q70.53125 193.98125 71.015625 193.27812Q71.515625 192.575 71.515625 190.46562Q71.515625 188.34062 71.015625 187.65312Q70.53125 186.95 69.78125 186.95Q69.0625 186.95 68.625 187.55937Q68.078125 188.34062 68.078125 190.46562Z" fill-rule="nonzero"/><path fill="#000000" d="M58.546875 144.75104L58.546875 145.76666L52.859375 145.76666Q52.859375 145.39166 52.984375 145.03229Q53.203125 144.45416 53.671875 143.89166Q54.15625 143.32916 55.0625 142.59479Q56.46875 141.43854 56.953125 140.76666Q57.453125 140.09479 57.453125 139.50104Q57.453125 138.87604 57.0 138.45416Q56.546875 138.01666 55.828125 138.01666Q55.0625 138.01666 54.609375 138.46979Q54.15625 138.92291 54.140625 139.73541L53.0625 139.62604Q53.171875 138.40729 53.890625 137.78229Q54.625 137.14166 55.859375 137.14166Q57.09375 137.14166 57.8125 137.82916Q58.53125 138.51666 58.53125 139.53229Q58.53125 140.04791 58.3125 140.54791Q58.109375 141.03229 57.609375 141.59479Q57.125 142.14166 56.0 143.09479Q55.046875 143.89166 54.765625 144.18854Q54.5 144.46979 54.328125 144.75104L58.546875 144.75104ZM60.0 141.53229Q60.0 140.00104 60.3125 139.07916Q60.625 138.14166 61.234375 137.64166Q61.859375 137.14166 62.796875 137.14166Q63.484375 137.14166 64.0 137.42291Q64.53125 137.70416 64.875 138.23541Q65.21875 138.75104 65.40625 139.50104Q65.59375 140.25104 65.59375 141.53229Q65.59375 143.04791 65.28125 143.96979Q64.984375 144.89166 64.359375 145.40729Q63.75 145.90729 62.796875 145.90729Q61.5625 145.90729 60.84375 145.01666Q60.0 143.95416 60.0 141.53229ZM61.078125 141.53229Q61.078125 143.64166 61.578125 144.34479Q62.078125 145.04791 62.796875 145.04791Q63.53125 145.04791 64.015625 144.34479Q64.515625 143.64166 64.515625 141.53229Q64.515625 139.40729 64.015625 138.71979Q63.53125 138.01666 62.78125 138.01666Q62.0625 138.01666 61.625 138.62604Q61.078125 139.40729 61.078125 141.53229ZM67.0 141.53229Q67.0 140.00104 67.3125 139.07916Q67.625 138.14166 68.234375 137.64166Q68.859375 137.14166 69.796875 137.14166Q70.484375 137.14166 71.0 137.42291Q71.53125 137.70416 71.875 138.23541Q72.21875 138.75104 72.40625 139.50104Q72.59375 140.25104 72.59375 141.53229Q72.59375 143.04791 72.28125 143.96979Q71.984375 144.89166 71.359375 145.40729Q70.75 145.90729 69.796875 145.90729Q68.5625 145.90729 67.84375 145.01666Q67.0 143.95416 67.0 141.53229ZM68.078125 141.53229Q68.078125 143.64166 68.578125 144.34479Q69.078125 145.04791 69.796875 145.04791Q70.53125 145.04791 71.015625 144.34479Q71.515625 143.64166 71.515625 141.53229Q71.515625 139.40729 71.015625 138.71979Q70.53125 138.01666 69.78125 138.01666Q69.0625 138.01666 68.625 138.62604Q68.078125 139.40729 68.078125 141.53229Z" fill-rule="nonzero"/><path fill="#000000" d="M58.546875 95.81771L58.546875 96.833336L52.859375 96.833336Q52.859375 96.458336 52.984375 96.09896Q53.203125 95.520836 53.671875 94.958336Q54.15625 94.395836 55.0625 93.66146Q56.46875 92.50521 56.953125 91.833336Q57.453125 91.16146 57.453125 90.56771Q57.453125 89.94271 57.0 89.520836Q56.546875 89.083336 55.828125 89.083336Q55.0625 89.083336 54.609375 89.53646Q54.15625 89.989586 54.140625 90.802086L53.0625 90.69271Q53.171875 89.47396 53.890625 88.84896Q54.625 88.208336 55.859375 88.208336Q57.09375 88.208336 57.8125 88.895836Q58.53125 89.583336 58.53125 90.59896Q58.53125 91.114586 58.3125 91.614586Q58.109375 92.09896 57.609375 92.66146Q57.125 93.208336 56.0 94.16146Q55.046875 94.958336 54.765625 95.25521Q54.5 95.53646 54.328125 95.81771L58.546875 95.81771ZM60.0 94.583336L61.109375 94.489586Q61.234375 95.302086 61.671875 95.708336Q62.125 96.114586 62.765625 96.114586Q63.515625 96.114586 64.046875 95.53646Q64.578125 94.958336 64.578125 94.020836Q64.578125 93.114586 64.0625 92.59896Q63.5625 92.06771 62.734375 92.06771Q62.234375 92.06771 61.8125 92.302086Q61.40625 92.53646 61.171875 92.895836L60.1875 92.770836L61.015625 88.364586L65.296875 88.364586L65.296875 89.364586L61.859375 89.364586L61.40625 91.677086Q62.171875 91.13021 63.015625 91.13021Q64.140625 91.13021 64.90625 91.91146Q65.6875 92.69271 65.6875 93.927086Q65.6875 95.083336 65.015625 95.94271Q64.1875 96.97396 62.765625 96.97396Q61.59375 96.97396 60.84375 96.31771Q60.109375 95.66146 60.0 94.583336ZM67.0 92.59896Q67.0 91.06771 67.3125 90.145836Q67.625 89.208336 68.234375 88.708336Q68.859375 88.208336 69.796875 88.208336Q70.484375 88.208336 71.0 88.489586Q71.53125 88.770836 71.875 89.302086Q72.21875 89.81771 72.40625 90.56771Q72.59375 91.31771 72.59375 92.59896Q72.59375 94.114586 72.28125 95.03646Q71.984375 95.958336 71.359375 96.47396Q70.75 96.97396 69.796875 96.97396Q68.5625 96.97396 67.84375 96.083336Q67.0 95.020836 67.0 92.59896ZM68.078125 92.59896Q68.078125 94.708336 68.578125 95.41146Q69.078125 96.114586 69.796875 96.114586Q70.53125 96.114586 71.015625 95.41146Q71.515625 94.708336 71.515625 92.59896Q71.515625 90.47396 71.015625 89.78646Q70.53125 89.083336 69.78125 89.083336Q69.0625 89.083336 68.625 89.69271Q68.078125 90.47396 68.078125 92.59896Z" fill-rule="nonzero"/><path fill="#000000" d="M102.05966 354.5L101.01279 354.5L101.01279 347.78125Q100.62216 348.14062 99.99716 348.51562Q99.38779 348.875 98.90341 349.04688L98.90341 348.03125Q99.77841 347.60938 100.43466 347.03125Q101.10654 346.4375 101.38779 345.875L102.05966 345.875L102.05966 354.5ZM105.09091 350.26562Q105.09091 348.73438 105.40341 347.8125Q105.71591 346.875 106.32529 346.375Q106.95029 345.875 107.88779 345.875Q108.57529 345.875 109.09091 346.15625Q109.62216 346.4375 109.96591 346.96875Q110.30966 347.48438 110.49716 348.23438Q110.68466 348.98438 110.68466 350.26562Q110.68466 351.78125 110.37216 352.70312Q110.07529 353.625 109.45029 354.14062Q108.84091 354.64062 107.88779 354.64062Q106.65341 354.64062 105.93466 353.75Q105.09091 352.6875 105.09091 350.26562ZM106.16904 350.26562Q106.16904 352.375 106.66904 353.07812Q107.16904 353.78125 107.88779 353.78125Q108.62216 353.78125 109.10654 353.07812Q109.60654 352.375 109.60654 350.26562Q109.60654 348.14062 109.10654 347.45312Q108.62216 346.75 107.87216 346.75Q107.15341 346.75 106.71591 347.35938Q106.16904 348.14062 106.16904 350.26562Z" fill-rule="nonzero"/><path fill="#000000" d="M153.8196 353.48438L153.8196 354.5L148.1321 354.5Q148.1321 354.125 148.2571 353.76562Q148.47585 353.1875 148.9446 352.625Q149.42897 352.0625 150.33522 351.32812Q151.74147 350.17188 152.22585 349.5Q152.72585 348.82812 152.72585 348.23438Q152.72585 347.60938 152.27272 347.1875Q151.8196 346.75 151.10085 346.75Q150.33522 346.75 149.8821 347.20312Q149.42897 347.65625 149.41335 348.46875L148.33522 348.35938Q148.4446 347.14062 149.16335 346.51562Q149.89772 345.875 151.1321 345.875Q152.36647 345.875 153.08522 346.5625Q153.80397 347.25 153.80397 348.26562Q153.80397 348.78125 153.58522 349.28125Q153.3821 349.76562 152.8821 350.32812Q152.39772 350.875 151.27272 351.82812Q150.3196 352.625 150.03835 352.92188Q149.77272 353.20312 149.60085 353.48438L153.8196 353.48438ZM155.27272 350.26562Q155.27272 348.73438 155.58522 347.8125Q155.89772 346.875 156.5071 346.375Q157.1321 345.875 158.0696 345.875Q158.7571 345.875 159.27272 346.15625Q159.80397 346.4375 160.14772 346.96875Q160.49147 347.48438 160.67897 348.23438Q160.86647 348.98438 160.86647 350.26562Q160.86647 351.78125 160.55397 352.70312Q160.2571 353.625 159.6321 354.14062Q159.02272 354.64062 158.0696 354.64062Q156.83522 354.64062 156.11647 353.75Q155.27272 352.6875 155.27272 350.26562ZM156.35085 350.26562Q156.35085 352.375 156.85085 353.07812Q157.35085 353.78125 158.0696 353.78125Q158.80397 353.78125 159.28835 353.07812Q159.78835 352.375 159.78835 350.26562Q159.78835 348.14062 159.28835 347.45312Q158.80397 346.75 158.05397 346.75Q157.33522 346.75 156.89772 347.35938Q156.35085 348.14062 156.35085 350.26562Z" fill-rule="nonzero"/><path fill="#000000" d="M198.45454 352.23438L199.51704 352.09375Q199.68892 352.98438 200.12642 353.39062Q200.56392 353.78125 201.18892 353.78125Q201.93892 353.78125 202.45454 353.26562Q202.97017 352.75 202.97017 351.98438Q202.97017 351.26562 202.4858 350.79688Q202.01704 350.3125 201.28267 350.3125Q200.9858 350.3125 200.53267 350.4375L200.65767 349.5Q200.76704 349.51562 200.82954 349.51562Q201.50142 349.51562 202.03267 349.17188Q202.57954 348.8125 202.57954 348.07812Q202.57954 347.5 202.18892 347.125Q201.7983 346.73438 201.1733 346.73438Q200.56392 346.73438 200.14204 347.125Q199.7358 347.51562 199.62642 348.28125L198.56392 348.09375Q198.75142 347.04688 199.43892 346.46875Q200.12642 345.875 201.14204 345.875Q201.84517 345.875 202.43892 346.1875Q203.03267 346.48438 203.34517 347.0Q203.65767 347.51562 203.65767 348.10938Q203.65767 348.65625 203.3608 349.125Q203.06392 349.57812 202.4858 349.84375Q203.2358 350.01562 203.65767 350.57812Q204.07954 351.125 204.07954 351.96875Q204.07954 353.09375 203.25142 353.875Q202.43892 354.65625 201.18892 354.65625Q200.06392 354.65625 199.31392 353.98438Q198.56392 353.29688 198.45454 352.23438ZM205.45454 350.26562Q205.45454 348.73438 205.76704 347.8125Q206.07954 346.875 206.68892 346.375Q207.31392 345.875 208.25142 345.875Q208.93892 345.875 209.45454 346.15625Q209.9858 346.4375 210.32954 346.96875Q210.6733 347.48438 210.8608 348.23438Q211.0483 348.98438 211.0483 350.26562Q211.0483 351.78125 210.7358 352.70312Q210.43892 353.625 209.81392 354.14062Q209.20454 354.64062 208.25142 354.64062Q207.01704 354.64062 206.2983 353.75Q205.45454 352.6875 205.45454 350.26562ZM206.53267 350.26562Q206.53267 352.375 207.03267 353.07812Q207.53267 353.78125 208.25142 353.78125Q208.9858 353.78125 209.47017 353.07812Q209.97017 352.375 209.97017 350.26562Q209.97017 348.14062 209.47017 347.45312Q208.9858 346.75 208.2358 346.75Q207.51704 346.75 207.07954 347.35938Q206.53267 348.14062 206.53267 350.26562Z" fill-rule="nonzero"/><path fill="#000000" d="M252.01137 354.5L252.01137 352.4375L248.29262 352.4375L248.29262 351.46875L252.2145 345.90625L253.07387 345.90625L253.07387 351.46875L254.23012 351.46875L254.23012 352.4375L253.07387 352.4375L253.07387 354.5L252.01137 354.5ZM252.01137 351.46875L252.01137 347.60938L249.32387 351.46875L252.01137 351.46875ZM255.63637 350.26562Q255.63637 348.73438 255.94887 347.8125Q256.26135 346.875 256.87073 346.375Q257.49573 345.875 258.43323 345.875Q259.12073 345.875 259.63635 346.15625Q260.1676 346.4375 260.51135 346.96875Q260.8551 347.48438 261.0426 348.23438Q261.2301 348.98438 261.2301 350.26562Q261.2301 351.78125 260.9176 352.70312Q260.62073 353.625 259.99573 354.14062Q259.38635 354.64062 258.43323 354.64062Q257.19885 354.64062 256.4801 353.75Q255.63637 352.6875 255.63637 350.26562ZM256.71448 350.26562Q256.71448 352.375 257.21448 353.07812Q257.71448 353.78125 258.43323 353.78125Q259.1676 353.78125 259.65198 353.07812Q260.15198 352.375 260.15198 350.26562Q260.15198 348.14062 259.65198 347.45312Q259.1676 346.75 258.4176 346.75Q257.69885 346.75 257.26135 347.35938Q256.71448 348.14062 256.71448 350.26562Z" fill-rule="nonzero"/><path fill="#000000" d="M298.81818 352.25L299.92755 352.15625Q300.05255 352.96875 300.49005 353.375Q300.94318 353.78125 301.5838 353.78125Q302.3338 353.78125 302.86505 353.20312Q303.3963 352.625 303.3963 351.6875Q303.3963 350.78125 302.88068 350.26562Q302.38068 349.73438 301.55255 349.73438Q301.05255 349.73438 300.63068 349.96875Q300.22443 350.20312 299.99005 350.5625L299.00568 350.4375L299.8338 346.03125L304.11505 346.03125L304.11505 347.03125L300.67755 347.03125L300.22443 349.34375Q300.99005 348.79688 301.8338 348.79688Q302.9588 348.79688 303.72443 349.57812Q304.50568 350.35938 304.50568 351.59375Q304.50568 352.75 303.8338 353.60938Q303.00568 354.64062 301.5838 354.64062Q300.41193 354.64062 299.66193 353.98438Q298.92755 353.32812 298.81818 352.25ZM305.81818 350.26562Q305.81818 348.73438 306.13068 347.8125Q306.44318 346.875 307.05255 346.375Q307.67755 345.875 308.61505 345.875Q309.30255 345.875 309.81818 346.15625Q310.34943 346.4375 310.69318 346.96875Q311.03693 347.48438 311.22443 348.23438Q311.41193 348.98438 311.41193 350.26562Q311.41193 351.78125 311.09943 352.70312Q310.80255 353.625 310.17755 354.14062Q309.56818 354.64062 308.61505 354.64062Q307.38068 354.64062 306.66193 353.75Q305.81818 352.6875 305.81818 350.26562ZM306.8963 350.26562Q306.8963 352.375 307.3963 353.07812Q307.8963 353.78125 308.61505 353.78125Q309.34943 353.78125 309.8338 353.07812Q310.3338 352.375 310.3338 350.26562Q310.3338 348.14062 309.8338 347.45312Q309.34943 346.75 308.59943 346.75Q307.88068 346.75 307.44318 347.35938Q306.8963 348.14062 306.8963 350.26562Z" fill-rule="nonzero"/><path fill="#000000" d="M354.46875 348.01562L353.42188 348.09375Q353.28125 347.46875 353.03125 347.1875Q352.59375 346.73438 351.96875 346.73438Q351.46875 346.73438 351.07812 347.01562Q350.59375 347.39062 350.29688 348.09375Q350.01562 348.78125 350.0 350.0625Q350.375 349.48438 350.92188 349.20312Q351.48438 348.92188 352.09375 348.92188Q353.14062 348.92188 353.875 349.70312Q354.625 350.48438 354.625 351.70312Q354.625 352.51562 354.26562 353.21875Q353.92188 353.90625 353.3125 354.28125Q352.70312 354.64062 351.9375 354.64062Q350.60938 354.64062 349.78125 353.67188Q348.95312 352.70312 348.95312 350.48438Q348.95312 347.98438 349.875 346.85938Q350.67188 345.875 352.03125 345.875Q353.04688 345.875 353.6875 346.45312Q354.34375 347.01562 354.46875 348.01562ZM350.17188 351.71875Q350.17188 352.26562 350.39062 352.76562Q350.625 353.25 351.03125 353.51562Q351.45312 353.78125 351.92188 353.78125Q352.57812 353.78125 353.0625 353.25Q353.54688 352.70312 353.54688 351.78125Q353.54688 350.89062 353.0625 350.375Q352.59375 349.85938 351.875 349.85938Q351.15625 349.85938 350.65625 350.375Q350.17188 350.89062 350.17188 351.71875ZM356.0 350.26562Q356.0 348.73438 356.3125 347.8125Q356.625 346.875 357.23438 346.375Q357.85938 345.875 358.79688 345.875Q359.48438 345.875 360.0 346.15625Q360.53125 346.4375 360.875 346.96875Q361.21875 347.48438 361.40625 348.23438Q361.59375 348.98438 361.59375 350.26562Q361.59375 351.78125 361.28125 352.70312Q360.98438 353.625 360.35938 354.14062Q359.75 354.64062 358.79688 354.64062Q357.5625 354.64062 356.84375 353.75Q356.0 352.6875 356.0 350.26562ZM357.07812 350.26562Q357.07812 352.375 357.57812 353.07812Q358.07812 353.78125 358.79688 353.78125Q359.53125 353.78125 360.01562 353.07812Q360.51562 352.375 360.51562 350.26562Q360.51562 348.14062 360.01562 347.45312Q359.53125 346.75 358.78125 346.75Q358.0625 346.75 357.625 347.35938Q357.07812 348.14062 357.07812 350.26562Z" fill-rule="nonzero"/><path fill="#000000" d="M399.24432 347.03125L399.24432 346.01562L404.80682 346.01562L404.80682 346.84375Q403.99432 347.71875 403.18182 349.17188Q402.38495 350.60938 401.94745 352.14062Q401.61932 353.21875 401.5412 354.5L400.44745 354.5Q400.46307 353.48438 400.83807 352.04688Q401.2287 350.60938 401.93182 349.28125Q402.65057 347.95312 403.46307 347.03125L399.24432 347.03125ZM406.18182 350.26562Q406.18182 348.73438 406.49432 347.8125Q406.80682 346.875 407.4162 346.375Q408.0412 345.875 408.9787 345.875Q409.6662 345.875 410.18182 346.15625Q410.71307 346.4375 411.05682 346.96875Q411.40057 347.48438 411.58807 348.23438Q411.77557 348.98438 411.77557 350.26562Q411.77557 351.78125 411.46307 352.70312Q411.1662 353.625 410.5412 354.14062Q409.93182 354.64062 408.9787 354.64062Q407.74432 354.64062 407.02557 353.75Q406.18182 352.6875 406.18182 350.26562ZM407.25995 350.26562Q407.25995 352.375 407.75995 353.07812Q408.25995 353.78125 408.9787 353.78125Q409.71307 353.78125 410.19745 353.07812Q410.69745 352.375 410.69745 350.26562Q410.69745 348.14062 410.19745 347.45312Q409.71307 346.75 408.96307 346.75Q408.24432 346.75 407.80682 347.35938Q407.25995 348.14062 407.25995 350.26562Z" fill-rule="nonzero"/><path fill="#000000" d="M450.98865 349.84375Q450.3324 349.59375 450.00427 349.15625Q449.69177 348.70312 449.69177 348.09375Q449.69177 347.15625 450.36365 346.51562Q451.05115 345.875 452.16052 345.875Q453.28552 345.875 453.97302 346.53125Q454.66052 347.1875 454.66052 348.125Q454.66052 348.71875 454.34802 349.15625Q454.03552 349.59375 453.3949 349.84375Q454.19177 350.09375 454.59802 350.67188Q455.00427 351.25 455.00427 352.04688Q455.00427 353.14062 454.22302 353.89062Q453.4574 354.64062 452.17615 354.64062Q450.91052 354.64062 450.12927 353.89062Q449.34802 353.14062 449.34802 352.01562Q449.34802 351.17188 449.7699 350.60938Q450.2074 350.04688 450.98865 349.84375ZM450.7699 348.04688Q450.7699 348.65625 451.16052 349.04688Q451.56677 349.4375 452.19177 349.4375Q452.80115 349.4375 453.19177 349.0625Q453.5824 348.67188 453.5824 348.10938Q453.5824 347.53125 453.17615 347.14062Q452.7699 346.73438 452.17615 346.73438Q451.56677 346.73438 451.16052 347.125Q450.7699 347.51562 450.7699 348.04688ZM450.44177 352.01562Q450.44177 352.46875 450.6449 352.89062Q450.86365 353.3125 451.28552 353.54688Q451.7074 353.78125 452.19177 353.78125Q452.94177 353.78125 453.42615 353.29688Q453.92615 352.8125 453.92615 352.0625Q453.92615 351.29688 453.42615 350.79688Q452.92615 350.29688 452.16052 350.29688Q451.41052 350.29688 450.92615 350.79688Q450.44177 351.28125 450.44177 352.01562ZM456.36365 350.26562Q456.36365 348.73438 456.67615 347.8125Q456.98865 346.875 457.59802 346.375Q458.22302 345.875 459.16052 345.875Q459.84802 345.875 460.36365 346.15625Q460.8949 346.4375 461.23865 346.96875Q461.5824 347.48438 461.7699 348.23438Q461.9574 348.98438 461.9574 350.26562Q461.9574 351.78125 461.6449 352.70312Q461.34802 353.625 460.72302 354.14062Q460.11365 354.64062 459.16052 354.64062Q457.92615 354.64062 457.2074 353.75Q456.36365 352.6875 456.36365 350.26562ZM457.44177 350.26562Q457.44177 352.375 457.94177 353.07812Q458.44177 353.78125 459.16052 353.78125Q459.8949 353.78125 460.37927 353.07812Q460.87927 352.375 460.87927 350.26562Q460.87927 348.14062 460.37927 347.45312Q459.8949 346.75 459.1449 346.75Q458.42615 346.75 457.98865 347.35938Q457.44177 348.14062 457.44177 350.26562Z" fill-rule="nonzero"/><path fill="#000000" d="M499.7017 352.51562L500.71732 352.42188Q500.84232 353.14062 501.2017 353.46875Q501.5767 353.78125 502.1392 353.78125Q502.62357 353.78125 502.98294 353.5625Q503.35794 353.32812 503.59232 352.96875Q503.8267 352.59375 503.98294 351.96875Q504.1392 351.32812 504.1392 350.67188Q504.1392 350.59375 504.1392 350.45312Q503.8267 350.95312 503.27982 351.28125Q502.73294 351.59375 502.09232 351.59375Q501.0142 351.59375 500.27982 350.82812Q499.54544 350.04688 499.54544 348.78125Q499.54544 347.46875 500.31107 346.67188Q501.09232 345.875 502.24857 345.875Q503.0767 345.875 503.7642 346.32812Q504.46732 346.78125 504.8267 347.625Q505.18607 348.45312 505.18607 350.03125Q505.18607 351.67188 504.8267 352.65625Q504.48294 353.625 503.7642 354.14062Q503.06107 354.64062 502.12357 354.64062Q501.10794 354.64062 500.46732 354.09375Q499.8267 353.53125 499.7017 352.51562ZM504.0142 348.71875Q504.0142 347.8125 503.52982 347.28125Q503.06107 346.75 502.37357 346.75Q501.67044 346.75 501.1392 347.32812Q500.62357 347.89062 500.62357 348.8125Q500.62357 349.625 501.12357 350.14062Q501.62357 350.65625 502.34232 350.65625Q503.0767 350.65625 503.54544 350.14062Q504.0142 349.625 504.0142 348.71875ZM506.54544 350.26562Q506.54544 348.73438 506.85794 347.8125Q507.17044 346.875 507.77982 346.375Q508.40482 345.875 509.34232 345.875Q510.02982 345.875 510.54544 346.15625Q511.0767 346.4375 511.42044 346.96875Q511.7642 347.48438 511.9517 348.23438Q512.13916 348.98438 512.13916 350.26562Q512.13916 351.78125 511.8267 352.70312Q511.52982 353.625 510.90482 354.14062Q510.29544 354.64062 509.34232 354.64062Q508.10794 354.64062 507.3892 353.75Q506.54544 352.6875 506.54544 350.26562ZM507.62357 350.26562Q507.62357 352.375 508.12357 353.07812Q508.62357 353.78125 509.34232 353.78125Q510.0767 353.78125 510.56107 353.07812Q511.06107 352.375 511.06107 350.26562Q511.06107 348.14062 510.56107 347.45312Q510.0767 346.75 509.3267 346.75Q508.60794 346.75 508.17044 347.35938Q507.62357 348.14062 507.62357 350.26562Z" fill-rule="nonzero"/><path fill="#000000" d="M550.19604 354.5L549.1492 354.5L549.1492 347.78125Q548.75854 348.14062 548.13354 348.51562Q547.5242 348.875 547.0398 349.04688L547.0398 348.03125Q547.9148 347.60938 548.57104 347.03125Q549.2429 346.4375 549.5242 345.875L550.19604 345.875L550.19604 354.5ZM553.2273 350.26562Q553.2273 348.73438 553.5398 347.8125Q553.8523 346.875 554.4617 346.375Q555.0867 345.875 556.0242 345.875Q556.7117 345.875 557.2273 346.15625Q557.75854 346.4375 558.1023 346.96875Q558.44604 347.48438 558.63354 348.23438Q558.82104 348.98438 558.82104 350.26562Q558.82104 351.78125 558.50854 352.70312Q558.2117 353.625 557.5867 354.14062Q556.9773 354.64062 556.0242 354.64062Q554.7898 354.64062 554.07104 353.75Q553.2273 352.6875 553.2273 350.26562ZM554.3054 350.26562Q554.3054 352.375 554.8054 353.07812Q555.3054 353.78125 556.0242 353.78125Q556.75854 353.78125 557.2429 353.07812Q557.7429 352.375 557.7429 350.26562Q557.7429 348.14062 557.2429 347.45312Q556.75854 346.75 556.00854 346.75Q555.2898 346.75 554.8523 347.35938Q554.3054 348.14062 554.3054 350.26562ZM560.2273 350.26562Q560.2273 348.73438 560.5398 347.8125Q560.8523 346.875 561.4617 346.375Q562.0867 345.875 563.0242 345.875Q563.7117 345.875 564.2273 346.15625Q564.75854 346.4375 565.1023 346.96875Q565.44604 347.48438 565.63354 348.23438Q565.82104 348.98438 565.82104 350.26562Q565.82104 351.78125 565.50854 352.70312Q565.2117 353.625 564.5867 354.14062Q563.9773 354.64062 563.0242 354.64062Q561.7898 354.64062 561.07104 353.75Q560.2273 352.6875 560.2273 350.26562ZM561.3054 350.26562Q561.3054 352.375 561.8054 353.07812Q562.3054 353.78125 563.0242 353.78125Q563.75854 353.78125 564.2429 353.07812Q564.7429 352.375 564.7429 350.26562Q564.7429 348.14062 564.2429 347.45312Q563.75854 346.75 563.00854 346.75Q562.2898 346.75 561.8523 347.35938Q561.3054 348.14062 561.3054 350.26562Z" fill-rule="nonzero"/><path fill="#000000" d="M600.37787 354.5L599.331 354.5L599.331 347.78125Q598.94037 348.14062 598.31537 348.51562Q597.706 348.875 597.2216 349.04688L597.2216 348.03125Q598.0966 347.60938 598.75287 347.03125Q599.42474 346.4375 599.706 345.875L600.37787 345.875L600.37787 354.5ZM607.37787 354.5L606.331 354.5L606.331 347.78125Q605.94037 348.14062 605.31537 348.51562Q604.706 348.875 604.2216 349.04688L604.2216 348.03125Q605.0966 347.60938 605.75287 347.03125Q606.42474 346.4375 606.706 345.875L607.37787 345.875L607.37787 354.5ZM610.4091 350.26562Q610.4091 348.73438 610.7216 347.8125Q611.0341 346.875 611.6435 346.375Q612.2685 345.875 613.206 345.875Q613.8935 345.875 614.4091 346.15625Q614.94037 346.4375 615.2841 346.96875Q615.62787 347.48438 615.81537 348.23438Q616.00287 348.98438 616.00287 350.26562Q616.00287 351.78125 615.69037 352.70312Q615.3935 353.625 614.7685 354.14062Q614.1591 354.64062 613.206 354.64062Q611.9716 354.64062 611.25287 353.75Q610.4091 352.6875 610.4091 350.26562ZM611.48724 350.26562Q611.48724 352.375 611.98724 353.07812Q612.48724 353.78125 613.206 353.78125Q613.94037 353.78125 614.42474 353.07812Q614.92474 352.375 614.92474 350.26562Q614.92474 348.14062 614.42474 347.45312Q613.94037 346.75 613.19037 346.75Q612.4716 346.75 612.0341 347.35938Q611.48724 348.14062 611.48724 350.26562Z" fill-rule="nonzero"/><path fill="#4285f4" d="M266.0 65.166664C266.0 68.48038 263.31372 71.166664 260.0 71.166664C256.68628 71.166664 254.0 68.48038 254.0 65.166664C254.0 61.85296 256.68628 59.166668 260.0 59.166668C263.31372 59.166668 266.0 61.85296 266.0 65.166664Z" fill-rule="nonzero"/><path fill="#1a1a1a" d="M274.96875 69.166664L274.96875 60.572914L276.09375 60.572914L276.09375 64.104164L280.5625 64.104164L280.5625 60.572914L281.70312 60.572914L281.70312 69.166664L280.5625 69.166664L280.5625 65.11979L276.09375 65.11979L276.09375 69.166664L274.96875 69.166664ZM288.04688 67.166664L289.14062 67.291664Q288.89062 68.24479 288.1875 68.77604Q287.48438 69.30729 286.40625 69.30729Q285.04688 69.30729 284.23438 68.46354Q283.4375 67.61979 283.4375 66.104164Q283.4375 64.541664 284.25 63.68229Q285.0625 62.80729 286.34375 62.80729Q287.59375 62.80729 288.375 63.65104Q289.17188 64.49479 289.17188 66.041664Q289.17188 66.135414 289.17188 66.322914L284.53125 66.322914Q284.59375 67.354164 285.10938 67.90104Q285.625 68.43229 286.40625 68.43229Q286.98438 68.43229 287.39062 68.135414Q287.8125 67.822914 288.04688 67.166664ZM284.59375 65.46354L288.0625 65.46354Q288.0 64.666664 287.67188 64.27604Q287.15625 63.666664 286.35938 63.666664Q285.625 63.666664 285.125 64.15104Q284.64062 64.635414 284.59375 65.46354ZM294.875 69.166664L294.875 68.24479Q294.14062 69.30729 292.89062 69.30729Q292.34375 69.30729 291.85938 69.104164Q291.39062 68.885414 291.15625 68.572914Q290.92188 68.24479 290.82812 67.77604Q290.76562 67.479164 290.76562 66.791664L290.76562 62.947914L291.82812 62.947914L291.82812 66.40104Q291.82812 67.21354 291.89062 67.510414Q291.98438 67.916664 292.29688 68.166664Q292.625 68.40104 293.10938 68.40104Q293.57812 68.40104 293.98438 68.166664Q294.40625 67.916664 294.57812 67.49479Q294.76562 67.072914 294.76562 66.27604L294.76562 62.947914L295.8125 62.947914L295.8125 69.166664L294.875 69.166664ZM297.78125 69.166664L297.78125 62.947914L298.73438 62.947914L298.73438 63.885414Q299.09375 63.229164 299.39062 63.02604Q299.70312 62.80729 300.07812 62.80729Q300.60938 62.80729 301.15625 63.135414L300.79688 64.11979Q300.40625 63.885414 300.03125 63.885414Q299.67188 63.885414 299.39062 64.104164Q299.125 64.30729 299.01562 64.68229Q298.82812 65.24479 298.82812 65.90104L298.82812 69.166664L297.78125 69.166664ZM301.79688 61.791664L301.79688 60.572914L302.85938 60.572914L302.85938 61.791664L301.79688 61.791664ZM301.79688 69.166664L301.79688 62.947914L302.85938 62.947914L302.85938 69.166664L301.79688 69.166664ZM304.375 67.30729L305.40625 67.15104Q305.5 67.77604 305.89062 68.104164Q306.29688 68.43229 307.03125 68.43229Q307.75 68.43229 308.09375 68.15104Q308.45312 67.854164 308.45312 67.447914Q308.45312 67.08854 308.14062 66.885414Q307.92188 66.74479 307.0625 66.52604Q305.90625 66.229164 305.45312 66.02604Q305.01562 65.80729 304.78125 65.43229Q304.54688 65.05729 304.54688 64.58854Q304.54688 64.18229 304.73438 63.822914Q304.92188 63.46354 305.25 63.229164Q305.5 63.05729 305.92188 62.93229Q306.34375 62.80729 306.84375 62.80729Q307.5625 62.80729 308.10938 63.02604Q308.67188 63.229164 308.9375 63.58854Q309.20312 63.947914 309.29688 64.541664L308.26562 64.68229Q308.20312 64.21354 307.85938 63.947914Q307.53125 63.666664 306.90625 63.666664Q306.1875 63.666664 305.875 63.916664Q305.5625 64.15104 305.5625 64.479164Q305.5625 64.68229 305.6875 64.83854Q305.82812 65.010414 306.09375 65.11979Q306.25 65.18229 307.03125 65.385414Q308.15625 65.697914 308.59375 65.885414Q309.03125 66.072914 309.28125 66.43229Q309.53125 66.791664 309.53125 67.33854Q309.53125 67.86979 309.21875 68.33854Q308.92188 68.791664 308.34375 69.05729Q307.76562 69.30729 307.03125 69.30729Q305.8125 69.30729 305.17188 68.80729Q304.54688 68.291664 304.375 67.30729ZM313.09375 68.229164L313.25 69.15104Q312.79688 69.24479 312.45312 69.24479Q311.875 69.24479 311.5625 69.072914Q311.25 68.885414 311.10938 68.58854Q310.98438 68.291664 310.98438 67.33854L310.98438 63.760414L310.21875 63.760414L310.21875 62.947914L310.98438 62.947914L310.98438 61.40104L312.03125 60.77604L312.03125 62.947914L313.09375 62.947914L313.09375 63.760414L312.03125 63.760414L312.03125 67.40104Q312.03125 67.854164 312.07812 67.979164Q312.14062 68.104164 312.26562 68.18229Q312.39062 68.260414 312.625 68.260414Q312.8125 68.260414 313.09375 68.229164ZM313.79688 61.791664L313.79688 60.572914L314.85938 60.572914L314.85938 61.791664L313.79688 61.791664ZM313.79688 69.166664L313.79688 62.947914L314.85938 62.947914L314.85938 69.166664L313.79688 69.166664ZM320.85938 66.885414L321.89062 67.02604Q321.71875 68.08854 321.01562 68.697914Q320.3125 69.30729 319.29688 69.30729Q318.01562 69.30729 317.23438 68.479164Q316.46875 67.635414 316.46875 66.072914Q316.46875 65.072914 316.79688 64.322914Q317.14062 63.55729 317.8125 63.18229Q318.5 62.80729 319.3125 62.80729Q320.3125 62.80729 320.95312 63.322914Q321.60938 63.822914 321.79688 64.77604L320.76562 64.93229Q320.625 64.30729 320.25 63.99479Q319.875 63.666664 319.34375 63.666664Q318.54688 63.666664 318.04688 64.24479Q317.54688 64.80729 317.54688 66.041664Q317.54688 67.30729 318.03125 67.86979Q318.51562 68.43229 319.28125 68.43229Q319.90625 68.43229 320.3125 68.05729Q320.73438 67.68229 320.85938 66.885414Z" fill-rule="nonzero"/><path fill="#ff6d01" d="M350.0 65.166664C350.0 68.48038 347.31372 71.166664 344.0 71.166664C340.68628 71.166664 338.0 68.48038 338.0 65.166664C338.0 61.85296 340.68628 59.166668 344.0 59.166668C347.31372 59.166668 350.0 61.85296 350.0 65.166664Z" fill-rule="nonzero"/><path fill="#1a1a1a" d="M365.0625 66.15104L366.1875 66.447914Q365.82812 67.83854 364.90625 68.572914Q363.98438 69.30729 362.64062 69.30729Q361.25 69.30729 360.375 68.74479Q359.5 68.18229 359.04688 67.11979Q358.59375 66.041664 358.59375 64.80729Q358.59375 63.46354 359.10938 62.46354Q359.625 61.46354 360.5625 60.947914Q361.51562 60.43229 362.65625 60.43229Q363.9375 60.43229 364.8125 61.08854Q365.70312 61.74479 366.04688 62.93229L364.92188 63.197914Q364.625 62.260414 364.04688 61.83854Q363.48438 61.40104 362.625 61.40104Q361.64062 61.40104 360.96875 61.885414Q360.3125 62.354164 360.03125 63.15104Q359.76562 63.947914 359.76562 64.80729Q359.76562 65.90104 360.07812 66.71354Q360.40625 67.52604 361.07812 67.93229Q361.75 68.33854 362.54688 68.33854Q363.5 68.33854 364.15625 67.791664Q364.82812 67.24479 365.0625 66.15104ZM367.92188 69.166664L367.92188 60.572914L371.17188 60.572914Q372.01562 60.572914 372.46875 60.65104Q373.10938 60.760414 373.53125 61.05729Q373.96875 61.354164 374.21875 61.885414Q374.48438 62.416664 374.48438 63.05729Q374.48438 64.15104 373.78125 64.916664Q373.09375 65.666664 371.26562 65.666664L369.0625 65.666664L369.0625 69.166664L367.92188 69.166664ZM369.0625 64.666664L371.28125 64.666664Q372.39062 64.666664 372.84375 64.260414Q373.3125 63.83854 373.3125 63.08854Q373.3125 62.55729 373.03125 62.18229Q372.76562 61.791664 372.32812 61.666664Q372.03125 61.58854 371.26562 61.58854L369.0625 61.58854L369.0625 64.666664ZM375.875 69.166664L375.875 60.572914L377.01562 60.572914L377.01562 68.15104L381.25 68.15104L381.25 69.166664L375.875 69.166664ZM382.95312 69.166664L382.95312 60.572914L389.15625 60.572914L389.15625 61.58854L384.09375 61.58854L384.09375 64.21354L388.84375 64.21354L388.84375 65.229164L384.09375 65.229164L384.09375 68.15104L389.35938 68.15104L389.35938 69.166664L382.95312 69.166664ZM390.04688 69.166664L393.375 64.68229L390.45312 60.572914L391.79688 60.572914L393.35938 62.77604Q393.84375 63.46354 394.04688 63.83854Q394.34375 63.36979 394.73438 62.854164L396.45312 60.572914L397.6875 60.572914L394.67188 64.61979L397.92188 69.166664L396.51562 69.166664L394.35938 66.104164Q394.17188 65.83854 393.98438 65.52604Q393.70312 65.99479 393.57812 66.166664L391.42188 69.166664L390.04688 69.166664Z" fill-rule="nonzero"/><path fill="#757575" d="M228.42188 39.5L228.42188 25.1875L232.75 25.1875L235.34375 34.953125L237.90625 25.1875L242.25 25.1875L242.25 39.5L239.5625 39.5L239.5625 28.234375L236.71875 39.5L233.9375 39.5L231.10938 28.234375L231.10938 39.5L228.42188 39.5ZM251.4375 36.203125L254.17188 36.65625Q253.65625 38.15625 252.51562 38.953125Q251.375 39.734375 249.67188 39.734375Q246.95312 39.734375 245.65625 37.96875Q244.64062 36.546875 244.64062 34.390625Q244.64062 31.8125 245.98438 30.359375Q247.32812 28.890625 249.39062 28.890625Q251.70312 28.890625 253.03125 30.421875Q254.375 31.953125 254.32812 35.109375L247.45312 35.109375Q247.48438 36.328125 248.10938 37.015625Q248.75 37.6875 249.6875 37.6875Q250.34375 37.6875 250.78125 37.34375Q251.21875 36.984375 251.4375 36.203125ZM251.59375 33.421875Q251.5625 32.234375 250.96875 31.625Q250.39062 31.0 249.5625 31.0Q248.65625 31.0 248.07812 31.640625Q247.48438 32.296875 247.5 33.421875L251.59375 33.421875ZM258.48438 32.296875L256.0 31.84375Q256.42188 30.34375 257.4375 29.625Q258.46875 28.890625 260.48438 28.890625Q262.32812 28.890625 263.21875 29.328125Q264.125 29.765625 264.48438 30.4375Q264.85938 31.09375 264.85938 32.890625L264.82812 36.09375Q264.82812 37.453125 264.95312 38.109375Q265.09375 38.75 265.45312 39.5L262.73438 39.5Q262.625 39.21875 262.46875 38.6875Q262.40625 38.4375 262.375 38.359375Q261.67188 39.046875 260.85938 39.390625Q260.0625 39.734375 259.15625 39.734375Q257.5625 39.734375 256.64062 38.875Q255.71875 38.0 255.71875 36.671875Q255.71875 35.78125 256.125 35.09375Q256.54688 34.40625 257.29688 34.046875Q258.0625 33.671875 259.5 33.40625Q261.42188 33.046875 262.15625 32.734375L262.15625 32.453125Q262.15625 31.671875 261.76562 31.34375Q261.375 31.0 260.29688 31.0Q259.5625 31.0 259.14062 31.28125Q258.73438 31.5625 258.48438 32.296875ZM262.15625 34.515625Q261.625 34.6875 260.48438 34.9375Q259.34375 35.1875 259.0 35.421875Q258.45312 35.796875 258.45312 36.390625Q258.45312 36.953125 258.875 37.375Q259.3125 37.796875 259.98438 37.796875Q260.71875 37.796875 261.39062 37.3125Q261.89062 36.9375 262.04688 36.40625Q262.15625 36.046875 262.15625 35.0625L262.15625 34.515625ZM276.875 39.5L274.125 39.5L274.125 34.203125Q274.125 32.53125 273.95312 32.046875Q273.78125 31.546875 273.375 31.28125Q272.98438 31.0 272.42188 31.0Q271.71875 31.0 271.14062 31.390625Q270.57812 31.78125 270.35938 32.421875Q270.15625 33.0625 270.15625 34.796875L270.15625 39.5L267.42188 39.5L267.42188 29.125L269.96875 29.125L269.96875 30.65625Q271.32812 28.890625 273.39062 28.890625Q274.29688 28.890625 275.04688 29.21875Q275.79688 29.546875 276.17188 30.0625Q276.5625 30.5625 276.71875 31.21875Q276.875 31.859375 276.875 33.046875L276.875 39.5ZM291.4375 36.203125L294.17188 36.65625Q293.65625 38.15625 292.51562 38.953125Q291.375 39.734375 289.67188 39.734375Q286.95312 39.734375 285.65625 37.96875Q284.64062 36.546875 284.64062 34.390625Q284.64062 31.8125 285.98438 30.359375Q287.32812 28.890625 289.39062 28.890625Q291.70312 28.890625 293.03125 30.421875Q294.375 31.953125 294.32812 35.109375L287.45312 35.109375Q287.48438 36.328125 288.10938 37.015625Q288.75 37.6875 289.6875 37.6875Q290.34375 37.6875 290.78125 37.34375Q291.21875 36.984375 291.4375 36.203125ZM291.59375 33.421875Q291.5625 32.234375 290.96875 31.625Q290.39062 31.0 289.5625 31.0Q288.65625 31.0 288.07812 31.640625Q287.48438 32.296875 287.5 33.421875L291.59375 33.421875ZM295.125 39.5L298.85938 34.15625L295.28125 29.125L298.625 29.125L300.45312 31.984375L302.39062 29.125L305.60938 29.125L302.09375 34.046875L305.9375 39.5L302.5625 39.5L300.45312 36.28125L298.32812 39.5L295.125 39.5ZM313.4375 36.203125L316.17188 36.65625Q315.65625 38.15625 314.51562 38.953125Q313.375 39.734375 311.67188 39.734375Q308.95312 39.734375 307.65625 37.96875Q306.64062 36.546875 306.64062 34.390625Q306.64062 31.8125 307.98438 30.359375Q309.32812 28.890625 311.39062 28.890625Q313.70312 28.890625 315.03125 30.421875Q316.375 31.953125 316.32812 35.109375L309.45312 35.109375Q309.48438 36.328125 310.10938 37.015625Q310.75 37.6875 311.6875 37.6875Q312.34375 37.6875 312.78125 37.34375Q313.21875 36.984375 313.4375 36.203125ZM313.59375 33.421875Q313.5625 32.234375 312.96875 31.625Q312.39062 31.0 311.5625 31.0Q310.65625 31.0 310.07812 31.640625Q309.48438 32.296875 309.5 33.421875L313.59375 33.421875ZM327.48438 32.1875L324.78125 32.6875Q324.64062 31.875 324.15625 31.46875Q323.67188 31.046875 322.90625 31.046875Q321.875 31.046875 321.26562 31.765625Q320.65625 32.46875 320.65625 34.125Q320.65625 35.96875 321.26562 36.734375Q321.89062 37.5 322.9375 37.5Q323.71875 37.5 324.21875 37.0625Q324.71875 36.609375 324.92188 35.53125L327.60938 35.984375Q327.20312 37.84375 326.0 38.796875Q324.8125 39.734375 322.8125 39.734375Q320.53125 39.734375 319.17188 38.296875Q317.82812 36.859375 317.82812 34.328125Q317.82812 31.75 319.1875 30.328125Q320.54688 28.890625 322.85938 28.890625Q324.75 28.890625 325.85938 29.71875Q326.98438 30.53125 327.48438 32.1875ZM336.26562 39.5L336.26562 37.953125Q335.70312 38.78125 334.76562 39.265625Q333.84375 39.734375 332.82812 39.734375Q331.78125 39.734375 330.95312 39.28125Q330.125 38.8125 329.75 37.984375Q329.375 37.15625 329.375 35.6875L329.375 29.125L332.125 29.125L332.125 33.890625Q332.125 36.078125 332.26562 36.578125Q332.42188 37.0625 332.8125 37.359375Q333.21875 37.640625 333.84375 37.640625Q334.54688 37.640625 335.09375 37.265625Q335.65625 36.875 335.85938 36.3125Q336.0625 35.734375 336.0625 33.5L336.0625 29.125L338.8125 29.125L338.8125 39.5L336.26562 39.5ZM346.1875 29.125L346.1875 31.3125L344.3125 31.3125L344.3125 35.5Q344.3125 36.765625 344.35938 36.984375Q344.42188 37.1875 344.60938 37.328125Q344.8125 37.453125 345.07812 37.453125Q345.45312 37.453125 346.1875 37.1875L346.42188 39.328125Q345.45312 39.734375 344.25 39.734375Q343.5 39.734375 342.90625 39.484375Q342.3125 39.234375 342.03125 38.84375Q341.76562 38.4375 341.65625 37.765625Q341.5625 37.296875 341.5625 35.84375L341.5625 31.3125L340.29688 31.3125L340.29688 29.125L341.5625 29.125L341.5625 27.0625L344.3125 25.46875L344.3125 29.125L346.1875 29.125ZM348.4375 27.71875L348.4375 25.1875L351.1875 25.1875L351.1875 27.71875L348.4375 27.71875ZM348.4375 39.5L348.4375 29.125L351.1875 29.125L351.1875 39.5L348.4375 39.5ZM353.79688 34.171875Q353.79688 32.796875 354.46875 31.515625Q355.15625 30.234375 356.39062 29.5625Q357.625 28.890625 359.14062 28.890625Q361.5 28.890625 363.0 30.421875Q364.5 31.953125 364.5 34.28125Q364.5 36.640625 362.98438 38.1875Q361.46875 39.734375 359.15625 39.734375Q357.73438 39.734375 356.4375 39.09375Q355.15625 38.4375 354.46875 37.203125Q353.79688 35.953125 353.79688 34.171875ZM356.60938 34.3125Q356.60938 35.859375 357.34375 36.6875Q358.07812 37.5 359.15625 37.5Q360.23438 37.5 360.95312 36.6875Q361.6875 35.859375 361.6875 34.296875Q361.6875 32.765625 360.95312 31.953125Q360.23438 31.125 359.15625 31.125Q358.07812 31.125 357.34375 31.953125Q356.60938 32.765625 356.60938 34.3125ZM375.875 39.5L373.125 39.5L373.125 34.203125Q373.125 32.53125 372.95312 32.046875Q372.78125 31.546875 372.375 31.28125Q371.98438 31.0 371.42188 31.0Q370.71875 31.0 370.14062 31.390625Q369.57812 31.78125 369.35938 32.421875Q369.15625 33.0625 369.15625 34.796875L369.15625 39.5L366.42188 39.5L366.42188 29.125L368.96875 29.125L368.96875 30.65625Q370.32812 28.890625 372.39062 28.890625Q373.29688 28.890625 374.04688 29.21875Q374.79688 29.546875 375.17188 30.0625Q375.5625 30.5625 375.71875 31.21875Q375.875 31.859375 375.875 33.046875L375.875 39.5ZM389.1875 29.125L389.1875 31.3125L387.3125 31.3125L387.3125 35.5Q387.3125 36.765625 387.35938 36.984375Q387.42188 37.1875 387.60938 37.328125Q387.8125 37.453125 388.07812 37.453125Q388.45312 37.453125 389.1875 37.1875L389.42188 39.328125Q388.45312 39.734375 387.25 39.734375Q386.5 39.734375 385.90625 39.484375Q385.3125 39.234375 385.03125 38.84375Q384.76562 38.4375 384.65625 37.765625Q384.5625 37.296875 384.5625 35.84375L384.5625 31.3125L383.29688 31.3125L383.29688 29.125L384.5625 29.125L384.5625 27.0625L387.3125 25.46875L387.3125 29.125L389.1875 29.125ZM391.4375 27.71875L391.4375 25.1875L394.1875 25.1875L394.1875 27.71875L391.4375 27.71875ZM391.4375 39.5L391.4375 29.125L394.1875 29.125L394.1875 39.5L391.4375 39.5ZM397.23438 29.125L399.76562 29.125L399.76562 30.546875Q401.125 28.890625 403.0 28.890625Q403.98438 28.890625 404.71875 29.3125Q405.45312 29.71875 405.92188 30.546875Q406.60938 29.71875 407.39062 29.3125Q408.1875 28.890625 409.09375 28.890625Q410.23438 28.890625 411.01562 29.359375Q411.8125 29.828125 412.20312 30.71875Q412.48438 31.390625 412.48438 32.875L412.48438 39.5L409.73438 39.5L409.73438 33.578125Q409.73438 32.03125 409.45312 31.578125Q409.07812 31.0 408.28125 31.0Q407.70312 31.0 407.1875 31.359375Q406.6875 31.703125 406.46875 32.375Q406.25 33.046875 406.25 34.515625L406.25 39.5L403.5 39.5L403.5 33.8125Q403.5 32.296875 403.34375 31.859375Q403.20312 31.421875 402.89062 31.21875Q402.59375 31.0 402.0625 31.0Q401.4375 31.0 400.92188 31.34375Q400.42188 31.671875 400.1875 32.328125Q399.96875 32.96875 399.96875 34.453125L399.96875 39.5L397.23438 39.5L397.23438 29.125ZM421.4375 36.203125L424.17188 36.65625Q423.65625 38.15625 422.51562 38.953125Q421.375 39.734375 419.67188 39.734375Q416.95312 39.734375 415.65625 37.96875Q414.64062 36.546875 414.64062 34.390625Q414.64062 31.8125 415.98438 30.359375Q417.32812 28.890625 419.39062 28.890625Q421.70312 28.890625 423.03125 30.421875Q424.375 31.953125 424.32812 35.109375L417.45312 35.109375Q417.48438 36.328125 418.10938 37.015625Q418.75 37.6875 419.6875 37.6875Q420.34375 37.6875 420.78125 37.34375Q421.21875 36.984375 421.4375 36.203125ZM421.59375 33.421875Q421.5625 32.234375 420.96875 31.625Q420.39062 31.0 419.5625 31.0Q418.65625 31.0 418.07812 31.640625Q417.48438 32.296875 417.5 33.421875L421.59375 33.421875Z" fill-rule="nonzero"/></svg>